<svg xmlns="http://www.w3.org/2000/svg" width="134.925" height="146.071" viewBox="0 0 134.925 146.071">
  <path id="Vector" d="M129.082,3.861c-6.943,11.5-14.32,22.782-21.264,34.282-1.3,2.17-4.99,1.3-4.774-1.3,0-4.99.217-9.764.217-14.754-3.472,3.689-4.339,8.028-4.99,13.235-.434,2.17-1.3,4.557-3.688,5.207-3.689,1.085-7.811-2.6-10.632-4.556C76.792,30.982,70.282,25.124,62.471,21c-9.113-4.556-9.33,1.953-7.377,9.113a88.9,88.9,0,0,0,9.33,21.914C71.367,63.745,79.4,75.9,81.348,89.565c1.085,7.594-2.821,19.094-12.368,18.66-11.716-.434-25.169-9.113-32.763-17.792C31.878,86.093,7.142,53.547,4.756,72.207,3.02,85.876,14.3,102.583,21.029,113.866a1.489,1.489,0,0,1-2.387,1.736A93.454,93.454,0,0,1,.417,78.717c-1.519-7.16.868-20.4,11.283-17.575C23.85,64.4,31.878,78.066,39.689,87.179c4.773,5.858,12.368,10.2,18.877,13.669,13.886,7.377,20.179-3.472,16.707-16.056C70.934,69.387,59.868,56.8,53.575,42.265c-2.17-5.207-9.981-22.565-1.519-26.9,9.764-4.99,22.782,7.377,29.726,12.8-.434-.217,11.066,9.113,11.717,7.16s.651-4.339,1.085-6.509a18.064,18.064,0,0,1,5.424-9.981,59.153,59.153,0,0,1-12.368-.651c-2.17-.434-2.387-3.689-.651-4.773C99.357,6.464,113.244,4.728,126.479.172,128.431-.7,130.384,1.908,129.082,3.861ZM105.649,14.926a1.5,1.5,0,0,1,1.519,1.953,2.279,2.279,0,0,1,1.085,1.953v8.679c4.339-6.943,8.679-13.67,13.018-20.613-8.245,2.387-16.707,4.123-24.518,7.377C99.574,14.492,102.612,14.709,105.649,14.926Z" transform="translate(114.666) rotate(81)" fill="#0bf"/>
</svg>
