<svg xmlns="http://www.w3.org/2000/svg" xmlns:xlink="http://www.w3.org/1999/xlink" width="794.933" height="576.57" viewBox="0 0 794.933 576.57">
  <defs>
    <filter id="Rectangle_22650" x="581.865" y="226.552" width="213.069" height="350.018" filterUnits="userSpaceOnUse">
      <feOffset dy="3" input="SourceAlpha"/>
      <feGaussianBlur stdDeviation="3" result="blur"/>
      <feFlood flood-color="#a0a0a0" flood-opacity="0.161"/>
      <feComposite operator="in" in2="blur"/>
      <feComposite in="SourceGraphic"/>
    </filter>
    <filter id="Path_78850" x="193.943" y="120.493" width="376.58" height="227.052" filterUnits="userSpaceOnUse">
      <feOffset dx="-5" dy="-5" input="SourceAlpha"/>
      <feGaussianBlur stdDeviation="2.5" result="blur-2"/>
      <feFlood flood-color="#dcdcdc" flood-opacity="0.22"/>
      <feComposite operator="in" in2="blur-2"/>
      <feComposite in="SourceGraphic"/>
    </filter>
    <filter id="Path_78854" x="221.455" y="150.251" width="111.452" height="129.58" filterUnits="userSpaceOnUse">
      <feOffset dx="-5" dy="-5" input="SourceAlpha"/>
      <feGaussianBlur stdDeviation="2.5" result="blur-3"/>
      <feFlood flood-color="#f0f0ff" flood-opacity="0.502"/>
      <feComposite operator="in" in2="blur-3"/>
      <feComposite in="SourceGraphic"/>
    </filter>
    <filter id="Path_78861" x="425.101" y="367.801" width="157.078" height="168.246" filterUnits="userSpaceOnUse">
      <feOffset dx="4" dy="4" input="SourceAlpha"/>
      <feGaussianBlur stdDeviation="3.5" result="blur-4"/>
      <feFlood flood-opacity="0.251"/>
      <feComposite operator="in" in2="blur-4"/>
      <feComposite in="SourceGraphic"/>
    </filter>
    <filter id="Rectangle_22656" x="419.101" y="361.802" width="151.079" height="162.246" filterUnits="userSpaceOnUse">
      <feOffset dx="-5" dy="-5" input="SourceAlpha"/>
      <feGaussianBlur stdDeviation="2.5" result="blur-5"/>
      <feFlood flood-color="#f0f0ff" flood-opacity="0.502"/>
      <feComposite operator="in" in2="blur-5"/>
      <feComposite in="SourceGraphic"/>
    </filter>
    <filter id="Rectangle_22659" x="265.878" y="361.802" width="151.079" height="162.246" filterUnits="userSpaceOnUse">
      <feOffset dx="-5" dy="-5" input="SourceAlpha"/>
      <feGaussianBlur stdDeviation="2.5" result="blur-6"/>
      <feFlood flood-color="#f0f0ff" flood-opacity="0.502"/>
      <feComposite operator="in" in2="blur-6"/>
      <feComposite in="SourceGraphic"/>
    </filter>
    <filter id="Path_78869" x="641.136" y="147.589" width="144.803" height="66.963" filterUnits="userSpaceOnUse">
      <feOffset dx="-5" dy="-5" input="SourceAlpha"/>
      <feGaussianBlur stdDeviation="2.5" result="blur-7"/>
      <feFlood flood-color="#b1b1b1" flood-opacity="0.141"/>
      <feComposite operator="in" in2="blur-7"/>
      <feComposite in="SourceGraphic"/>
    </filter>
    <filter id="Rectangle_22661" x="651.16" y="154.978" width="53.302" height="52.184" filterUnits="userSpaceOnUse">
      <feOffset dx="-5" dy="-5" input="SourceAlpha"/>
      <feGaussianBlur stdDeviation="2.5" result="blur-8"/>
      <feFlood flood-color="#f0f0ff" flood-opacity="0.502"/>
      <feComposite operator="in" in2="blur-8"/>
      <feComposite in="SourceGraphic"/>
    </filter>
    <filter id="Rectangle_22663" x="117.417" y="8.184" width="95.27" height="92.925" filterUnits="userSpaceOnUse">
      <feOffset dx="-5" dy="-5" input="SourceAlpha"/>
      <feGaussianBlur stdDeviation="2.5" result="blur-9"/>
      <feFlood flood-color="#c5c5c5" flood-opacity="0.161"/>
      <feComposite operator="in" in2="blur-9"/>
      <feComposite in="SourceGraphic"/>
    </filter>
    <filter id="Rectangle_22665" x="213.74" y="8.184" width="95.27" height="92.925" filterUnits="userSpaceOnUse">
      <feOffset dx="-5" dy="-5" input="SourceAlpha"/>
      <feGaussianBlur stdDeviation="2.5" result="blur-10"/>
      <feFlood flood-color="#c5c5c5" flood-opacity="0.161"/>
      <feComposite operator="in" in2="blur-10"/>
      <feComposite in="SourceGraphic"/>
    </filter>
    <filter id="Rectangle_22667" x="310.063" y="8.184" width="95.27" height="92.925" filterUnits="userSpaceOnUse">
      <feOffset dx="-5" dy="-5" input="SourceAlpha"/>
      <feGaussianBlur stdDeviation="2.5" result="blur-11"/>
      <feFlood flood-color="#c5c5c5" flood-opacity="0.161"/>
      <feComposite operator="in" in2="blur-11"/>
      <feComposite in="SourceGraphic"/>
    </filter>
    <filter id="Rectangle_22797" x="28.537" y="122.182" width="151.079" height="162.246" filterUnits="userSpaceOnUse">
      <feOffset dx="-5" dy="-5" input="SourceAlpha"/>
      <feGaussianBlur stdDeviation="2.5" result="blur-12"/>
      <feFlood flood-color="#f0f0ff" flood-opacity="0.502"/>
      <feComposite operator="in" in2="blur-12"/>
      <feComposite in="SourceGraphic"/>
    </filter>
    <filter id="Rectangle_22798" x="28.649" y="376.115" width="233.804" height="65.349" filterUnits="userSpaceOnUse">
      <feOffset dx="-5" dy="-5" input="SourceAlpha"/>
      <feGaussianBlur stdDeviation="2.5" result="blur-13"/>
      <feFlood flood-color="#cbcbcb" flood-opacity="0.141"/>
      <feComposite operator="in" in2="blur-13"/>
      <feComposite in="SourceGraphic"/>
    </filter>
    <filter id="Rectangle_22799" x="28.899" y="305.681" width="233.304" height="64.849" filterUnits="userSpaceOnUse">
      <feOffset dx="-5" dy="-5" input="SourceAlpha"/>
      <feGaussianBlur stdDeviation="2.5" result="blur-14"/>
      <feFlood flood-color="#f0f0ff" flood-opacity="0.502"/>
      <feComposite operator="in" in2="blur-14"/>
      <feComposite in="SourceGraphic"/>
    </filter>
  </defs>
  <g id="Group_41509" data-name="Group 41509" transform="translate(-140 -5891.75)">
    <path id="Rectangle_22648" data-name="Rectangle 22648" d="M0,0H693.355a0,0,0,0,1,0,0V422.621a4.549,4.549,0,0,1-4.549,4.549H4.549A4.549,4.549,0,0,1,0,422.621V0A0,0,0,0,1,0,0Z" transform="translate(140 5955.496)" fill="#eaf3ff"/>
    <path id="Rectangle_22649" data-name="Rectangle 22649" d="M4.723,0H688.805a4.549,4.549,0,0,1,4.549,4.549V13.68a0,0,0,0,1,0,0H0a0,0,0,0,1,0,0V4.723A4.723,4.723,0,0,1,4.723,0Z" transform="translate(140 5941.815)" fill="#4e17e2"/>
    <g transform="matrix(1, 0, 0, 1, 140, 5891.75)" filter="url(#Rectangle_22650)">
      <rect id="Rectangle_22650-2" data-name="Rectangle 22650" width="195.069" height="332.018" rx="10" transform="translate(590.86 232.55)" fill="#fff"/>
    </g>
    <rect id="Rectangle_22651" data-name="Rectangle 22651" width="195.069" height="112.242" rx="10" transform="translate(730.865 6221.958)" fill="#0bf"/>
    <g transform="matrix(1, 0, 0, 1, 140, 5891.75)" filter="url(#Path_78850)">
      <path id="Path_78850-2" data-name="Path 78850" d="M605.544,362.338H261.75l-8.644-8.642V159.43a8.644,8.644,0,0,1,8.644-8.644H605.544a8.642,8.642,0,0,1,8.642,8.644V353.7A8.642,8.642,0,0,1,605.544,362.338Z" transform="translate(-46.41 -17.54)" fill="#f7fbfe" stroke="#f4f4f4" stroke-width="0.5"/>
    </g>
    <g id="Group_40694" data-name="Group 40694" transform="translate(373.955 6054.501)">
      <g transform="matrix(1, 0, 0, 1, -233.96, -162.75)" filter="url(#Path_78854)">
        <path id="Path_78854-2" data-name="Path 78854" d="M367.69,276.569a8.422,8.422,0,0,1-8.423,8.423H279.9a8.664,8.664,0,0,1-8.665-8.663V178.835a8.422,8.422,0,0,1,8.423-8.423h79.607a8.422,8.422,0,0,1,8.423,8.423Z" transform="translate(-37.28 -7.66)" fill="#4e17e2"/>
      </g>
      <g id="Group_40693" data-name="Group 40693" transform="translate(24.781 28.656)">
        <path id="Path_78855" data-name="Path 78855" d="M311.165,212h0c-12.948,0-23.445,9.854-23.445,22.008v.116h46.891v-.116C334.611,221.858,324.114,212,311.165,212Z" transform="translate(-287.72 -178.127)" fill="#f7fbfe"/>
        <path id="Path_78856" data-name="Path 78856" d="M309.186,216.108a11.871,11.871,0,0,0,10.35-11.642v-3.231a11.871,11.871,0,0,0-10.35-11.642c-7.513-1.013-13.955,4.429-13.955,11.285v3.944C295.231,211.679,301.673,217.121,309.186,216.108Z" transform="translate(-283.938 -189.472)" fill="#f7fbfe"/>
      </g>
    </g>
    <rect id="Rectangle_22654" data-name="Rectangle 22654" width="195.069" height="112.242" rx="10" transform="translate(730.865 6124.302)" fill="#4e17e2"/>
    <g id="Group_40696" data-name="Group 40696" transform="translate(147.255 5945.914)">
      <path id="Path_78857" data-name="Path 78857" d="M125.938,100.931a2.741,2.741,0,1,1-2.741-2.742A2.74,2.74,0,0,1,125.938,100.931Z" transform="translate(-120.456 -98.189)" fill="#fff"/>
      <path id="Path_78858" data-name="Path 78858" d="M135.6,100.931a2.741,2.741,0,1,1-2.741-2.742A2.741,2.741,0,0,1,135.6,100.931Z" transform="translate(-115.592 -98.189)" fill="#fff"/>
      <path id="Path_78859" data-name="Path 78859" d="M145.26,100.931a2.741,2.741,0,1,1-2.741-2.742A2.741,2.741,0,0,1,145.26,100.931Z" transform="translate(-110.728 -98.189)" fill="#fff"/>
    </g>
    <g id="Group_40697" data-name="Group 40697" transform="translate(491.228 6064.097)">
      <line id="Line_30" data-name="Line 30" x2="76.298" transform="translate(0 18.205)" fill="none" stroke="#4e17e2" stroke-linecap="round" stroke-width="4"/>
      <line id="Line_31" data-name="Line 31" x2="101.979" transform="translate(0 35.616)" fill="none" stroke="#4e17e2" stroke-linecap="round" stroke-width="4"/>
      <line id="Line_32" data-name="Line 32" x2="158.002" transform="translate(0 67.534)" fill="none" stroke="#4e17e2" stroke-linecap="round" stroke-width="4"/>
      <line id="Line_33" data-name="Line 33" x2="158.002" transform="translate(0 82.641)" fill="none" stroke="#4e17e2" stroke-linecap="round" stroke-width="4"/>
      <line id="Line_34" data-name="Line 34" x2="81.521" transform="translate(0 97.748)" fill="none" stroke="#4e17e2" stroke-linecap="round" stroke-width="4"/>
      <line id="Line_35" data-name="Line 35" x2="36.941" transform="translate(0 0)" fill="none" stroke="#4e17e2" stroke-linecap="round" stroke-width="4"/>
    </g>
    <g id="Group_40698" data-name="Group 40698" transform="translate(793.887 6153.991)">
      <line id="Line_36" data-name="Line 36" x2="53.546" transform="translate(0 0)" fill="none" stroke="#fff" stroke-linecap="round" stroke-width="4"/>
      <line id="Line_37" data-name="Line 37" x2="110.884" transform="translate(0 21.804)" fill="none" stroke="#fff" stroke-linecap="round" stroke-width="4"/>
      <line id="Line_38" data-name="Line 38" x2="110.884" transform="translate(0 34.785)" fill="none" stroke="#fff" stroke-linecap="round" stroke-width="4"/>
      <line id="Line_39" data-name="Line 39" x2="57.21" transform="translate(0 47.766)" fill="none" stroke="#fff" stroke-linecap="round" stroke-width="4"/>
    </g>
    <g id="Group_40699" data-name="Group 40699" transform="translate(793.887 6263.529)">
      <line id="Line_40" data-name="Line 40" x2="53.546" transform="translate(0 0)" fill="none" stroke="#fff" stroke-linecap="round" stroke-width="4"/>
      <line id="Line_41" data-name="Line 41" x2="110.884" transform="translate(0 21.804)" fill="none" stroke="#fff" stroke-linecap="round" stroke-width="4"/>
      <line id="Line_42" data-name="Line 42" x2="110.884" transform="translate(0 34.785)" fill="none" stroke="#fff" stroke-linecap="round" stroke-width="4"/>
      <line id="Line_43" data-name="Line 43" x2="57.21" transform="translate(0 47.766)" fill="none" stroke="#fff" stroke-linecap="round" stroke-width="4"/>
    </g>
    <g id="Group_40701" data-name="Group 40701" transform="translate(571.601 6266.051)">
      <g transform="matrix(1, 0, 0, 1, -431.6, -374.3)" filter="url(#Path_78861)">
        <path id="Path_78861-2" data-name="Path 78861" d="M533.64,458.364H407.83l-5.134-5.136V316.254a5.136,5.136,0,0,1,5.134-5.136H533.64a5.136,5.136,0,0,1,5.134,5.136V453.228A5.135,5.135,0,0,1,533.64,458.364Z" transform="translate(28.91 63.18)" fill="#eaeaea"/>
      </g>
      <g transform="matrix(1, 0, 0, 1, -431.6, -374.3)" filter="url(#Rectangle_22656)">
        <path id="Rectangle_22656-2" data-name="Rectangle 22656" d="M3.416,0H132.664a3.415,3.415,0,0,1,3.415,3.415V143.83a3.416,3.416,0,0,1-3.416,3.416H3.416A3.416,3.416,0,0,1,0,143.83V3.416A3.416,3.416,0,0,1,3.416,0Z" transform="translate(431.6 374.3)" fill="#28236e"/>
      </g>
      <text id="UX" transform="translate(30.111 88.78)" fill="#f7fbfe" stroke="#f4f4f4" stroke-width="0.5" font-size="42" font-family="Poppins-Bold, Poppins" font-weight="700"><tspan x="0" y="0">UX</tspan></text>
    </g>
    <path id="Path_78863" data-name="Path 78863" d="M543.718,273.882H514.141a5.517,5.517,0,0,1-5.516-5.516V67.846a5.517,5.517,0,0,1,5.516-5.516h29.577a5.517,5.517,0,0,1,5.516,5.516V268.366A5.517,5.517,0,0,1,543.718,273.882Z" transform="translate(222.239 5829.67)" fill="#28236e" stroke="#f4f4f4" stroke-width="0.5"/>
    <line id="Line_48" data-name="Line 48" y2="180.71" transform="translate(751.169 5906.41)" fill="none" stroke="#4088ff" stroke-linecap="round" stroke-width="2"/>
    <rect id="Rectangle_22658" data-name="Rectangle 22658" width="17.806" height="17.286" rx="8.643" transform="translate(742.266 5955.627)" fill="#fff"/>
    <g transform="matrix(1, 0, 0, 1, 140, 5891.75)" filter="url(#Rectangle_22659)">
      <path id="Rectangle_22659-2" data-name="Rectangle 22659" d="M3.416,0H132.664a3.415,3.415,0,0,1,3.415,3.415V143.83a3.416,3.416,0,0,1-3.416,3.416H3.416A3.416,3.416,0,0,1,0,143.83V3.416A3.416,3.416,0,0,1,3.416,0Z" transform="translate(278.38 374.3)" fill="#0bf"/>
    </g>
    <g id="Group_40705" data-name="Group 40705" transform="translate(443.391 6290.8)">
      <line id="Line_49" data-name="Line 49" x2="42.295" transform="translate(0 18.205)" fill="none" stroke="#fff" stroke-linecap="round" stroke-width="4"/>
      <line id="Line_50" data-name="Line 50" x2="56.53" transform="translate(0 35.616)" fill="none" stroke="#fff" stroke-linecap="round" stroke-width="4"/>
      <line id="Line_51" data-name="Line 51" x2="87.586" transform="translate(0 67.534)" fill="none" stroke="#fff" stroke-linecap="round" stroke-width="4"/>
      <line id="Line_52" data-name="Line 52" x2="87.586" transform="translate(0 82.641)" fill="none" stroke="#fff" stroke-linecap="round" stroke-width="4"/>
      <line id="Line_53" data-name="Line 53" x2="45.19" transform="translate(0 97.748)" fill="none" stroke="#fff" stroke-linecap="round" stroke-width="4"/>
      <line id="Line_54" data-name="Line 54" x2="20.478" fill="none" stroke="#fff" stroke-linecap="round" stroke-width="4"/>
    </g>
    <g id="Group_40707" data-name="Group 40707" transform="translate(752.837 6149.745)">
      <rect id="Rectangle_22660" data-name="Rectangle 22660" width="21.865" height="21.864" transform="translate(0 9.852)" fill="#f7fbfe" stroke="#f4f4f4" stroke-width="0.5"/>
      <path id="Path_78865" data-name="Path 78865" d="M539.831,250.922H525.966V240.694a6.933,6.933,0,0,1,6.932-6.933h0a6.932,6.932,0,0,1,6.933,6.933Z" transform="translate(-521.867 -233.761)" fill="none" stroke="#f7fbfe" stroke-width="3"/>
    </g>
    <g id="Group_40709" data-name="Group 40709" transform="translate(750.744 6255.822)">
      <g id="Group_40708" data-name="Group 40708" transform="translate(0)">
        <path id="Path_78866" data-name="Path 78866" d="M545.646,329.6V317.422a10.668,10.668,0,0,0-9.06-10.539v-.955a1.613,1.613,0,1,0-3.225,0v.955a10.668,10.668,0,0,0-9.06,10.539V329.6a4.433,4.433,0,0,0-2.454,3.965H548.1A4.433,4.433,0,0,0,545.646,329.6Z" transform="translate(-521.847 -304.315)" fill="#fff"/>
        <path id="Path_78867" data-name="Path 78867" d="M532.307,329.948a5.165,5.165,0,0,0,5.164-5.164H527.142A5.165,5.165,0,0,0,532.307,329.948Z" transform="translate(-519.181 -294.009)" fill="#fff"/>
      </g>
    </g>
    <g transform="matrix(1, 0, 0, 1, 140, 5891.75)" filter="url(#Path_78869)">
      <path id="Path_78869-2" data-name="Path 78869" d="M654.113,220.271h-77.84a25.807,25.807,0,0,1-25.731-25.731v0a25.732,25.732,0,0,1,25.732-25.731h77.839a25.732,25.732,0,0,1,25.732,25.731h0A25.733,25.733,0,0,1,654.113,220.271Z" transform="translate(103.34 -8.47)" fill="#fff" stroke="#f4f4f4" stroke-width="0.5"/>
    </g>
    <g id="Group_40711" data-name="Group 40711" transform="translate(803.66 6059.228)">
      <g transform="matrix(1, 0, 0, 1, -663.66, -167.48)" filter="url(#Rectangle_22661)">
        <rect id="Rectangle_22661-2" data-name="Rectangle 22661" width="38.302" height="37.184" rx="18.592" transform="translate(663.66 167.48)" fill="#4e17e2"/>
      </g>
    </g>
    <line id="Line_55" data-name="Line 55" x2="143.355" transform="translate(758.705 6393.07)" fill="none" stroke="#4088ff" stroke-linecap="round" stroke-width="1" stroke-dasharray="0 2"/>
    <line id="Line_56" data-name="Line 56" x2="74.611" transform="translate(758.705 6367.204)" fill="none" stroke="#4e17e2" stroke-linecap="round" stroke-width="4"/>
    <line id="Line_57" data-name="Line 57" x2="74.611" transform="translate(758.705 6422.882)" fill="none" stroke="#4e17e2" stroke-linecap="round" stroke-width="4"/>
    <line id="Line_58" data-name="Line 58" x2="22.575" transform="translate(882.418 6367.204)" fill="none" stroke="#4e17e2" stroke-linecap="round" stroke-width="4"/>
    <line id="Line_59" data-name="Line 59" x2="22.575" transform="translate(882.418 6422.882)" fill="none" stroke="#4e17e2" stroke-linecap="round" stroke-width="4"/>
    <path id="Path_78870" data-name="Path 78870" d="M565.109,149.414V131.825a11.069,11.069,0,0,0-11.069-11.069H196.964a12.68,12.68,0,0,0-12.68,12.679V152.6" transform="translate(58.937 5859.087)" fill="none" stroke="#4e17e2" stroke-linecap="round" stroke-width="1" stroke-dasharray="5"/>
    <path id="Path_79713" data-name="Path 79713" d="M580.7,123.94v17.59A11.3,11.3,0,0,1,569.181,152.6h-371.7a12.948,12.948,0,0,1-13.2-12.679V-142.556" transform="translate(58.937 6289.087)" fill="none" stroke="#4e17e2" stroke-linecap="round" stroke-width="1" stroke-dasharray="5"/>
    <g transform="matrix(1, 0, 0, 1, 140, 5891.75)" filter="url(#Rectangle_22663)">
      <rect id="Rectangle_22663-2" data-name="Rectangle 22663" width="80.27" height="77.925" rx="10" transform="translate(129.92 20.68)" fill="#f7fbfe"/>
    </g>
    <g id="Group_40714" data-name="Group 40714" transform="translate(297.178 5938.522)">
      <path id="Path_78871" data-name="Path 78871" d="M245.919,106.147a12.874,12.874,0,1,1-12.873-12.874A12.874,12.874,0,0,1,245.919,106.147Z" transform="translate(-220.172 -93.273)" fill="#4e17e2"/>
      <g id="Group_40713" data-name="Group 40713" transform="translate(7.64 7.64)">
        <line id="Line_60" data-name="Line 60" y2="10.469" transform="translate(5.235)" fill="none" stroke="#f4f4f4" stroke-width="0.5"/>
        <line id="Line_61" data-name="Line 61" x1="10.469" transform="translate(0 5.235)" fill="none" stroke="#f4f4f4" stroke-width="0.5"/>
      </g>
    </g>
    <g transform="matrix(1, 0, 0, 1, 140, 5891.75)" filter="url(#Rectangle_22665)">
      <rect id="Rectangle_22665-2" data-name="Rectangle 22665" width="80.27" height="77.925" rx="10" transform="translate(226.24 20.68)" fill="#f7fbfe"/>
    </g>
    <g id="Group_40716" data-name="Group 40716" transform="translate(393.5 5938.522)">
      <path id="Path_78872" data-name="Path 78872" d="M309.985,106.147a12.874,12.874,0,1,1-12.873-12.874A12.874,12.874,0,0,1,309.985,106.147Z" transform="translate(-284.238 -93.273)" fill="#4e17e2"/>
    </g>
    <path id="Path_78873" data-name="Path 78873" d="M289.511,104.306l2.771,2.868,6.868-7.8" transform="translate(111.917 5848.321)" fill="none" stroke="#f4f4f4" stroke-width="0.5"/>
    <g transform="matrix(1, 0, 0, 1, 140, 5891.75)" filter="url(#Rectangle_22667)">
      <rect id="Rectangle_22667-2" data-name="Rectangle 22667" width="80.27" height="77.925" rx="10" transform="translate(322.56 20.68)" fill="#f7fbfe"/>
    </g>
    <g id="Group_40719" data-name="Group 40719" transform="translate(489.823 5938.522)">
      <path id="Path_78874" data-name="Path 78874" d="M374.053,106.147a12.874,12.874,0,1,1-12.874-12.874A12.875,12.875,0,0,1,374.053,106.147Z" transform="translate(-348.304 -93.273)" fill="#4e17e2"/>
      <g id="Group_40718" data-name="Group 40718" transform="translate(9.173 9.173)">
        <line id="Line_62" data-name="Line 62" x1="7.403" y2="7.403" fill="none" stroke="#f4f4f4" stroke-width="0.5"/>
        <line id="Line_63" data-name="Line 63" x1="7.403" y1="7.403" fill="none" stroke="#f4f4f4" stroke-width="0.5"/>
      </g>
    </g>
    <g transform="matrix(1, 0, 0, 1, 140, 5891.75)" filter="url(#Rectangle_22797)">
      <path id="Rectangle_22797-2" data-name="Rectangle 22797" d="M3.416,0H132.664a3.415,3.415,0,0,1,3.415,3.415V143.83a3.416,3.416,0,0,1-3.416,3.416H3.416A3.416,3.416,0,0,1,0,143.83V3.416A3.416,3.416,0,0,1,3.416,0Z" transform="translate(41.04 134.68)" fill="#28236e"/>
    </g>
    <text id="UI" transform="translate(228.442 6113.591)" fill="#f7fbfe" stroke="#f4f4f4" stroke-width="0.5" font-size="42" font-family="Poppins-Bold, Poppins" font-weight="700"><tspan x="0" y="0">UI</tspan></text>
    <g transform="matrix(1, 0, 0, 1, 140, 5891.75)" filter="url(#Rectangle_22798)">
      <path id="Rectangle_22798-2" data-name="Rectangle 22798" d="M3.416,0H214.889A3.415,3.415,0,0,1,218.3,3.415V46.433a3.416,3.416,0,0,1-3.416,3.416H3.416A3.416,3.416,0,0,1,0,46.433V3.416A3.416,3.416,0,0,1,3.416,0Z" transform="translate(41.4 388.86)" fill="#f7fbfe" stroke="#f4f4f4" stroke-width="0.5"/>
    </g>
    <line id="Line_118" data-name="Line 118" x2="110.421" transform="translate(201.963 6305.539)" fill="none" stroke="#4e17e2" stroke-linecap="round" stroke-width="4"/>
    <line id="Line_119" data-name="Line 119" x2="14.569" transform="translate(366.82 6305.539)" fill="none" stroke="#4e17e2" stroke-linecap="round" stroke-width="4"/>
    <g transform="matrix(1, 0, 0, 1, 140, 5891.75)" filter="url(#Rectangle_22799)">
      <path id="Rectangle_22799-2" data-name="Rectangle 22799" d="M3.416,0H214.889A3.415,3.415,0,0,1,218.3,3.415V46.433a3.416,3.416,0,0,1-3.416,3.416H3.416A3.416,3.416,0,0,1,0,46.433V3.416A3.416,3.416,0,0,1,3.416,0Z" transform="translate(41.4 318.18)" fill="#4e17e2"/>
    </g>
    <line id="Line_120" data-name="Line 120" x2="110.421" transform="translate(201.963 6234.854)" fill="none" stroke="#fff" stroke-linecap="round" stroke-width="4"/>
    <line id="Line_121" data-name="Line 121" x2="14.569" transform="translate(366.82 6234.854)" fill="none" stroke="#fff" stroke-linecap="round" stroke-width="4"/>
  </g>
</svg>
