<svg xmlns="http://www.w3.org/2000/svg" width="1216.879" height="861" viewBox="0 0 1216.879 861">
  <g id="Group_40762" data-name="Group 40762" transform="translate(-25.993 -53.224)">
    <path id="Path_78886" data-name="Path 78886" d="M247.7,385.765,179.221,527.6s-6.071,12.664,11.366,12.278,578.1,16.417,589.817,16.807,14.331-7.148,7.119-22.346c-6.534-13.78-48.644-112.581-56.445-130.9a4.9,4.9,0,0,0-4.415-3.036L252.379,382.944A4.9,4.9,0,0,0,247.7,385.765Z" transform="translate(165.342 357.527)" fill="#1b222d" fill-rule="evenodd"/>
    <g id="Group_40764" data-name="Group 40764" transform="translate(121.468 189.402)">
      <path id="Path_78887" data-name="Path 78887" d="M459.585,266.27c.075-.086,9.2-10.352,25.111-24.821,9.9,3.336,57.13,17.949,56.887-6.991-.2-20.5-29.3-10.48-44.657-3.757,7.354-6.249,15.652-12.918,24.762-19.661,11.527,4.018,54.613,17.675,53.946-3.048-.691-21.435-31.282-10.252-41.171-6.069,7.993-5.489,16.486-10.926,25.407-16.117,9.071,3.993,43.715,17.946,46.341-.643,2.337-16.542-20.264-11.241-30.654-7.976q7.67-3.965,15.674-7.586c19.953,2.994,68.062-7.273,50.109-24.754-15.633-15.226-41.684,11.249-50.234,20.871-6.036,2.687-11.94,5.548-17.7,8.537,6.357-10.732,19.388-36.089-.8-33.971-22.478,2.358-16.943,35.025-15.286,42.855-7.252,4.244-14.224,8.646-20.871,13.1,9.146-13.569,25.472-42.271,2.065-45.02-28.217-3.313-21.195,48.924-19.839,57.588-10.682,7.947-20.239,15.777-28.457,22.926,8.742-11.873,35.586-51.113,7.352-49.65-29.5,1.531-18.218,46.577-15.3,56.714-16.069,14.61-25.286,24.981-25.363,25.065Z" transform="translate(346.643 -95.61)" fill="#03a71e" fill-rule="evenodd"/>
      <path id="Path_78888" data-name="Path 78888" d="M398.707,335.458c-.056-.088-6.956-10.561-15.954-28.011,5.28-7.943,29.329-46.141,7.277-51.822-18.13-4.671-16.169,23.367-13.868,38.495-3.772-7.961-7.694-16.855-11.487-26.482,6.267-9.215,28.493-43.988,10.06-48.3-19.071-4.456-16.432,25.173-15.08,34.881-2.954-8.349-5.742-17.127-8.212-26.223,5.664-7.056,26.156-34.309,10.384-41.017-14.037-5.971-14.7,15.213-14.279,25.148q-1.68-7.7-2.986-15.618c7.356-16.891,9.67-61.74-9.989-50.04-17.12,10.19.071,39.419,6.536,49.235q1.418,8.935,3.346,17.627c-7.963-8.143-27.243-25.63-30.147-7.323-3.232,20.379,26.882,23.219,34.18,23.6,2.03,7.4,4.262,14.587,6.624,21.5-9.808-11.274-31.259-32.448-39.214-12.459-9.591,24.1,38.131,30.252,46.1,31.107,4.486,11.3,9.132,21.574,13.494,30.512-8.406-10.519-36.665-43.46-42.045-18.216-5.623,26.379,36.769,27.072,46.4,26.893,9.088,17.623,16.056,28.2,16.113,28.29Z" transform="translate(191.472 -90.839)" fill="#03a71e" fill-rule="evenodd"/>
      <g id="Group_40762-2" data-name="Group 40762" transform="translate(682.964 410.705)">
        <path id="Path_78889" data-name="Path 78889" d="M400.9,400.3c.086-.058,10.559-6.956,28.009-15.956,7.943,5.281,46.143,29.329,51.824,7.277,4.669-18.13-23.367-16.167-38.5-13.868,7.961-3.772,16.855-7.694,26.482-11.487,9.215,6.267,43.99,28.493,48.3,10.06,4.456-19.069-25.173-16.432-34.881-15.08,8.349-2.954,17.124-5.742,26.221-8.212,7.056,5.664,34.311,26.156,41.019,10.386,5.971-14.039-15.213-14.7-25.148-14.279q7.7-1.684,15.618-2.986c16.889,7.354,61.74,9.668,50.038-9.991-10.19-17.12-39.417.071-49.233,6.536-5.956.943-11.842,2.072-17.627,3.346,8.143-7.961,25.628-27.243,7.321-30.147-20.379-3.232-23.216,26.884-23.6,34.18-7.4,2.03-14.588,4.264-21.5,6.624,11.274-9.808,32.451-31.259,12.459-39.212-24.1-9.593-30.251,38.132-31.1,46.095-11.3,4.486-21.575,9.132-30.512,13.494,10.517-8.408,43.458-36.665,18.213-42.045-26.379-5.623-27.07,36.769-26.893,46.4-17.623,9.086-28.2,16.054-28.288,16.11Z" transform="translate(-399.11 -315.663)" fill="#03a71e" fill-rule="evenodd"/>
        <path id="Path_78890" data-name="Path 78890" d="M400.9,390.481c.086-.058,10.559-6.956,28.009-15.956a151.183,151.183,0,0,0,18.109,10.3c-.605-9.883,8.105-15.8,13.071-18.349a117.3,117.3,0,0,0-17.853,1.454c4.5-2.13,9.29-4.308,14.346-6.484a10.45,10.45,0,0,1-.344-3.413c-7.281,3.113-14.035,6.236-20.16,9.226,4.65-3.716,13.68-11.312,20.127-19.094-6.313-1.362-4.187-13.7-1.652-22.891-.088-.019-.171-.042-.261-.061-26.379-5.623-27.07,36.769-26.893,46.4-17.623,9.086-28.2,16.054-28.288,16.11Z" transform="translate(-399.11 -305.84)" fill="#03a71e" fill-rule="evenodd"/>
      </g>
      <g id="Group_40763" data-name="Group 40763" transform="translate(79.792 390.468)">
        <path id="Path_78891" data-name="Path 78891" d="M299.563,393.4c-.083-.058-10.4-7.189-27.646-16.574-8.057,5.1-46.786,28.295-51.974,6.121-4.264-18.228,23.721-15.643,38.795-13.006-7.876-3.949-16.682-8.068-26.221-12.076-9.355,6.063-44.612,27.508-48.509,8.984-4.031-19.161,25.526-15.868,35.2-14.3-8.281-3.14-16.991-6.119-26.027-8.792-7.181,5.506-34.885,25.386-41.24,9.468-5.656-14.164,15.531-14.358,25.455-13.715q-7.658-1.856-15.541-3.332c-17.051,6.979-61.94,8.293-49.806-11.1,10.567-16.891,39.4.945,49.074,7.628,5.936,1.077,11.794,2.335,17.55,3.739-7.966-8.143-25.015-27.806-6.649-30.3,20.444-2.779,22.614,27.389,22.841,34.7,7.35,2.193,14.485,4.586,21.347,7.1-11.053-10.056-31.745-31.973-11.583-39.479,24.308-9.052,29.4,38.8,30.072,46.777,11.2,4.734,21.366,9.605,30.2,14.166-10.327-8.639-42.63-37.62-17.273-42.438,26.5-5.034,26.248,37.362,25.854,46.988,17.417,9.476,27.838,16.678,27.925,16.736Z" transform="translate(-110.001 -305.964)" fill="#03a71e" fill-rule="evenodd"/>
        <path id="Path_78892" data-name="Path 78892" d="M254.7,392.691c-.083-.058-10.4-7.189-27.646-16.574-2.143,1.356-6.449,3.989-11.717,6.71,1.07-4.592-.232-9.343-2.648-13.8.4.067.8.134,1.185.2l-1.483-.741a44.5,44.5,0,0,0-3.668-5.437c3.976,1.911,7.759,3.8,11.322,5.639-10.327-8.639-42.63-37.62-17.273-42.438,26.5-5.034,26.248,37.362,25.854,46.988,17.417,9.476,27.838,16.678,27.925,16.736l-1.853,2.71Zm-95.5-58.191c6.019-1.483,19.807-3.691,28.355,4.273-3.3-16.183-10.916-37.3-27.785-31.021C146.2,312.806,151.149,324.4,159.206,334.5Z" transform="translate(-65.142 -305.255)" fill="#03a71e" fill-rule="evenodd"/>
      </g>
      <path id="Path_78893" data-name="Path 78893" d="M254.872,248.614c-.073-.086-8.969-10.555-24.552-25.372-9.975,3.115-57.517,16.674-56.721-8.256.655-20.5,29.53-9.824,44.731-2.762-7.215-6.411-15.362-13.263-24.318-20.208-11.614,3.762-55,16.457-53.866-4.248,1.166-21.414,31.5-9.555,41.3-5.151-7.87-5.666-16.24-11.289-25.042-16.678-9.157,3.791-44.1,16.968-46.316-1.673-1.967-16.59,20.511-10.786,30.825-7.294q-7.583-4.134-15.5-7.93c-20.016,2.549-67.882-8.788-49.546-25.864,15.969-14.873,41.424,12.174,49.756,21.986q8.963,4.231,17.506,8.927c-6.117-10.872-18.583-36.51,1.556-33.944C167.1,123,160.838,155.542,159.006,163.33c7.158,4.406,14.03,8.961,20.577,13.565-8.842-13.77-24.527-42.826-1.064-45.054,28.284-2.687,20.1,49.381,18.554,58.014,10.5,8.183,19.883,16.223,27.94,23.554-8.475-12.065-34.441-51.891-6.246-49.8,29.461,2.186,17.177,46.969,14.033,57.04,15.741,14.963,24.725,25.536,24.8,25.624Z" transform="translate(-71.755 -118.806)" fill="#03a71e" fill-rule="evenodd"/>
    </g>
    <g id="Group_40787" data-name="Group 40787" transform="translate(174.468 53.82)">
      <g id="Group_40765" data-name="Group 40765" transform="translate(190.895 325.242)">
        <path id="Path_78894" data-name="Path 78894" d="M188.658,503.549l7.112-276.476s-2.186-18.18,22.328-17.331S658.289,222.5,658.289,222.5s16.82,3.155,17.761,16.186-6.674,282.555-6.674,282.555Z" transform="translate(-188.658 -209.713)" fill="#fff" fill-rule="evenodd"/>
        <path id="Path_78895" data-name="Path 78895" d="M315.356,214.883a4.14,4.14,0,1,1-4.139,4.139A4.14,4.14,0,0,1,315.356,214.883Z" transform="translate(-55.521 -204.097)" fill="#1b222d" fill-rule="evenodd"/>
        <path id="Path_78896" data-name="Path 78896" d="M197.249,460.1l5.84-226.9s-1.9-15.825,19.43-15.082S633.8,232.773,633.8,232.773s14.638,2.743,15.455,14.085c.7,9.649-4,180.9-5.414,231.762a13.935,13.935,0,0,1-14.521,13.534L210.589,474.382A13.954,13.954,0,0,1,197.249,460.1Z" transform="translate(-179.33 -200.615)" fill="#1b222d" fill-rule="evenodd"/>
        <path id="Path_78897" data-name="Path 78897" d="M456.107,428.448s-62.231-26.227-151.65-43.16l-84.915,98.192c-11.569-10.872-22.132-11.216-30.539-7.888L195.4,227.073s-2.186-18.18,22.328-17.331c10.356.359,90.536,2.693,179.686,5.27C409.134,287.288,420.853,363.405,456.107,428.448Z" transform="translate(-188.283 -209.713)" fill="#1b222d" fill-rule="evenodd"/>
        <path id="Path_78898" data-name="Path 78898" d="M393.9,215.274l41.424,1.189s16.82,3.155,17.761,16.186c.653,9.046-2.817,141.719-5,222-5.969-10.665-15.806-18.1-30.362.008C398.433,478.662,394.551,311.931,393.9,215.274Z" transform="translate(34.303 -203.672)" fill="#1b222d" fill-rule="evenodd"/>
        <path id="Path_78899" data-name="Path 78899" d="M295.1,348.274s36.64-1.6,37.637,2.554.332,8.191-.582,7.978-36.888.636-37.554-1.383S294.024,348.274,295.1,348.274Z" transform="translate(-74.025 -59.521)" fill="#ebf0fd" fill-rule="evenodd"/>
      </g>
      <g id="Group_40785" data-name="Group 40785">
        <path id="Path_78900" data-name="Path 78900" d="M521.377,587.229l-25.213-71.4a2.731,2.731,0,0,0-2.2-1.826q-15.691-2.454-31.364-4.536a2.787,2.787,0,0,0-2.981,3.726l25.8,70.077a2.718,2.718,0,0,0,2.1,1.775q15.325,2.87,30.694,5.85a2.787,2.787,0,0,0,3.159-3.664Zm1.525.409c-8.22-23.064-16.373-45.951-24.272-68.683a2.787,2.787,0,0,1,3.107-3.661l31.424,5.414a2.722,2.722,0,0,1,2.174,1.878c7.849,23.89,16.19,48,24.781,72.374a2.787,2.787,0,0,1-3.175,3.659l-30.894-6.19a2.72,2.72,0,0,1-2.078-1.8l-1.066-2.992Zm-29.286-79.157a2.787,2.787,0,0,1-3.059,3.661q-15.716-2.416-31.372-4.454a2.727,2.727,0,0,1-2.255-1.8c-8.512-23.079-16.926-46.045-25.055-68.921a2.784,2.784,0,0,1,2.879-3.707q16.755,1.527,33.579,3.749a2.732,2.732,0,0,1,2.295,1.93c7.221,23.041,14.955,46.214,22.987,69.541Zm-25.234-76.77c-7.052-22.824-13.58-45.525-19.38-68.133a2.743,2.743,0,0,0-2.393-2.078q-18.727-2.069-37.4-3.192a2.787,2.787,0,0,0-2.819,3.634c7.231,22.557,14.942,45.177,22.956,67.88a2.728,2.728,0,0,0,2.385,1.848q16.8,1.465,33.636,3.628a2.789,2.789,0,0,0,3.017-3.588ZM447.2,356.467a2.784,2.784,0,0,1-3,3.449q-18.792-2.015-37.545-3.069a2.742,2.742,0,0,1-2.5-1.94c-7.108-22.457-13.82-44.766-19.334-67.569a2.789,2.789,0,0,1,2.8-3.442q21.415.673,42.918,2.677a2.761,2.761,0,0,1,2.5,2.341c3.6,22.8,8.543,45.094,14.168,67.555Zm-6.574-33.978q-3.433-15.929-6-31.91a2.787,2.787,0,0,1,3.1-3.209l42.613,5.424a2.761,2.761,0,0,1,2.426,2.539,633.88,633.88,0,0,0,9.489,67.469,2.786,2.786,0,0,1-3.127,3.282l-37.7-5.312a2.739,2.739,0,0,1-2.312-2.08q-4.582-18.138-8.489-36.2Zm10.336,43.429c5.883,22.714,12.495,45.532,19.628,68.475a2.727,2.727,0,0,0,2.232,1.926l33.853,5.272a2.787,2.787,0,0,0,3.119-3.482c-6.194-22.878-11.652-45.59-16.146-68.164a2.747,2.747,0,0,0-2.343-2.214l-37.255-5.272a2.788,2.788,0,0,0-3.088,3.459Zm21.921,75.8a2.787,2.787,0,0,1,3.088-3.591l33.563,5.247a2.734,2.734,0,0,1,2.253,2.009c6.491,23.429,13.536,46.406,21.132,69.793a2.787,2.787,0,0,1-3.121,3.607l-31.576-5.424a2.724,2.724,0,0,1-2.164-1.836c-8.089-23.419-15.885-46.679-23.175-69.806ZM431.987,282.039a601.842,601.842,0,0,1-6.009-67.676,2.778,2.778,0,0,0-2.574-2.689q-24.688-1.884-49.331-2.157a2.786,2.786,0,0,0-2.771,3.273l11.973,67.515a2.758,2.758,0,0,0,2.575,2.295l43.21,2.622a2.788,2.788,0,0,0,2.927-3.184Zm-6.192-74.567a2.787,2.787,0,0,1-3,2.837q-24.914-1.881-49.781-2.118a2.776,2.776,0,0,1-2.746-2.468,663.8,663.8,0,0,1-4.35-68.848,2.791,2.791,0,0,1,2.754-2.819q28.422-.322,56.967,1.456a2.787,2.787,0,0,1,2.608,3.033,616.34,616.34,0,0,0-2.456,68.925Zm1.2-17.552q.21-25.59,2.577-51.436a2.789,2.789,0,0,1,2.967-2.527q28.294,1.947,56.443,5.635a2.785,2.785,0,0,1,2.38,3.286,581.321,581.321,0,0,0-9.038,69.115,2.791,2.791,0,0,1-3.1,2.577l-49.635-5.646a2.774,2.774,0,0,1-2.472-2.708q-.2-9.132-.125-18.3Zm.321,25.28a601.848,601.848,0,0,0,6.2,68.27,2.759,2.759,0,0,0,2.408,2.355l43.185,5.481a2.786,2.786,0,0,0,3.132-2.954,540.479,540.479,0,0,1-.353-67.507,2.784,2.784,0,0,0-2.468-2.927l-49.005-5.581a2.788,2.788,0,0,0-3.1,2.862Zm1.594-83.484a672.05,672.05,0,0,1,11.42-72.153,2.789,2.789,0,0,0-2.641-3.369q-32.8-.992-65.506.363a2.77,2.77,0,0,0-2.652,2.5,682.234,682.234,0,0,0-3.655,70.905,2.785,2.785,0,0,0,2.819,2.783q28.578-.322,57.271,1.473a2.789,2.789,0,0,0,2.944-2.5ZM441.323,55l.259-1.177,1.283.282-.209.941c22.943.812,45.851,2.437,68.7,4.748a2.763,2.763,0,0,0,2.927-1.892l.06-.19,1.248.415-.676,2.034c24.038,2.512,47.989,5.779,71.759,9.66l-.1.647.6.269c-38.835,86.934-59.731,175.379-52.742,267.843,6.787,89.784,36.64,182.719,67.724,269.866l-.618.219-.14.641c-44.845-9.76-90.216-18.631-135.17-26.872-18.391-3.369-36.83-7.077-55.523-11.418a2.671,2.671,0,0,0-1.634.117l-.392.15-.317-.814-37.343-9.6.238.593-1.22.49-.106-.265a2.7,2.7,0,0,0-1.823-1.64c-12.829-3.653-25.847-7.692-39.118-12.207l.211-.622-.611.248C298.92,474.366,257.557,401.5,212.958,333.8q-10-15.184-19.57-30.372l-.3.065-.075-.35a2.7,2.7,0,0,0-.363-.891Q173.79,272.23,156.8,242.135l-2.134.67-.4-1.252,1.874-.588c-11.072-19.711-21.719-39.888-31.533-59.973l-2.343.922-.484-1.22,2.249-.885q-14.58-29.933-26.876-60.063l.607-.246-.267-.6q28.253-12.756,58.239-23.15a2.783,2.783,0,0,0,1.78-3.359l-.38-1.4,1.271-.34.261.968a2.787,2.787,0,0,0,3.576,1.915c20.579-6.9,41.73-12.946,63.061-18.026l-.223-1.644,1.3-.171.207,1.51C297.443,58.46,367.981,52.5,441.323,55Zm.549,3.636A672.073,672.073,0,0,0,430.243,131.6a2.786,2.786,0,0,0,2.581,3.065q28.459,1.962,56.777,5.687a2.785,2.785,0,0,0,3.092-2.211,675.211,675.211,0,0,1,19.394-73.559,2.787,2.787,0,0,0-2.374-3.63q-32.431-3.239-65.012-4.513a2.768,2.768,0,0,0-2.829,2.2ZM273.254,425.246q14.959.573,30.153.993a2.787,2.787,0,0,0,2.566-4.047q-15.065-29.67-31.136-59.41a2.736,2.736,0,0,0-2.679-1.454q-16.768,1.361-33.245,3a2.787,2.787,0,0,0-2.095,4.25c35.373,56.731,67.809,116.679,92.392,176.938A2.7,2.7,0,0,0,330.9,547.1q16.417,5.548,32.373,10.183a2.786,2.786,0,0,0,3.359-3.73q-11.807-28.9-25.146-57.962a2.713,2.713,0,0,0-2.111-1.6q-16.715-2.572-33.652-5.714l.24-1.294q14.58,2.729,28.985,4.986a2.787,2.787,0,0,0,2.944-3.966L309.5,429.233a2.722,2.722,0,0,0-2.431-1.573c-11.256-.321-22.522-.67-33.867-1.1l.05-1.312Zm37.992,1.216,32.079.9a2.786,2.786,0,0,0,2.618-3.931q-14.274-31.642-28.887-63.28a2.738,2.738,0,0,0-2.712-1.615l-34.606,2.251a2.786,2.786,0,0,0-2.274,4.1q16.154,30.04,31.372,60.046a2.731,2.731,0,0,0,2.41,1.529Zm11.829,1.642-8.241-.229a2.788,2.788,0,0,0-2.587,4l28.87,59.831a2.715,2.715,0,0,0,2.095,1.546q15.46,2.331,30.788,4.294a2.786,2.786,0,0,0,2.919-3.862q-13.554-31.639-27.831-63.272a2.733,2.733,0,0,0-2.458-1.644q-11.8-.347-23.554-.661Zm27.9-.522q16.236.5,32.59,1.172a2.787,2.787,0,0,0,2.708-3.818q-13.2-33.031-26.033-65.992a2.745,2.745,0,0,0-2.627-1.782q-18.045.172-35.805.985a2.787,2.787,0,0,0-2.41,3.949q14.677,31.921,29.121,63.843a2.731,2.731,0,0,0,2.456,1.642Zm40.105,1.535a2.732,2.732,0,0,1-2.42-1.748c-8.854-22.157-17.646-44.272-26.208-66.353a2.788,2.788,0,0,1,2.656-3.8l36.656.747a2.747,2.747,0,0,1,2.6,1.938c7.162,22.451,14.8,44.952,22.749,67.528a2.787,2.787,0,0,1-2.8,3.707l-33.231-2.024Zm19.1,2.293q-8.011-.473-16-.857a2.784,2.784,0,0,0-2.723,3.816l26.761,67.023a2.729,2.729,0,0,0,2.266,1.736l31.048,3.63a2.788,2.788,0,0,0,2.938-3.732c-8.462-22.956-16.818-45.8-24.886-68.573a2.736,2.736,0,0,0-2.4-1.846q-8.515-.695-17-1.2ZM386.61,430.2a2.732,2.732,0,0,1,2.464,1.748l26.55,66.478a2.789,2.789,0,0,1-2.906,3.8q-15.372-1.771-30.784-3.678a2.722,2.722,0,0,1-2.216-1.673q-13.648-31.977-28.061-63.954A2.787,2.787,0,0,1,354.289,429q16.12.507,32.321,1.2Zm127.472,12.612a2.734,2.734,0,0,1-2.195-2.009c-6.3-23.025-11.854-45.878-16.446-68.583a2.788,2.788,0,0,1,3.207-3.3q18.376,3.176,36.673,7.058a2.744,2.744,0,0,1,2.182,2.328c10.772,74.79,35.346,151.5,61.335,224.746a2.786,2.786,0,0,1-3.213,3.657q-15.456-3.333-30.836-6.505a2.716,2.716,0,0,1-2.063-1.8c-8.644-24.466-17.047-48.674-24.965-72.656a2.788,2.788,0,0,1,3.167-3.613q15.6,2.96,31.217,6.257l.269-1.285q-17.487-3.686-34.973-6.964a2.728,2.728,0,0,1-2.138-1.874c-7.684-23.531-14.8-46.587-21.374-70.079a2.787,2.787,0,0,1,3.186-3.492q17.021,3.108,34,6.749l.276-1.287q-18.62-3.981-37.314-7.348ZM127.646,178.406q23.684-9.107,48.6-16.572a2.786,2.786,0,0,0,1.83-3.6q-10.465-29.492-18.741-59.2a2.788,2.788,0,0,0-3.6-1.886q-28.056,9.736-54.651,21.589a2.789,2.789,0,0,0-1.444,3.605q11.269,27.43,24.5,54.68a2.782,2.782,0,0,0,3.509,1.387ZM182.835,159.9c17.31-4.982,35.008-9.328,52.807-12.964a2.789,2.789,0,0,0,2.159-3.355q-7.276-31.72-11.886-63.737a2.786,2.786,0,0,0-3.415-2.312c-20.362,4.94-40.558,10.765-60.213,17.373a2.783,2.783,0,0,0-1.8,3.386q8.331,30.046,18.95,59.863a2.785,2.785,0,0,0,3.4,1.746Zm39.5-8.767q-19.662,4.428-38.705,9.9a2.792,2.792,0,0,0-1.851,3.632c7.365,20.256,15.505,40.477,24.22,60.351a2.762,2.762,0,0,0,3.092,1.617l46.02-9.071a2.787,2.787,0,0,0,2.113-3.591c-6.772-21.024-12.766-42.327-17.859-63.708a2.788,2.788,0,0,0-3.269-2.084q-6.916,1.408-13.761,2.95Zm-45.356,11.85q-24.738,7.382-48.3,16.432a2.787,2.787,0,0,0-1.5,3.833c9.126,18.533,18.95,37.141,29.142,55.35a2.765,2.765,0,0,0,3.253,1.3q20.942-6.444,42.788-11.748a2.786,2.786,0,0,0,1.9-3.824c-8.583-19.649-16.6-39.609-23.865-59.623a2.786,2.786,0,0,0-3.415-1.721Zm65.4-17.389q27.255-5.286,55.538-8.487a2.792,2.792,0,0,0,2.46-3.077q-3.73-33.492-4.314-67.365a2.785,2.785,0,0,0-3.186-2.712q-32.415,4.694-63.62,11.973a2.781,2.781,0,0,0-2.126,3.109q4.613,32.365,12,64.448a2.787,2.787,0,0,0,3.248,2.111Zm62.36-9.219c19.033-1.957,37.915-3.123,57.1-3.522a2.792,2.792,0,0,0,2.731-2.789,682.818,682.818,0,0,1,3.553-70.11,2.786,2.786,0,0,0-2.917-3.067q-32.91,1.7-65.433,6.1a2.774,2.774,0,0,0-2.412,2.8q.535,34.258,4.323,68.12a2.792,2.792,0,0,0,3.054,2.464Zm22.68-.647q-11.3.8-22.455,1.942a2.785,2.785,0,0,0-2.481,3.109c2.725,22.5,6.518,44.933,11.306,67.123a2.773,2.773,0,0,0,2.933,2.191c16.492-1.239,32.811-1.89,49.393-1.924a2.787,2.787,0,0,0,2.764-3.1,666,666,0,0,1-4.269-68.143,2.786,2.786,0,0,0-2.844-2.754q-17.218.357-34.349,1.558Zm-29.329,2.683q-28.087,3.155-55.2,8.422a2.787,2.787,0,0,0-2.182,3.384c5.149,21.579,11.212,43.057,18.07,64.269a2.771,2.771,0,0,0,3.077,1.9q23.606-3.643,47.968-5.739a2.785,2.785,0,0,0,2.489-3.361c-4.713-21.967-8.454-44.169-11.145-66.439a2.79,2.79,0,0,0-3.077-2.435Zm198.339,2.846q26.209,3.583,52.185,8.42l-.238,1.294q-26.128-4.832-52.531-8.466a2.786,2.786,0,0,0-3.115,2.237,580.433,580.433,0,0,0-9.121,69.777,2.782,2.782,0,0,0,2.37,2.948q24.41,3.64,48.64,8.477l-.255,1.289q-23.887-4.738-47.991-8.379a2.788,2.788,0,0,0-3.2,2.6,538.877,538.877,0,0,0,.484,68.279A2.762,2.762,0,0,0,486,292.29q21.293,3.408,42.467,7.782a2.784,2.784,0,0,0,3.349-2.7c.932-76.557,20.4-150.5,52.35-223.1a2.788,2.788,0,0,0-2.111-3.874q-32.471-5.192-65.314-8.729a2.765,2.765,0,0,0-2.946,1.909,676.255,676.255,0,0,0-19.72,74.36,2.79,2.79,0,0,0,2.353,3.317Zm-250.8,79.153q-17.691,3.154-34.9,7.116a2.79,2.79,0,0,0-1.921,3.853q13.469,30.2,29.006,60.236a2.741,2.741,0,0,0,2.858,1.481l39.963-5.547a2.784,2.784,0,0,0,2.193-3.82q-12.965-31.5-23.481-63.253a2.774,2.774,0,0,0-3.1-1.876q-5.333.867-10.624,1.809Zm-41.751,8.727q-21.668,5.2-42.479,11.577a2.787,2.787,0,0,0-1.609,4.039q15.751,27.8,33.183,55.542a2.747,2.747,0,0,0,2.948,1.243q18.539-3.99,37.687-7.3a2.788,2.788,0,0,0,2-4.02q-15.25-29.674-28.537-59.5a2.767,2.767,0,0,0-3.2-1.577Zm134.2-19.006q14.392-.645,28.854-.647a2.778,2.778,0,0,1,2.769,2.443,680.955,680.955,0,0,0,11.834,67.15,2.786,2.786,0,0,1-2.679,3.4l-42.792.582a2.753,2.753,0,0,1-2.693-1.938q-10.537-33.047-18.076-66.4a2.791,2.791,0,0,1,2.514-3.394q10.077-.742,20.271-1.2Zm-27.235,1.75q-24.191,2.028-47.662,5.629a2.789,2.789,0,0,0-2.224,3.634q10.64,32.043,23.813,63.831a2.755,2.755,0,0,0,2.871,1.707q20.445-2.184,41.4-3.338a2.783,2.783,0,0,0,2.506-3.624q-10.34-32.681-17.748-65.671a2.775,2.775,0,0,0-2.952-2.168ZM273,289.7q-15.037,1.881-29.761,4.262a2.787,2.787,0,0,0-2.007,4.079l32.647,60.2a2.742,2.742,0,0,0,2.633,1.452l35.111-2.3a2.787,2.787,0,0,0,2.349-3.947c-9.66-20.94-19.52-42-28.43-63.2a2.751,2.751,0,0,0-2.881-1.69q-4.844.548-9.66,1.15Zm-36.969,5.454q-18.946,3.211-37.324,7.133a2.787,2.787,0,0,0-1.765,4.235l37.172,57.718-.075-.751q17.347-1.727,35-3.221a2.787,2.787,0,0,0,2.22-4.106l-32.313-59.589a2.746,2.746,0,0,0-2.917-1.419Zm121.407-11.5q-9.72.16-19.351.568a2.789,2.789,0,0,0-2.531,3.655c7.34,22.3,15.733,44.234,24.216,66.2a2.739,2.739,0,0,0,2.545,1.782l37.134.732a2.788,2.788,0,0,0,2.714-3.626c-7.033-22.3-13.636-44.44-19.052-67.121a2.756,2.756,0,0,0-2.654-2.138q-11.532-.235-23.022-.054Zm-26.515.9q-20.786,1.073-41.092,3.211a2.786,2.786,0,0,0-2.278,3.858c9.04,21.376,19.015,42.6,28.743,63.718a2.737,2.737,0,0,0,2.662,1.617q17.885-.836,36.07-1.085a2.787,2.787,0,0,0,2.568-3.789c-8.4-21.781-16.653-43.468-23.88-65.61a2.755,2.755,0,0,0-2.794-1.919Zm52.742-2.091,48.83,2.963q-24.441-2.31-48.83-2.963Zm148.12,19-.123.6q-22.022-4.6-44.226-8.222a2.785,2.785,0,0,0-3.223,2.986,643.059,643.059,0,0,0,9.8,68.126,2.742,2.742,0,0,0,2.268,2.218q18.486,3.145,36.9,7.006a2.787,2.787,0,0,0,3.332-3.094,510.484,510.484,0,0,1-4.724-69.62Zm-160.024,258.2,30.75,7.943A2.787,2.787,0,0,0,405.8,563.9q-12.318-31.435-25.737-62.863a2.719,2.719,0,0,0-2.214-1.675q-15.125-1.928-30.362-4.15a2.789,2.789,0,0,0-2.944,3.912q13.422,29.53,25.328,58.894a2.706,2.706,0,0,0,1.886,1.654Zm39.012,10q15.344,3.571,30.485,6.611a2.786,2.786,0,0,0,3.161-3.714c-8.414-22.342-17.1-44.63-25.893-66.87a2.731,2.731,0,0,0-2.274-1.744q-15.234-1.743-30.506-3.607a2.785,2.785,0,0,0-2.906,3.851q13.5,31.886,25.966,63.768a2.711,2.711,0,0,0,1.967,1.7Zm38.469,8.187a2.716,2.716,0,0,1-2.095-1.759q-12.7-33.861-26.043-67.45a2.787,2.787,0,0,1,2.917-3.791l30.84,3.611a2.734,2.734,0,0,1,2.293,1.807l25.624,69.581a2.787,2.787,0,0,1-3.13,3.7Z" transform="translate(-97.159 -53.82)" fill="#28236e" stroke="rgba(0,0,0,0)" stroke-width="1" fill-rule="evenodd"/>
        <g id="Group_40773" data-name="Group 40773" transform="translate(54.375 120.798)">
          <g id="Group_40766" data-name="Group 40766">
            <path id="Path_78901" data-name="Path 78901" d="M316,539.6c26.548,52.517,208.391,83.569,206.315,50.449C425.883,495.983,418.888,293.569,425.552,216.4c35.476-9.666,69.2-32.24,59.837-74.742-11-49.923-211.337-25.96-309.308-9.6C44.305,154.066,184.7,497.326,316,539.6Z" transform="translate(-123.222 -111.72)" fill="#fff" fill-rule="evenodd"/>
            <path id="Path_78902" data-name="Path 78902" d="M234.847,378.9c12.7,25.13,60.96,45.336,107.61,55.957l91.708,3.893c4.7-2.211,7.252-5.316,7-9.4-42.988-41.935-68.193-105.4-82.347-169.7-20.677,21.931-66.268,55.552-120.341,3.757,0,0-15.326,9.489-38.507,17.008l-2.036,79.175C210.16,368.332,222.542,374.942,234.847,378.9Z" transform="translate(-42.065 48.98)" fill="#ebf0fd" fill-rule="evenodd"/>
            <path id="Path_78903" data-name="Path 78903" d="M268.83,208.322c83.333,11.516,72.714-81.157,42.853-88.547C290.664,114.571,260.8,141.963,268.83,208.322Z" transform="translate(33.499 -103.644)" fill="#1b222d" fill-rule="evenodd"/>
            <path id="Path_78904" data-name="Path 78904" d="M310.663,119.452s21.775,9.881,19.488,37.572-38.144,48.24-43.264,31.528,16.317-26.749,19.937-17.1c0,0-2.727-16.463-14.037-13.995v0c-39.642,8.7-25.315,56.664,3.363,50.309,15.745-3.49,32.653-13.482,39.713-33.853C344.67,148.506,330.88,119.921,310.663,119.452Z" transform="translate(34.519 -103.321)" fill="#fff" fill-rule="evenodd"/>
          </g>
          <g id="Group_40769" data-name="Group 40769" transform="translate(20.705 121.51)">
            <g id="Group_40767" data-name="Group 40767">
              <path id="Path_78905" data-name="Path 78905" d="M133.146,176.786s254.935-10.331,256.209-5.57,3.455,149.273,35,226.192c0,0,10.722,11.932-10.838,10.667s-185.561-.557-185.561-.557S137.607,280.829,133.146,176.786Z" transform="translate(-133.146 -169.962)" fill="#839ad5" fill-rule="evenodd"/>
              <path id="Path_78906" data-name="Path 78906" d="M372.8,270.637a262.689,262.689,0,0,0,9.33,27.383s10.722,11.932-10.838,10.667-185.561-.557-185.561-.557-5.443-7.634-13.709-20.669c51.2.859,94.606-26.008,94.606-26.008C310.546,303.528,348.874,289.238,372.8,270.637Z" transform="translate(-90.92 -70.574)" fill="#6862c7" fill-rule="evenodd"/>
            </g>
            <path id="Path_78907" data-name="Path 78907" d="M247.693,174.2l10.148-.4a1.1,1.1,0,0,1,1.131.866l2.068,8.988a1.119,1.119,0,0,1-.839,1.337l-1.029.236a1.116,1.116,0,0,1-1.335-.837l-.741-3.223a1.114,1.114,0,0,0-1.934-.476l-5.408,6.332a1.117,1.117,0,0,1-1.573.123l-.8-.686a1.118,1.118,0,0,1-.125-1.571l4.869-5.7a1.115,1.115,0,0,0-.893-1.838l-3.4.134a1.115,1.115,0,0,1-1.158-1.066l-.044-1.058a1.068,1.068,0,0,1,.294-.8A1.08,1.08,0,0,1,247.693,174.2Z" transform="translate(-9.874 -165.795)" fill="#fff" fill-rule="evenodd"/>
            <g id="Group_40768" data-name="Group 40768" transform="translate(28.125 23.127)">
              <path id="Path_78908" data-name="Path 78908" d="M256.738,183.628q.059,1.937.119,3.872l.006.229a1.673,1.673,0,0,1-1.613,1.721l-.227.008q-19.127.663-38.248,1.392l-.234.008a1.671,1.671,0,0,1-1.732-1.636l-.006-.234c-.04-1.809-.248-4.669.839-6.2.676-.953,2.086-.987,3.138-1.079,1.45-.127,2.913-.2,4.365-.267,4.281-.2,8.579-.3,12.864-.353,4.175-.052,8.372-.069,12.547.056,1.588.048,6.232.054,7.479,1.064l.083.067a1.622,1.622,0,0,1,.618,1.25Z" transform="translate(-72.612 -181.047)" fill="#a8c3df" fill-rule="evenodd"/>
              <path id="Path_78909" data-name="Path 78909" d="M236,183.97c.027,1.531,0,3.067.025,4.6l.006.227a1.676,1.676,0,0,1-1.617,1.7l-.225.008c-14.583.492-29.171.91-43.76,1.166l-.232,0a1.671,1.671,0,0,1-1.7-1.646l0-.229c-.033-2.191-.4-5.658,1.7-7.035,1-.653,6.6-.62,7.859-.655q7.292-.213,14.59-.3c4.828-.063,9.664-.108,14.492-.063,1.485.015,7-.161,8.16.77l.083.069a1.615,1.615,0,0,1,.624,1.273Z" transform="translate(-101.199 -180.304)" fill="#a8c3df" fill-rule="evenodd"/>
              <path id="Path_78910" data-name="Path 78910" d="M264.743,192.193q.094,1.937.184,3.872l.01.232a1.668,1.668,0,0,1-1.6,1.748l-.232.01q-16.865.663-33.727,1.488l-.23.013a1.672,1.672,0,0,1-1.75-1.594l-.01-.232q-.11-2.422-.217-4.844l-.008-.229a1.672,1.672,0,0,1,1.59-1.742l.229-.01c5.633-.269,11.264-.522,16.9-.686,3.4-.1,6.808-.175,10.21-.163a46.951,46.951,0,0,1,7.068.353l.184.031a1.656,1.656,0,0,1,1.392,1.569Z" transform="translate(-59.147 -171.264)" fill="#a8c3df" fill-rule="evenodd"/>
              <path id="Path_78911" data-name="Path 78911" d="M282.7,193.02q.084,1.934.171,3.868l.01.229a1.676,1.676,0,0,1-1.588,1.746l-.23.01c-35.357,1.732-70.715,3.257-106.116,3.716l-.219,0a1.673,1.673,0,0,1-1.69-1.569l-.013-.219c-.136-2.159-.684-5.616,1.389-7.029.83-.563,4.617-.5,5.614-.532q5.974-.213,11.95-.386,18.054-.545,36.108-.989c11.952-.3,23.909-.58,35.864-.755,4-.058,8.009-.115,12.011-.1,1.214,0,4.978-.175,5.971.563l.088.065a1.625,1.625,0,0,1,.674,1.268Z" transform="translate(-118.133 -170.24)" fill="#a8c3df" fill-rule="evenodd"/>
              <path id="Path_78912" data-name="Path 78912" d="M196.3,201.648c-15.868.173-31.737.357-47.6.726l-.225.006a1.673,1.673,0,0,1-1.707-1.594l-.01-.225c-.115-2.462-.7-6.315,2.189-7.417,1.412-.538,6.854-.6,8.479-.661,5.157-.186,10.321-.292,15.48-.373,5.312-.083,10.628-.142,15.941-.131,1.329,0,6.57-.24,8.32.44a1.639,1.639,0,0,1,1.066,1.488l0,.1c.081,1.871-.138,3.791-.054,5.654l.01.238a1.675,1.675,0,0,1-1.652,1.746Z" transform="translate(-146.627 -169.217)" fill="#a8c3df" fill-rule="evenodd"/>
              <path id="Path_78913" data-name="Path 78913" d="M254.015,204.708q.1,1.922.209,3.847l.013.229a1.676,1.676,0,0,1-1.588,1.761l-.232.013c-14.951.736-29.9,1.488-44.849,2.174l-.227.01a1.673,1.673,0,0,1-1.744-1.567l-.015-.225q-.15-2.4-.3-4.8l-.015-.234a1.677,1.677,0,0,1,1.592-1.771l.234-.01c7.344-.34,14.715-.947,22.067-1.333,3.6-.188,21.529-1.435,24.093.48l.086.065a1.623,1.623,0,0,1,.67,1.252Z" transform="translate(-82.925 -158.035)" fill="#a8c3df" fill-rule="evenodd"/>
              <path id="Path_78914" data-name="Path 78914" d="M240.829,205.834q.122,1.915.246,3.826l.015.238a1.67,1.67,0,0,1-1.6,1.778l-.238.01c-24.066.933-48.144,1.354-72.224,1.694l-.221,0a1.671,1.671,0,0,1-1.692-1.579l-.013-.219c-.15-2.641-.755-6.728,2.654-7.552a24.855,24.855,0,0,1,4.093-.242c2.706-.06,5.42-.081,8.128-.1,7.853-.046,15.708-.025,23.559.008q12.145.053,24.287.171c2.681.027,5.362.054,8.041.1.941.015,3.4-.129,4.189.442l.088.063a1.62,1.62,0,0,1,.684,1.248Z" transform="translate(-126.709 -156.473)" fill="#6862c7" fill-rule="evenodd"/>
              <path id="Path_78915" data-name="Path 78915" d="M151.777,204.779c4.6-.106,21.445-1.815,24.458,1.041l.065.063a1.61,1.61,0,0,1,.52,1.125l.006.09c.117,2.2.355,5.207-2.095,6.257-.816.35-10.3.257-11.621.267q-3.74.025-7.479.042c-1.022,0-3.215.255-4.417-.369a1.612,1.612,0,0,1-.764-.822c-.605-1.4-.459-4.317-.528-5.7l-.013-.236a1.672,1.672,0,0,1,1.632-1.757Z" transform="translate(-143.062 -155.923)" fill="#6862c7" fill-rule="evenodd"/>
              <path id="Path_78916" data-name="Path 78916" d="M234.973,221.9q-.15-2.4-.3-4.809l-.015-.234a1.67,1.67,0,0,1,1.584-1.771l.234-.013q13.338-.66,26.682-1.208l.227-.01a1.674,1.674,0,0,1,1.738,1.577l.29,5.3a1.669,1.669,0,0,1-1.6,1.761l-.234.01q-13.313.545-26.619,1.185l-.227.01a1.675,1.675,0,0,1-1.75-1.567Z" transform="translate(-50.997 -145.414)" fill="#a8c3df" fill-rule="evenodd"/>
              <path id="Path_78917" data-name="Path 78917" d="M193.644,225.248q-.2-2.375-.4-4.746l-.019-.238a1.672,1.672,0,0,1,1.6-1.813l.24-.008c4.949-.207,9.929-.563,14.873-.864q12.4-.751,24.8-1.446c9.065-.492,18.157-.966,27.233-1.208,2.372-.063,12.9-.567,14.748.759l.088.065a1.616,1.616,0,0,1,.693,1.254l.008.106.244,3.843.015.232a1.67,1.67,0,0,1-1.581,1.775l-.234.013c-26.772,1.383-53.537,2.9-80.323,4.016L195.4,227a1.671,1.671,0,0,1-1.736-1.529Z" transform="translate(-96.016 -144.404)" fill="#a8c3df" fill-rule="evenodd"/>
              <path id="Path_78918" data-name="Path 78918" d="M228.139,219.07l.319,3.795.021.242a1.671,1.671,0,0,1-1.606,1.811l-.242.008c-23,.805-46,1.323-69,2.074l-.223.006a1.669,1.669,0,0,1-1.721-1.563l-.015-.223c-.129-2-.62-5.224.976-6.743.845-.805,3.215-.693,4.31-.734,2.593-.1,5.191-.161,7.786-.219q11.667-.26,23.337-.367c7.738-.083,15.485-.148,23.223-.125,2.6.008,5.212.021,7.813.086,1.049.025,3.426-.054,4.283.6l.081.06a1.623,1.623,0,0,1,.651,1.191Z" transform="translate(-136.992 -141.962)" fill="#6862c7" fill-rule="evenodd"/>
              <path id="Path_78919" data-name="Path 78919" d="M211.9,235.009q-.188-2.382-.382-4.761l-.019-.236a1.671,1.671,0,0,1,1.583-1.8l.238-.013q41.037-2.053,82.086-3.845l.227-.008a1.676,1.676,0,0,1,1.74,1.579l.288,5.293a1.672,1.672,0,0,1-1.6,1.761l-.232.01q-40.977,1.721-81.94,3.77l-.223.01a1.671,1.671,0,0,1-1.748-1.536Z" transform="translate(-76.159 -134.015)" fill="#6862c7" fill-rule="evenodd"/>
              <path id="Path_78920" data-name="Path 78920" d="M260.2,228.638l.313,3.8.021.238a1.671,1.671,0,0,1-1.588,1.807l-.24.013c-31.4,1.471-62.819,2.47-94.232,3.6l-.223.006a1.671,1.671,0,0,1-1.727-1.556l-.015-.223q-.163-2.4-.325-4.8l-.015-.238a1.667,1.667,0,0,1,1.609-1.784l.238-.008c15.633-.54,31.261-1.108,46.894-1.6,10.033-.319,20.068-.624,30.105-.853,3.684-.083,7.371-.161,11.055-.194,2.08-.019,4.279-.071,6.351.058l.2.013a1.663,1.663,0,0,1,1.563,1.531Z" transform="translate(-129.746 -131.333)" fill="#a8c3df" fill-rule="evenodd"/>
              <path id="Path_78921" data-name="Path 78921" d="M233.571,240.564q.122,1.912.246,3.826l.015.24a1.67,1.67,0,0,1-1.625,1.778l-.24.006c-21.111.536-42.227.424-63.34.974l-.227.006a1.678,1.678,0,0,1-1.717-1.623l-.006-.229c-.065-2.218-.551-5.908,1.6-7.3.751-.486,2.883-.336,3.76-.338q3.543-.009,7.085.006,10.7.028,21.393.127c7.066.063,14.135.138,21.2.288,1.617.035,9.945-.077,11.143.872l.081.065a1.617,1.617,0,0,1,.626,1.2Z" transform="translate(-124.947 -119.306)" fill="#a8c3df" fill-rule="evenodd"/>
              <path id="Path_78922" data-name="Path 78922" d="M217.012,183.856c.038,2.522-.129,5.913-3.088,6.768-2.36.684-7.83.674-10.348.747-5.956.173-11.921.236-17.876.29-5.418.048-10.84.075-16.261.115-3.455.025-6.956.013-10.411.144l-.225.008a1.605,1.605,0,0,1-1.669-1.575l-.006-.225c-.061-2.118-.538-5.573,1.437-7.023,1.154-.849,8.493-.793,9.983-.837,6.294-.184,12.589-.3,18.881-.388s12.57-.154,18.848-.136c2.12.008,4.248.019,6.363.083,1.022.031,2.935-.038,3.734.647l.075.067a1.572,1.572,0,0,1,.561,1.212Z" transform="translate(-135.32 -180.293)" fill="#a8c3df" fill-rule="evenodd"/>
            </g>
          </g>
          <g id="Group_40772" data-name="Group 40772" transform="translate(9.865 20.579)">
            <g id="Group_40770" data-name="Group 40770" transform="translate(0 47.137)">
              <path id="Path_78923" data-name="Path 78923" d="M131.457,154.141c.634-.042,220.262-14.016,260.826-8.8.5.013,7.878.336,8.4,10.215A53.966,53.966,0,0,1,399.32,172c-1.11,3.97-2.946,7.083-5.767,8.258-3.273,1.367-78.026,5.5-146.342,8.506-57.495,2.531-110.516,4.246-112.755,2.821-2.706-1.723-5.426-12.553-6.249-22.031a55.145,55.145,0,0,1-.173-8.23,13.508,13.508,0,0,1,1.339-5.725,2.68,2.68,0,0,1,2.068-1.456l.015,0Zm260.724-7.486c-40.324-5.222-260,8.756-260.637,8.8a1.509,1.509,0,0,0-1.081.843,12.373,12.373,0,0,0-1.147,5.124,53.749,53.749,0,0,0,.169,8.024c.793,9.155,3.259,19.515,5.641,21.032,1.995,1.271,54.73-.5,112.016-3.021,68.216-3,142.773-7.093,145.921-8.408,2.408-1,4.014-3.808,5.026-7.413a52.676,52.676,0,0,0,1.316-16.006c-.478-8.965-7.131-8.965-7.148-8.965Z" transform="translate(-127.95 -144.177)" fill="#a8c3df" fill-rule="evenodd"/>
              <path id="Path_78924" data-name="Path 78924" d="M132.6,153.888c-.127,7.045-.06,13.982.424,20.982a1.393,1.393,0,0,0,.618,1,1.939,1.939,0,0,0,1.139.321c12.353.693,15.856-7.58,4.152-12.758,10.461,2.522,13.413-13.292-5.212-10.571A1.155,1.155,0,0,0,132.6,153.888Z" transform="translate(-122.96 -135.091)" fill="#a8c3df" fill-rule="evenodd"/>
              <path id="Path_78925" data-name="Path 78925" d="M151.62,158.365l-2.867,12.213a1.072,1.072,0,0,1-1.054.828l-3.228.173a1.072,1.072,0,0,0-1.074.933l-.042.3a1.428,1.428,0,0,0,.467,1.216,1.665,1.665,0,0,0,1.277.5l12.09-.776a1.07,1.07,0,0,0,1.064-.97l.021-.211a1.444,1.444,0,0,0-.474-1.185,1.661,1.661,0,0,0-1.25-.5l-1.112.052a1.671,1.671,0,0,1-1.31-.559,1.386,1.386,0,0,1-.39-1.273l2.812-11.575a1.057,1.057,0,0,1,.962-.814l4.646-.559a1.058,1.058,0,0,0,.985-.935l.207-1.619a1.433,1.433,0,0,0-.486-1.223,1.65,1.65,0,0,0-1.3-.482l-13.884,1.258a1.062,1.062,0,0,0-1.029.991l-.069.847a1.456,1.456,0,0,0,.5,1.185,1.661,1.661,0,0,0,1.262.469l1.529-.117a1.675,1.675,0,0,1,1.329.538A1.388,1.388,0,0,1,151.62,158.365Z" transform="translate(-111.227 -135.784)" fill="#a8c3df" fill-rule="evenodd"/>
              <path id="Path_78926" data-name="Path 78926" d="M158.651,169.322l19.232-1.07a1.361,1.361,0,0,1,1.433,1.277l.073,1.285a1.359,1.359,0,0,1-1.281,1.433l-19.232,1.072a1.362,1.362,0,0,1-1.433-1.279l-.073-1.285a1.363,1.363,0,0,1,1.281-1.433Zm1.423-8.623,26.231-1.46a1.362,1.362,0,0,1,1.431,1.279l.073,1.285a1.356,1.356,0,0,1-1.281,1.433L160.3,164.7a1.359,1.359,0,0,1-1.431-1.279l-.075-1.283a1.363,1.363,0,0,1,1.281-1.435Zm1.325-7.39,14.379-.8a1.36,1.36,0,0,1,1.431,1.279l.075,1.285A1.359,1.359,0,0,1,176,156.505l-14.379.8a1.36,1.36,0,0,1-1.431-1.279l-.073-1.283a1.359,1.359,0,0,1,1.279-1.435Z" transform="translate(-95.993 -135.13)" fill="#a8c3df" fill-rule="evenodd"/>
              <path id="Path_78927" data-name="Path 78927" d="M182.947,152.388l12.121-.676a1.363,1.363,0,0,1,1.431,1.279l.073,1.285a1.356,1.356,0,0,1-1.279,1.433l-12.121.676a1.36,1.36,0,0,1-1.431-1.279l-.075-1.285a1.359,1.359,0,0,1,1.281-1.433Zm-.985,15.17,15.848-.885a1.363,1.363,0,0,1,1.431,1.279l.073,1.285a1.311,1.311,0,0,1-.342.983,1.326,1.326,0,0,1-.939.453l-15.848.883a1.362,1.362,0,0,1-1.431-1.279l-.073-1.285a1.3,1.3,0,0,1,.342-.983,1.32,1.32,0,0,1,.939-.451Zm-4.895-7.688,26.231-1.46a1.361,1.361,0,0,1,1.431,1.277l.073,1.285a1.363,1.363,0,0,1-1.281,1.435l-26.229,1.46a1.36,1.36,0,0,1-1.431-1.279l-.073-1.283a1.359,1.359,0,0,1,1.279-1.435Z" transform="translate(-75.986 -135.995)" fill="#a8c3df" fill-rule="evenodd"/>
              <path id="Path_78928" data-name="Path 78928" d="M223.427,165.536l-18.883,1.158a1.612,1.612,0,0,0-1.433,1.471l-.1,1.321a1.213,1.213,0,0,0,.319.962,1.1,1.1,0,0,0,.912.348l18.883-1.158a1.608,1.608,0,0,0,1.433-1.471l.1-1.319a1.212,1.212,0,0,0-.317-.962,1.111,1.111,0,0,0-.914-.35Zm-1.227-8.625-25.756,1.579a1.612,1.612,0,0,0-1.433,1.473l-.1,1.319a1.206,1.206,0,0,0,.319.96,1.092,1.092,0,0,0,.912.35l25.755-1.579a1.6,1.6,0,0,0,1.431-1.471l.1-1.319a1.212,1.212,0,0,0-.317-.962,1.094,1.094,0,0,0-.912-.35Zm-1.156-7.379-14.118.866a1.608,1.608,0,0,0-1.433,1.471l-.1,1.319a1.209,1.209,0,0,0,.317.962,1.1,1.1,0,0,0,.914.35l14.118-.866a1.608,1.608,0,0,0,1.431-1.471l.1-1.319a1.212,1.212,0,0,0-.317-.962A1.1,1.1,0,0,0,221.044,149.531Z" transform="translate(-55.212 -138.364)" fill="#a8c3df" fill-rule="evenodd"/>
              <path id="Path_78929" data-name="Path 78929" d="M247.986,157.98c4.525-1.7,8.22,7.761.784,8.293-10.012.716-10.9-12.635-1.974-16.217a1.226,1.226,0,0,1,1.448,1.859,8.654,8.654,0,0,0-1.915,4.934,1.224,1.224,0,0,0,1.656,1.131Zm15.1.232a1.224,1.224,0,0,1-1.657-1.129,8.655,8.655,0,0,1,1.915-4.936,1.226,1.226,0,0,0-1.448-1.859c-8.927,3.582-8.039,16.932,1.976,16.217C271.3,165.972,267.609,156.513,263.082,158.211Z" transform="translate(-5.534 -137.891)" fill="#a8c3df" fill-rule="evenodd"/>
              <path id="Path_78930" data-name="Path 78930" d="M216.357,155.816s3.211-2.414,5.5-2.332,5.258,1.4,5.744,6.029,1.817,3.263,1.817,3.263l.123,3.382s-4.047,1.959-4.509-1.448a6.068,6.068,0,0,1-6,3.278c-4.388-.325-3.987-5.418-2.558-6.847s6.292-3.495,7.659-1.871c0,0-2.491-3.655-5.781-.62l-1.995-2.833Zm40.973-2.668s-4.988-4.8-9.157-.774-2.5,11.362,1.346,12.142,7.584-2.556,7.584-2.556l-1.83-2.62s-5.3,4.26-5.975-.607,3.641-5.716,4.655-3.33l3.378-2.255ZM231.967,149.2a23.919,23.919,0,0,1,4.655-1.02l-.885,7.978c8.477-6.209,10.6,3.57,7.807,7.749s-7.4.576-7.4.576l.077,2.034-4.615.328.359-17.644Zm4.237,10.021s-.04,1.967,1.2,2.616,4.452-.513,3.636-3.159-4.84.542-4.84.542Zm-12.827,2.754s-5.739-.28-4.984,1.8,5.137.2,5.274-.647A1.156,1.156,0,0,0,223.377,161.977Z" transform="translate(-32.851 -139.827)" fill="#a8c3df" fill-rule="evenodd"/>
            </g>
            <g id="Group_40771" data-name="Group 40771" transform="translate(222.989)">
              <path id="Path_78931" data-name="Path 78931" d="M239.668,125.469c1.838-4.114,43.093-6.7,40.337,1.446a222.23,222.23,0,0,0-7.306,27.251c-1.281,7.246-36.769,4.913-37.627.371S235.646,136.026,239.668,125.469Z" transform="translate(-234.832 -121.584)" fill="#e07077" fill-rule="evenodd"/>
              <path id="Path_78932" data-name="Path 78932" d="M239.507,132.094l20.938-6.595a1.483,1.483,0,0,1,1.863,1.853l-5.6,18.086a1.481,1.481,0,0,1-2.305.747l-6.724-5.041a1.483,1.483,0,0,1-.152-2.243l6.178-6.071-9.827,4.5a1.447,1.447,0,0,1-1.506-.161l-3.3-2.474a1.484,1.484,0,0,1,.444-2.6Z" transform="translate(-230.883 -117.41)" fill="#fff" fill-rule="evenodd"/>
            </g>
            <path id="Path_78933" data-name="Path 78933" d="M145.936,137.317s121.482-9.71,126.1-9.211,1.65,26.822-2.5,27.322-130.39,11.483-133.783,6.626S136.028,139.562,145.936,137.317Z" transform="translate(-120.813 -114.52)" fill="#839ad5" fill-rule="evenodd"/>
          </g>
        </g>
        <g id="Group_40774" data-name="Group 40774" transform="translate(246.458 451.567)">
          <path id="Path_78934" data-name="Path 78934" d="M215.29,270.263l160.9,17.481c4.321.357,17.492,3.833,12.213,21.028a82.768,82.768,0,0,0-18.86-3.557c-11.815,42.676-.021,100.481,32.534,121.448l-154.965-6.576Z" transform="translate(-215.29 -270.263)" fill="#e07077" fill-rule="evenodd"/>
          <path id="Path_78935" data-name="Path 78935" d="M215.29,270.263l115.548,12.553c-20.753,42.29-43.4,117.094,38.613,142.462l-122.339-5.191Z" transform="translate(-215.29 -270.263)" fill="#a45066" fill-rule="evenodd"/>
          <path id="Path_78936" data-name="Path 78936" d="M308.086,297.153a82.768,82.768,0,0,0-18.86-3.557C298,269.395,310.12,285.305,308.086,297.153Z" transform="translate(-134.973 -258.644)" fill="#1b222d" fill-rule="evenodd"/>
        </g>
        <g id="Group_40775" data-name="Group 40775" transform="translate(36.788 400.469)">
          <path id="Path_78937" data-name="Path 78937" d="M177.976,250.717l68.172,5.1a2.615,2.615,0,0,1,1.959,1.133,2.7,2.7,0,0,1,.471,2.216c-1.258,5.961.131,17.556,1.356,20.3l-72.593-4.068Z" transform="translate(-46.843 -240.398)" fill="#6862c7" fill-rule="evenodd"/>
          <path id="Path_78938" data-name="Path 78938" d="M253.006,273.913c38.017,2.766,76.515,3.344,151.418,11.091-2.566,164.522,72.741,166.817,116.147,168.659L315.919,444.98C246.532,419.406,139.64,344.572,114.792,245.771l134.5,7.534a2.528,2.528,0,0,1,1.882,1.077,2.69,2.69,0,0,1,.542,2.1A38.264,38.264,0,0,0,253.006,273.913Z" transform="translate(-114.792 -245.771)" fill="#1b222d" fill-rule="evenodd"/>
          <path id="Path_78939" data-name="Path 78939" d="M144.322,277.017c-8.644-.657-9.136-9.146-3.061-8.687l38.837,2.963c5.168.392,6.637,8.959,3.061,8.687Z" transform="translate(-90.46 -221.285)" fill="#fff" fill-rule="evenodd"/>
          <path id="Path_78940" data-name="Path 78940" d="M161.348,288.9a4.737,4.737,0,0,1-4.442-4.548,3.982,3.982,0,0,1,4.331-4.031l53.113,3.132a4.192,4.192,0,0,1,2.881,1.36,3.98,3.98,0,0,1,1.143,2.91l-.021.805a3.609,3.609,0,0,1-3.922,3.5L161.348,288.9Zm75.587-4.116,45.5,2.681a4.3,4.3,0,0,1,4.02,3.968l.044.809a3.463,3.463,0,0,1-1.07,2.781,3.618,3.618,0,0,1-2.848,1.022l-45.615-2.689A4.2,4.2,0,0,1,234,291.9a3.94,3.94,0,0,1-1.043-3.059l.073-.8a3.6,3.6,0,0,1,3.91-3.257Zm63.6,3.749,28.785,1.7a4.739,4.739,0,0,1,4.442,4.55,3.983,3.983,0,0,1-4.333,4.029l-28.8-1.7a4.19,4.19,0,0,1-2.85-1.333,3.981,3.981,0,0,1-1.175-2.86l.006-.805A3.611,3.611,0,0,1,300.536,288.528Z" transform="translate(-69.043 -208.253)" fill="#92d99c" fill-rule="evenodd"/>
          <path id="Path_78941" data-name="Path 78941" d="M168.362,299.547a4.776,4.776,0,0,1-4.49-4.534,3.952,3.952,0,0,1,4.246-4.1l24.8,1.283a4.175,4.175,0,0,1,2.885,1.35,4.04,4.04,0,0,1,1.173,2.925l-.013.814a3.577,3.577,0,0,1-3.853,3.538l-24.748-1.281Zm50.017-6.027,47.222,2.445a4.78,4.78,0,0,1,4.492,4.531,3.954,3.954,0,0,1-4.246,4.1l-47.211-2.445a4.327,4.327,0,0,1-4.052-3.972l-.05-.818a3.478,3.478,0,0,1,1.031-2.794A3.562,3.562,0,0,1,218.379,293.52Z" transform="translate(-61.478 -196.734)" fill="#92d99c" fill-rule="evenodd"/>
          <path id="Path_78942" data-name="Path 78942" d="M179.706,309.674a5.884,5.884,0,0,1-5.28-4.479c-.43-2.333,1.237-4.112,3.724-3.972l38.883,2.191a5.882,5.882,0,0,1,5.28,4.479c.43,2.332-1.237,4.112-3.724,3.972Z" transform="translate(-50.085 -185.542)" fill="#6862c7" fill-rule="evenodd"/>
          <path id="Path_78943" data-name="Path 78943" d="M177.138,318.068c-9.015-.7-8.75-9.286-3.54-8.879l31.4,2.522c4.561.355,7.68,9.2,3.543,8.879Z" transform="translate(-54.86 -176.895)" fill="#fff" fill-rule="evenodd"/>
          <path id="Path_78944" data-name="Path 78944" d="M204.169,325.347a4.943,4.943,0,0,1-4.678-4.469,3.835,3.835,0,0,1,4.1-4.139l11.821.476a4.482,4.482,0,0,1,4.2,3.787l.111.818a3.407,3.407,0,0,1-.87,2.883,3.487,3.487,0,0,1-2.823,1.12l-11.854-.476Zm27.258-7.49,58.34,2.341a4.943,4.943,0,0,1,4.678,4.469,3.835,3.835,0,0,1-4.1,4.139l-58.323-2.341a4.482,4.482,0,0,1-4.208-3.874l-.092-.818a3.393,3.393,0,0,1,.908-2.827A3.494,3.494,0,0,1,231.426,317.857Z" transform="translate(-22.793 -168.681)" fill="#6862c7" fill-rule="evenodd"/>
          <path id="Path_78945" data-name="Path 78945" d="M206.7,334a5.217,5.217,0,0,1-4.813-4.525,3.647,3.647,0,0,1,3.9-4.148l30.615,1.408a5.213,5.213,0,0,1,4.813,4.523,3.646,3.646,0,0,1-3.9,4.148Z" transform="translate(-20.205 -159.352)" fill="#92d99c" fill-rule="evenodd"/>
          <path id="Path_78946" data-name="Path 78946" d="M175.213,252.111a7.091,7.091,0,0,1,7.548,5.287,5.372,5.372,0,0,1-4.669,6.758,7.088,7.088,0,0,1-7.546-5.287A5.371,5.371,0,0,1,175.213,252.111Z" transform="translate(-54.409 -238.934)" fill="#e07077" fill-rule="evenodd"/>
          <path id="Path_78947" data-name="Path 78947" d="M246.832,303.665,242,310.414a2.455,2.455,0,0,0,1.938,3.883l10.922.261a2.455,2.455,0,0,0,1.911-4.064l-6.092-7.01a2.457,2.457,0,0,0-3.849.182Z" transform="translate(22.891 -183.994)" fill="#e07077" fill-rule="evenodd"/>
        </g>
        <g id="Group_40784" data-name="Group 40784" transform="translate(422 184.1)">
          <g id="Group_40776" data-name="Group 40776">
            <path id="Path_78948" data-name="Path 78948" d="M307.373,552.037s95.34-169.922,105.753-409.975c0,0,447.56,90.314,532.708,127.839-72.422,133.359-408.852,141.162-413,291.307a13.935,13.935,0,0,1-14.521,13.534l-218.887-9.29Z" transform="translate(-299.43 -142.062)" fill="#92d99c" fill-rule="evenodd"/>
            <path id="Path_78949" data-name="Path 78949" d="M307.373,388.157s19.542-34.833,41.9-95.236c31.334,38.19,94.566,74.054,218.622,31.681-21.139,20.254-34.259,43.85-35.056,72.727a13.935,13.935,0,0,1-14.519,13.534l-218.89-9.29Z" transform="translate(-299.43 21.818)" fill="#63a98d" fill-rule="evenodd"/>
          </g>
          <g id="Group_40777" data-name="Group 40777" transform="translate(109.118)">
            <path id="Path_78950" data-name="Path 78950" d="M351.732,203.512c2.091-19.9,3.666-40.4,4.577-61.45,0,0,447.56,90.314,532.708,127.839a168.048,168.048,0,0,1-31.507,40.794C773.511,279.137,420.526,215.713,351.732,203.512Z" transform="translate(-351.732 -142.062)" fill="#fff" fill-rule="evenodd"/>
            <path id="Path_78951" data-name="Path 78951" d="M370.75,154.969a12.63,12.63,0,1,1-9.1,15.37A12.629,12.629,0,0,1,370.75,154.969Z" transform="translate(-341.389 -128.474)" fill="#e07077" fill-rule="evenodd"/>
            <path id="Path_78952" data-name="Path 78952" d="M404.025,163.087a12.629,12.629,0,1,1-9.1,15.37A12.63,12.63,0,0,1,404.025,163.087Z" transform="translate(-305.242 -119.655)" fill="#92d99c" fill-rule="evenodd"/>
            <path id="Path_78953" data-name="Path 78953" d="M386.847,158.707a12.631,12.631,0,1,1-9.1,15.37A12.63,12.63,0,0,1,386.847,158.707Z" transform="translate(-323.903 -124.413)" fill="#f6e264" fill-rule="evenodd"/>
          </g>
          <g id="Group_40781" data-name="Group 40781" transform="translate(38.681 91.642)">
            <g id="Group_40778" data-name="Group 40778">
              <path id="Path_78954" data-name="Path 78954" d="M318.746,481.382c36.694-69.088,102.342-301.7,91.881-294.936,15.236,3.595,174.76,39.567,196.282,46.445,3.19,1.018-149.728,189.852-168.582,252.581a5.5,5.5,0,0,1-5.184,3.964c-49.452,1.333-65.6-.217-109.206-.568a5.429,5.429,0,0,1-4.538-2.4A4.886,4.886,0,0,1,318.746,481.382Z" transform="translate(-317.628 -185.645)" fill="#63a98d" fill-rule="evenodd"/>
              <path id="Path_78955" data-name="Path 78955" d="M318.746,357.678c7.3-13.747,15.75-33.98,24.516-57.5,22.6,20.21,56.37,36.5,106.335,35.649-5.21,9.975-9.121,18.787-11.27,25.943a5.5,5.5,0,0,1-5.184,3.964c-49.452,1.333-65.6-.217-109.206-.568a5.429,5.429,0,0,1-4.538-2.4A4.886,4.886,0,0,1,318.746,357.678Z" transform="translate(-317.628 -61.942)" fill="#1b222d" fill-rule="evenodd"/>
              <path id="Path_78956" data-name="Path 78956" d="M318.508,481.415c25.524-48.056,65.085-175.361,83.235-245.987,3.751-14.594,6.584-26.757,8.191-35.284,1.31-6.966,1.909-11.389,1.625-12.545l-2.241-.526,1.3-.837a1.336,1.336,0,0,1,.872-.244.819.819,0,0,1,.588.38c3.482.812,11.385,2.616,22.057,5.055,48.8,11.149,155.918,35.62,173.318,41.18.48.15.626.513.449,1.074-.674,2.107-10.993,15.8-26.273,36.072C537.794,327.914,453,440.429,439.3,486a6.162,6.162,0,0,1-5.794,4.433c-33.032.891-51.215.492-72.633.029-10.638-.232-22.079-.48-36.6-.6a6.072,6.072,0,0,1-5.072-2.679,6.728,6.728,0,0,1-1.189-2.937,4.684,4.684,0,0,1,.494-2.835Zm84.508-245.661c-18.168,70.688-57.776,198.131-83.348,246.279a3.382,3.382,0,0,0-.35,2.047,5.439,5.439,0,0,0,.964,2.36,4.776,4.776,0,0,0,4,2.116c14.46.117,25.941.365,36.615.6,21.4.463,39.567.86,72.568-.031a4.837,4.837,0,0,0,4.573-3.5c13.763-45.8,98.657-158.439,142.539-216.663,14.4-19.113,24.374-32.342,25.893-35.284-18.971-5.865-124.346-29.939-172.634-40.971-9.908-2.262-17.4-3.974-21.314-4.882.294,2.27-.175,6.58-1.3,12.564C409.607,208.972,406.767,221.162,403.016,235.754Z" transform="translate(-317.97 -185.987)" fill="#1b222d" fill-rule="evenodd"/>
            </g>
            <g id="Group_40779" data-name="Group 40779" transform="translate(114.408 46.162)">
              <path id="Path_78957" data-name="Path 78957" d="M372.989,286.979c3.607,8.89,54.067,18.956,64.682,20.41,12.37-24.946,17.471-39.281,33.291-64.9,6.3-10.212-70.261-34.787-71.008-34.37C396.137,208.238,370.411,280.626,372.989,286.979Z" transform="translate(-372.808 -208.114)" fill="#fff" fill-rule="evenodd"/>
              <path id="Path_78958" data-name="Path 78958" d="M427.613,280.24c-1.122,10.6-20.65,2.053-27.633-1-13.071-5.721-30.806-12.128-15.716-21.967,23.1-15.065,45.907-1.189,43.349,22.968ZM403.9,227.7c-9.57,16.3,18.629,33.168,28.453,14.925,6.186-11.487.2-19.862-7.018-22.528A18.391,18.391,0,0,0,403.9,227.7Z" transform="translate(-366.645 -196.192)" fill="#1b222d" fill-rule="evenodd"/>
            </g>
            <g id="Group_40780" data-name="Group 40780" transform="translate(41.642 139.719)">
              <path id="Path_78959" data-name="Path 78959" d="M355.349,253.133c3.991-1.022,7.8,2.572,8.819,6.564a7.458,7.458,0,0,1-5.372,9.075c-3.991,1.022-7.8-2.572-8.819-6.564A7.457,7.457,0,0,1,355.349,253.133Z" transform="translate(-325.099 -252.957)" fill="#fff" fill-rule="evenodd"/>
              <path id="Path_78960" data-name="Path 78960" d="M349.052,270.291c3.991-1.022,7.559,2.52,8.581,6.511a7.458,7.458,0,0,1-5.372,9.076c-3.991,1.022-7.559-2.52-8.581-6.511A7.457,7.457,0,0,1,349.052,270.291Z" transform="translate(-331.94 -234.32)" fill="#fff" fill-rule="evenodd"/>
              <path id="Path_78961" data-name="Path 78961" d="M343.538,286.2c3.989-1.024,7.294,2.364,8.316,6.355a7.455,7.455,0,0,1-5.372,9.073c-3.991,1.024-7.294-2.364-8.316-6.353A7.456,7.456,0,0,1,343.538,286.2Z" transform="translate(-337.93 -217.046)" fill="#fff" fill-rule="evenodd"/>
              <path id="Path_78962" data-name="Path 78962" d="M362.2,265.642a4.921,4.921,0,0,1,4.488-8.758c.133.069,46.329,23.89,75.189,30.124a4.918,4.918,0,1,1-2.078,9.614C409.637,290.106,362.334,265.711,362.2,265.642Z" transform="translate(-314.476 -249.278)" fill="#fff" fill-rule="evenodd"/>
              <path id="Path_78963" data-name="Path 78963" d="M359.222,269.148a3.284,3.284,0,0,1,3.486-5.566c.063.04,18.2,11.387,30.971,16.24a3.286,3.286,0,1,1-2.328,6.146C377.978,280.888,359.289,269.188,359.222,269.148Z" transform="translate(-316.474 -241.958)" fill="#fff" fill-rule="evenodd"/>
              <path id="Path_78964" data-name="Path 78964" d="M378.262,276.033a3.288,3.288,0,0,1,4.043-2.3c3.739,2.806,16.728,6.1,22.712,6.524a3.279,3.279,0,1,1-2.04,6.232C399.363,286.047,376.564,282.2,378.262,276.033Z" transform="translate(-294.215 -230.515)" fill="#fff" fill-rule="evenodd"/>
              <path id="Path_78965" data-name="Path 78965" d="M355.53,281.855a4.925,4.925,0,1,1,4.346-8.84c-.417,1.717,30.544,18.487,60.188,26.048a4.928,4.928,0,1,1-3.359,9.265C386.629,299.606,355.13,283.036,355.53,281.855Z" transform="translate(-321.801 -231.716)" fill="#fff" fill-rule="evenodd"/>
              <path id="Path_78966" data-name="Path 78966" d="M353.068,286.037A3.282,3.282,0,0,1,356,280.162c.038.019,13.626,6.843,25.082,12.165a3.29,3.29,0,0,1-2.773,5.967C367.309,293.184,353.108,286.058,353.068,286.037Z" transform="translate(-323.461 -223.778)" fill="#fff" fill-rule="evenodd"/>
              <path id="Path_78967" data-name="Path 78967" d="M349.314,298.728a4.927,4.927,0,0,1,6.1-7.738c21.854,13.49,48.033,18.9,61.73,23.723,2.163,1.648,3.207,3.666,1.558,5.831s-4.365,3.017-7.532,2.013C392.09,317.834,374.273,312.965,349.314,298.728Z" transform="translate(-327.602 -212.79)" fill="#fff" fill-rule="evenodd"/>
              <path id="Path_78968" data-name="Path 78968" d="M346.3,303.13a3.285,3.285,0,0,1,3.805-5.356c.052.037,19.261,11.258,35.419,15.806a3.284,3.284,0,1,1-1.778,6.324C366.475,315.041,346.359,303.172,346.3,303.13Z" transform="translate(-330.336 -204.929)" fill="#fff" fill-rule="evenodd"/>
            </g>
          </g>
          <g id="Group_40782" data-name="Group 40782" transform="translate(283.255 142.252)">
            <path id="Path_78969" data-name="Path 78969" d="M497.543,210.28c20.3,2.191,108.519,13.782,214.6,48.225,1.978.643,2.579,3.067,2.372,5.136a5.447,5.447,0,0,1-3.342,4.569c-23.4,10.062-120.641,53.136-160.16,68.456a5.359,5.359,0,0,1-3.833.071c-11.412-3.943-70.964-24.437-107.983-35.415a5.577,5.577,0,0,1-2.687-8.925c9.745-11.621,34.345-43.529,55.64-79.417A5.471,5.471,0,0,1,497.543,210.28Z" transform="translate(-435.199 -210.246)" fill="#63a98d" fill-rule="evenodd"/>
            <path id="Path_78970" data-name="Path 78970" d="M466.246,226.757a4.932,4.932,0,0,1,1.609-9.733c37.862,6.249,48.373,7.688,93.911,25.676a4.928,4.928,0,1,1-5.324,8.293C517.709,234.762,502.671,232.768,466.246,226.757Z" transform="translate(-405.955 -202.954)" fill="#1b222d" fill-rule="evenodd"/>
            <path id="Path_78971" data-name="Path 78971" d="M463.33,233.608a4.921,4.921,0,0,1-4.085-5.629c1.656-10.4,55.227,6.361,61.141,8.157a4.919,4.919,0,0,1-4.077,8.954C489.217,235.778,461.784,234.211,463.33,233.608Z" transform="translate(-409.143 -194.651)" fill="#92d99c" fill-rule="evenodd"/>
            <path id="Path_78972" data-name="Path 78972" d="M483.263,269.441c-2.527-1.008-3.734-3.342-2.727-5.869a4.93,4.93,0,0,1,6.4-2.754q8.137,3.239,16.275,6.474c2.526,1.008,4.367,4.116,3.359,6.645s-4.508,2.983-7.035,1.976Z" transform="translate(-386.334 -155.689)" fill="#1b222d" fill-rule="evenodd"/>
          </g>
          <g id="Group_40783" data-name="Group 40783" transform="translate(169.301 240.539)">
            <path id="Path_78973" data-name="Path 78973" d="M489.31,257.671c14.527,1.306,72.612,16.148,94.36,28.528a5.483,5.483,0,0,1,3.415,5.32c-.294,9.138-115.415,34.994-146.584,122.7a5.523,5.523,0,0,1-5.894,3.67l-49.078-5.708a5.576,5.576,0,0,1-4.429-7.849c10.336-22.687,46.4-95.8,102.717-145.566A5.445,5.445,0,0,1,489.31,257.671Z" transform="translate(-380.579 -257.356)" fill="#1b222d" fill-rule="evenodd"/>
            <path id="Path_78974" data-name="Path 78974" d="M449.038,276.13a3.29,3.29,0,1,1,1.264-6.457l.547.106c3.219.628,15.833,4.266,29.054,12.441,1.542.953,1.711,3.309.755,4.851a3.281,3.281,0,0,1-4.519,1.066c-12.2-7.544-23.611-11.335-26.544-11.9Z" transform="translate(-309.099 -244.044)" fill="#f6e264" fill-rule="evenodd"/>
            <path id="Path_78975" data-name="Path 78975" d="M444.325,278.468c-2.105-1.68-.365-5.2,3.109-4.463a76.974,76.974,0,0,1,17.481,6.094,3.29,3.29,0,0,1,.751,4.588,3.418,3.418,0,0,1-4.588.751C457.7,283.485,449.707,281.981,444.325,278.468Z" transform="translate(-312.323 -239.379)" fill="#f6e264" fill-rule="evenodd"/>
            <path id="Path_78976" data-name="Path 78976" d="M428.618,286.773a3.642,3.642,0,0,1-2.758-3.991,3.04,3.04,0,0,1,4.022-2.028l.574.165c3.38.978,16.638,5.931,30.573,15.286a3.416,3.416,0,0,1,.839,4.721,3.468,3.468,0,0,1-4.728.488c-12.86-8.635-24.856-13.592-27.936-14.477Z" transform="translate(-331.453 -232.11)" fill="#92d99c" fill-rule="evenodd"/>
            <path id="Path_78977" data-name="Path 78977" d="M417.689,288.415a3.29,3.29,0,1,1,1.575-6.388l.54.134c3.186.782,15.61,5.028,28.418,13.832,1.494,1.026,1.548,3.388.522,4.884a3.284,3.284,0,0,1-4.567.843c-11.821-8.124-23.035-12.466-25.937-13.173Z" transform="translate(-342.985 -230.662)" fill="#92d99c" fill-rule="evenodd"/>
            <path id="Path_78978" data-name="Path 78978" d="M425.571,298.213c-1.7-.643-2.946-2.078-2.6-3.86.972-4.961,6.954-1.54,9.831-.2a57.072,57.072,0,0,1,5.923,3.338c1.542.951,1.711,3.309.757,4.851a3.284,3.284,0,0,1-4.519,1.064C430.641,300.731,429.55,299.721,425.571,298.213Z" transform="translate(-334.586 -219.991)" fill="#f6e264" fill-rule="evenodd"/>
            <path id="Path_78979" data-name="Path 78979" d="M414.3,301.214c-1.7-.643-2.946-2.078-2.6-3.862.972-4.959,6.954-1.538,9.833-.2a57.381,57.381,0,0,1,5.923,3.336c1.542.953,1.709,3.311.757,4.853a3.286,3.286,0,0,1-4.521,1.064C419.366,303.734,418.272,302.722,414.3,301.214Z" transform="translate(-346.836 -216.731)" fill="#92d99c" fill-rule="evenodd"/>
            <path id="Path_78980" data-name="Path 78980" d="M397.539,314.746c-1.7-.643-2.946-2.078-2.6-3.86.972-4.961,6.954-1.54,9.833-.2a57.92,57.92,0,0,1,5.921,3.338c1.542.953,1.711,3.309.757,4.853a3.283,3.283,0,0,1-4.519,1.064C402.609,317.266,401.516,316.254,397.539,314.746Z" transform="translate(-365.04 -202.031)" fill="#63a98d" fill-rule="evenodd"/>
            <path id="Path_78981" data-name="Path 78981" d="M455,273.21c-.075,5.79-5.719,10.642-12.6,10.84S430,279.717,430.07,273.93s5.719-10.642,12.6-10.841S455.075,267.423,455,273.21Z" transform="translate(-326.816 -251.135)" fill="#f6e264" fill-rule="evenodd"/>
          </g>
        </g>
        <path id="Path_78982" data-name="Path 78982" d="M304.82,385.384c9.956-11.423,38.253-45,55.054-76.3,0,0,106.558,47.605,154.625,44.192,0,0-48.845,12.332-73.617,37.954Z" transform="translate(128.425 223.471)" fill="#fff" fill-rule="evenodd"/>
        <rect id="Rectangle_22794" data-name="Rectangle 22794" width="1.471" height="435.559" transform="translate(214.08 599.638) rotate(-87.661)" fill="#1b222d"/>
      </g>
      <g id="Group_40786" data-name="Group 40786" transform="translate(119.977 619.077)">
        <path id="Path_78983" data-name="Path 78983" d="M185.82,415.236l-31.1,15.816,10.707,16.221s5.155,4.867,18.249,4.8,559.9,13.726,559.9,13.726,12.019,1.834,18.75-16.159Z" transform="translate(-154.608 -280.287)" fill="#63a98d" fill-rule="evenodd"/>
        <path id="Path_78984" data-name="Path 78984" d="M225.584,350.553l-69.9,144.775s-6.071,12.666,11.366,12.28,589.817,16.807,589.817,16.807,14.331-7.148,7.121-22.346S706.3,368.249,706.3,368.249Z" transform="translate(-154.666 -350.553)" fill="#92d99c" fill-rule="evenodd"/>
        <path id="Path_78985" data-name="Path 78985" d="M235.037,355.857,260.442,357a2.579,2.579,0,0,1,2.124,1.277,2.758,2.758,0,0,1,.223,2.531l-3.453,8.629a2.521,2.521,0,0,1-2.451,1.642l-33.089-.989a2.591,2.591,0,0,1-2.216-1.369,2.757,2.757,0,0,1-.069-2.664l1.588-3.119a12.5,12.5,0,0,1,11.938-7.083Zm355.557,68.481,11.619.282h.046l47.687,1.158a2.477,2.477,0,0,0,2.193-1.17,2.733,2.733,0,0,0,.24-2.566l-3.691-9.234-.636-1.594-.021-.048v0l-4.753-11.894,0,0-.017-.042-.9-2.241-2.554-6.393a2.63,2.63,0,0,0-2.383-1.713L595.4,387.621a2.454,2.454,0,0,0-2.07.978,2.7,2.7,0,0,0-.515,2.312l1.2,5.462h0l.017.073.743,3.394a3.263,3.263,0,0,0,.111.384l1.811,7.988-15.743-.14-40.591-.9a2.445,2.445,0,0,0-1.969.883,2.678,2.678,0,0,0-.641,2.134L539,420.714a2.7,2.7,0,0,0,2.579,2.433l48.957,1.189.06,0Zm-227.155.924v0l18.289.444.035,0,28.053.68h0l39.769.966a2.529,2.529,0,0,1,1.871.87,2.74,2.74,0,0,1,.726,1.992l-.5,15.153a2.617,2.617,0,0,1-2.654,2.587l-43.681-1.387-14.06-.444-.035,0-.035,0-11.352-.361h-.063l-75.284-2.389a2.56,2.56,0,0,1-2.038-1.1,2.756,2.756,0,0,1-.461-2.333l3.388-14a2.562,2.562,0,0,1,2.558-2.02l55.471,1.348Zm-90.782-67.711,39.2,1.767a2.559,2.559,0,0,1,2.015,1.112,2.751,2.751,0,0,1,.453,2.318l-1.911,7.9a2.559,2.559,0,0,1-2.572,2.017l-40.671-1.216a2.584,2.584,0,0,1-2.153-1.26,2.763,2.763,0,0,1-.234-2.547l3.382-8.447a2.525,2.525,0,0,1,2.489-1.642Zm50.875,2.293,66.28,2.986a2.547,2.547,0,0,1,1.922.989,2.75,2.75,0,0,1,.6,2.136l-.862,6.751a2.59,2.59,0,0,1-2.629,2.322l-67.286-2.013a2.555,2.555,0,0,1-2.043-1.1,2.762,2.762,0,0,1-.465-2.335l1.871-7.724a2.558,2.558,0,0,1,2.608-2.018Zm77.746,3.5,50.384,2.27a2.53,2.53,0,0,1,1.834.889,2.747,2.747,0,0,1,.711,1.974l-.192,5.833a2.616,2.616,0,0,1-2.65,2.587l-51.031-1.527a2.545,2.545,0,0,1-1.949-.974,2.75,2.75,0,0,1-.613-2.153l.841-6.576a2.588,2.588,0,0,1,2.664-2.322Zm61.786,2.785,61.331,2.76a2.706,2.706,0,0,1,2.527,2.433l.565,4.757a2.678,2.678,0,0,1-.647,2.141,2.441,2.441,0,0,1-1.982.874l-62.082-1.855a2.535,2.535,0,0,1-1.861-.876,2.734,2.734,0,0,1-.722-1.986l.186-5.662a2.614,2.614,0,0,1,2.685-2.585Zm72.854,3.28,44.3,2a2.673,2.673,0,0,1,2.481,2.157l.86,3.922a2.7,2.7,0,0,1-.513,2.31,2.461,2.461,0,0,1-2.072.978l-44.612-1.333a2.7,2.7,0,0,1-2.566-2.433l-.544-4.584a2.674,2.674,0,0,1,.659-2.155,2.442,2.442,0,0,1,2.007-.86ZM592,371.936l32.649,1.471a12.867,12.867,0,0,1,9.126,4.327,2.783,2.783,0,0,1,.49,2.973,2.51,2.51,0,0,1-2.428,1.588l-39.118-1.17a2.677,2.677,0,0,1-2.52-2.159l-.818-3.741a2.7,2.7,0,0,1,.526-2.326,2.455,2.455,0,0,1,2.095-.962Zm65.178,62.109.584,1.458c6.632,16.6,6.021,19.267-12.257,18.687l-37.042-1.177a2.674,2.674,0,0,1-2.514-2.159l-3.6-16.444a2.707,2.707,0,0,1,.511-2.305,2.46,2.46,0,0,1,2.059-.985l49.867,1.212a2.623,2.623,0,0,1,2.4,1.713Zm-60.457,18.6L544.871,451a2.7,2.7,0,0,1-2.56-2.433l-1.894-15.927a2.678,2.678,0,0,1,.641-2.136,2.448,2.448,0,0,1,1.974-.88l50.157,1.216A2.674,2.674,0,0,1,595.722,433l3.582,16.357a2.692,2.692,0,0,1-.515,2.312,2.451,2.451,0,0,1-2.072.976Zm-63.353-2.009-72.925-2.316a2.531,2.531,0,0,1-1.859-.876,2.736,2.736,0,0,1-.72-1.984l.5-15.238a2.618,2.618,0,0,1,2.635-2.589l70.54,1.713a2.705,2.705,0,0,1,2.581,2.433L536,447.615a2.679,2.679,0,0,1-.649,2.145,2.447,2.447,0,0,1-1.986.872ZM292.811,443,241.2,441.361a2.582,2.582,0,0,1-2.151-1.264,2.763,2.763,0,0,1-.232-2.545l5.4-13.482a2.522,2.522,0,0,1,2.437-1.642l49.592,1.2a2.557,2.557,0,0,1,2.051,1.091,2.755,2.755,0,0,1,.469,2.341l-3.369,13.916a2.562,2.562,0,0,1-2.577,2.02Zm-63.9-2.028-23.486-.747c-20.592-.653-16.624-10.043-12.7-17.644a2.5,2.5,0,0,1,2.328-1.4l39.275.953a2.573,2.573,0,0,1,2.164,1.254,2.763,2.763,0,0,1,.238,2.554l-5.36,13.392a2.523,2.523,0,0,1-2.456,1.642Zm-30.2-30.12,4.9-9.63a2.5,2.5,0,0,1,2.328-1.419l36.982.816a2.578,2.578,0,0,1,2.168,1.254,2.755,2.755,0,0,1,.238,2.556l-3.9,9.737A2.521,2.521,0,0,1,239,415.805l-37.988-.922a2.588,2.588,0,0,1-2.226-1.362,2.758,2.758,0,0,1-.073-2.67ZM209.6,389.466l5.963-11.717a2.5,2.5,0,0,1,2.349-1.419l34.345,1.029a2.572,2.572,0,0,1,2.153,1.26,2.761,2.761,0,0,1,.234,2.547l-4.594,11.479a2.521,2.521,0,0,1-2.431,1.642L211.9,393.5a2.586,2.586,0,0,1-2.23-1.358,2.761,2.761,0,0,1-.073-2.675Zm52.5-10.1-4.557,11.383a2.761,2.761,0,0,0,.24,2.556,2.577,2.577,0,0,0,2.166,1.254l44.38.978a2.557,2.557,0,0,0,2.552-2.017l2.685-11.091a2.753,2.753,0,0,0-.463-2.335,2.565,2.565,0,0,0-2.042-1.1l-42.511-1.273a2.522,2.522,0,0,0-2.449,1.642Zm-9.269,23.166-3.908,9.764a2.763,2.763,0,0,0,.238,2.554,2.573,2.573,0,0,0,2.161,1.254l47.741,1.16a2.562,2.562,0,0,0,2.558-2.02l2.4-9.9a2.761,2.761,0,0,0-.469-2.343,2.56,2.56,0,0,0-2.055-1.089l-46.233-1.018a2.523,2.523,0,0,0-2.431,1.642Zm57.966,15.015L383.2,419.3a2.589,2.589,0,0,0,2.614-2.322l1.291-10.115a2.751,2.751,0,0,0-.622-2.159,2.55,2.55,0,0,0-1.961-.968l-71.3-1.573a2.56,2.56,0,0,0-2.552,2.02l-2.4,9.929a2.761,2.761,0,0,0,.467,2.341,2.561,2.561,0,0,0,2.053,1.091Zm83.907,2.036,55.237,1.342a2.616,2.616,0,0,0,2.635-2.589l.336-10.281a2.727,2.727,0,0,0-.728-1.995,2.531,2.531,0,0,0-1.874-.868l-54.28-1.2a2.59,2.59,0,0,0-2.608,2.322l-1.3,10.139a2.744,2.744,0,0,0,.622,2.157,2.536,2.536,0,0,0,1.955.97Zm66.647,1.619,68.733,1.667a2.449,2.449,0,0,0,1.974-.88,2.676,2.676,0,0,0,.643-2.136l-1.25-10.494a2.7,2.7,0,0,0-2.585-2.435l-67.146-1.479a2.615,2.615,0,0,0-2.629,2.587l-.338,10.309a2.734,2.734,0,0,0,.728,1.99,2.527,2.527,0,0,0,1.869.872ZM316.065,395.8l69.95,1.544a2.588,2.588,0,0,0,2.608-2.322l1.339-10.49a2.744,2.744,0,0,0-.613-2.153,2.548,2.548,0,0,0-1.949-.974l-68.627-2.053a2.563,2.563,0,0,0-2.572,2.017l-2.662,11a2.752,2.752,0,0,0,.472,2.343,2.549,2.549,0,0,0,2.055,1.089Zm81.45,1.8,53.155,1.172a2.616,2.616,0,0,0,2.629-2.589l.328-10.012a2.726,2.726,0,0,0-.722-1.986,2.523,2.523,0,0,0-1.861-.874l-52.154-1.561a2.587,2.587,0,0,0-2.627,2.322l-1.329,10.4a2.747,2.747,0,0,0,.622,2.159,2.541,2.541,0,0,0,1.959.97Zm64.567,1.423,65.337,1.442a2.452,2.452,0,0,0,1.972-.883,2.676,2.676,0,0,0,.638-2.134l-1.125-9.453a2.7,2.7,0,0,0-2.564-2.433l-63.887-1.911a2.616,2.616,0,0,0-2.65,2.587l-.325,9.923a2.737,2.737,0,0,0,.73,1.995,2.531,2.531,0,0,0,1.873.868Zm76.831,1.7a2.706,2.706,0,0,1-2.585-2.435l-1.114-9.361a2.68,2.68,0,0,1,.647-2.143,2.444,2.444,0,0,1,1.984-.874l45.813,1.371a2.669,2.669,0,0,1,2.518,2.159l1.978,9.021a2.709,2.709,0,0,1-.509,2.3,2.454,2.454,0,0,1-2.055.987Z" transform="translate(-116.746 -344.806)" fill="#63a98d" fill-rule="evenodd"/>
        <path id="Path_78986" data-name="Path 78986" d="M280.638,401.649l143.426,2.865a2.852,2.852,0,0,1,2.687,2.155l12.24,43.441a2.444,2.444,0,0,1-.595,2.316,2.811,2.811,0,0,1-2.257.937l-172.8-3.722a2.7,2.7,0,0,1-2.222-1.262,2.61,2.61,0,0,1-.236-2.481l17.139-42.584A2.7,2.7,0,0,1,280.638,401.649Z" transform="translate(-39.514 -295.047)" fill="#63a98d" fill-rule="evenodd"/>
      </g>
    </g>
    <g id="Group_40796" data-name="Group 40796" transform="translate(141.417 86.932)">
      <g id="Group_40788" data-name="Group 40788" transform="translate(855.63 549.366)">
        <path id="Path_78987" data-name="Path 78987" d="M514.791,333.485l40.272,9.159a19.12,19.12,0,0,1-8.479,37.289l-40.272-9.159a19.12,19.12,0,0,1,8.479-37.289Zm39.98,10.444L514.5,334.771a17.8,17.8,0,0,0-7.9,34.718l40.274,9.159a17.8,17.8,0,0,0,7.895-34.718Z" transform="translate(-491.433 -333.01)" fill="#4e17e2" fill-rule="evenodd"/>
        <path id="Path_78988" data-name="Path 78988" d="M510.9,335.937a13.768,13.768,0,1,1-16.478,10.371A13.765,13.765,0,0,1,510.9,335.937Z" transform="translate(-488.566 -330.207)" fill="#4e17e2" fill-rule="evenodd"/>
      </g>
      <g id="Group_40789" data-name="Group 40789" transform="translate(1.018 375.764)">
        <path id="Path_78989" data-name="Path 78989" d="M114.684,272.158a36.418,36.418,0,0,1,23.872,5.988,37.709,37.709,0,0,1,15.462,19.532c2.625,8.039,1.665,15.718-2.009,21.635s-10.066,10.071-18.3,11.062a36.417,36.417,0,0,1-23.872-5.986,37.715,37.715,0,0,1-15.462-19.532c-2.627-8.039-1.667-15.718,2.009-21.635s10.066-10.073,18.3-11.064Zm21.6,9.645a30.656,30.656,0,0,0-20.1-5.038c-6.931.834-12.311,4.331-15.405,9.311s-3.9,11.445-1.692,18.211a31.755,31.755,0,0,0,13.016,16.442,30.652,30.652,0,0,0,20.1,5.041c6.931-.835,12.311-4.333,15.405-9.313s3.9-11.445,1.69-18.211A31.76,31.76,0,0,0,136.284,281.8Z" transform="translate(-69.768 -225.756)" fill="#4e17e2" fill-rule="evenodd"/>
        <path id="Path_78990" data-name="Path 78990" d="M96.345,249.95a24.3,24.3,0,0,1,15.925,3.991A25.171,25.171,0,0,1,122.58,266.97a16.988,16.988,0,0,1-1.339,14.431,16.253,16.253,0,0,1-12.207,7.377,24.28,24.28,0,0,1-15.923-3.993A25.142,25.142,0,0,1,82.8,271.758a16.989,16.989,0,0,1,1.339-14.431,16.253,16.253,0,0,1,12.207-7.377Zm14.408,6.432a20.444,20.444,0,0,0-13.4-3.361,13.682,13.682,0,0,0-10.275,6.211,14.306,14.306,0,0,0-1.129,12.147,21.176,21.176,0,0,0,8.681,10.968,20.444,20.444,0,0,0,13.4,3.361,13.681,13.681,0,0,0,10.275-6.211,14.307,14.307,0,0,0,1.129-12.146A21.176,21.176,0,0,0,110.753,256.382Z" transform="translate(-81.805 -249.8)" fill="#4e17e2" fill-rule="evenodd"/>
      </g>
      <g id="Group_40790" data-name="Group 40790" transform="translate(820.01 417.957)">
        <path id="Path_78991" data-name="Path 78991" d="M524.238,289.434a36.419,36.419,0,0,0-24.6-.943,37.721,37.721,0,0,0-20.314,14.416c-4.773,6.981-6,14.623-4.135,21.33s6.841,12.489,14.469,15.75a36.412,36.412,0,0,0,24.593.941,37.692,37.692,0,0,0,20.314-14.416c4.774-6.979,6-14.619,4.135-21.33s-6.841-12.489-14.467-15.747ZM500.8,292.64a30.656,30.656,0,0,1,20.7.793c6.42,2.744,10.6,7.609,12.178,13.256s.538,12.08-3.48,17.955a31.735,31.735,0,0,1-17.1,12.136,30.651,30.651,0,0,1-20.7-.793c-6.422-2.744-10.6-7.609-12.18-13.256s-.536-12.082,3.482-17.957A31.734,31.734,0,0,1,500.8,292.64Z" transform="translate(-474.36 -251.793)" fill="#4e17e2" fill-rule="evenodd"/>
        <path id="Path_78992" data-name="Path 78992" d="M535.779,271.774a24.309,24.309,0,0,0-16.4-.628,25.162,25.162,0,0,0-13.548,9.616,16.993,16.993,0,0,0-2.76,14.229,16.255,16.255,0,0,0,9.651,10.5,24.285,24.285,0,0,0,16.4.63,25.156,25.156,0,0,0,13.548-9.616,16.989,16.989,0,0,0,2.758-14.227,16.258,16.258,0,0,0-9.649-10.507Zm-15.633,2.138a20.445,20.445,0,0,1,13.807.53,13.684,13.684,0,0,1,8.124,8.844,14.3,14.3,0,0,1-2.322,11.975,21.175,21.175,0,0,1-11.406,8.095,20.452,20.452,0,0,1-13.809-.53,13.682,13.682,0,0,1-8.122-8.844,14.307,14.307,0,0,1,2.32-11.975A21.191,21.191,0,0,1,520.146,273.913Z" transform="translate(-443.78 -270.024)" fill="#4e17e2" fill-rule="evenodd"/>
      </g>
      <g id="Group_40792" data-name="Group 40792" transform="translate(120.553)">
        <g id="Group_40791" data-name="Group 40791" transform="translate(234.323)">
          <path id="Path_78993" data-name="Path 78993" d="M279.866,69.937l34.257,8.347a8.139,8.139,0,0,1,4.212,13.248l-24.648,28.324a8.141,8.141,0,0,1-14.012-3.28l-9.61-36.669a8.139,8.139,0,0,1,9.8-9.97ZM305.35,81.074,286.538,76.49a8.139,8.139,0,0,0-9.8,9.97l5.278,20.135a8.137,8.137,0,0,0,14.01,3.28l13.536-15.551a8.138,8.138,0,0,0-4.212-13.25Z" transform="translate(-231.459 -69.691)" fill="#4e17e2" fill-rule="evenodd"/>
          <path id="Path_78994" data-name="Path 78994" d="M252.755,92.6l14.371-15.042a4.8,4.8,0,0,1,8.013,1.757l7.2,20.949a4.8,4.8,0,0,1-5.808,6.192l-21.572-5.908a4.8,4.8,0,0,1-2.2-7.947Zm13.208-9.737-7.89,8.26a4.8,4.8,0,0,0,2.2,7.949l11.846,3.244a4.8,4.8,0,0,0,5.808-6.192l-3.953-11.5a4.8,4.8,0,0,0-8.014-1.757Z" transform="translate(-251.414 -62.768)" fill="#4e17e2" fill-rule="evenodd"/>
        </g>
        <path id="Path_78995" data-name="Path 78995" d="M586.915,171.336l5.842,19.968a4.8,4.8,0,0,1-5.527,6.061l-21.744-4.239A4.8,4.8,0,0,1,563.029,185l15.9-15.729a4.8,4.8,0,0,1,7.984,2.065Zm1.828,16.309-3.207-10.966a4.8,4.8,0,0,0-7.984-2.065l-8.733,8.637a4.8,4.8,0,0,0,2.458,8.126l11.94,2.328a4.8,4.8,0,0,0,5.527-6.061Z" transform="translate(319.861 36.965)" fill="#4e17e2" fill-rule="evenodd"/>
        <path id="Path_78996" data-name="Path 78996" d="M158.177,102.194l-17.033,11.946a4.8,4.8,0,0,0,.532,8.185L161.3,132.6a4.8,4.8,0,0,0,7-4.811L165.7,105.57a4.8,4.8,0,0,0-7.527-3.376Zm-11.612,11.594,9.355-6.557a4.8,4.8,0,0,1,7.525,3.374l1.425,12.2a4.8,4.8,0,0,1-7,4.811L147.1,121.975a4.8,4.8,0,0,1-.532-8.187Z" transform="translate(-139.1 -35.345)" fill="#4e17e2" fill-rule="evenodd"/>
      </g>
      <path id="Path_78997" data-name="Path 78997" d="M430.441,416.757a7.774,7.774,0,0,1,9.084,4.534l101.234-35.6a7.963,7.963,0,1,1,7.2,7.64l-15.942,52.22a7.92,7.92,0,1,1-11.742,6.457l-81.821-22.488c-1.081,1.346-1.367,2.068-4.417,2.773s-8.571-1.682-9.564-5.969a8.145,8.145,0,0,1,5.971-9.564Zm114.374-24.42a7.963,7.963,0,0,1-3.376-3.712l-101.234,35.6a7.922,7.922,0,0,1-.252,2.3l81.189,22.313a7.927,7.927,0,0,1,7.724-4.256Z" transform="translate(291.243 264.596)" fill="#4e17e2" fill-rule="evenodd"/>
      <g id="Group_40794" data-name="Group 40794" transform="translate(0 58.594)">
        <g id="Group_40793" data-name="Group 40793" transform="translate(0 2.51)">
          <path id="Path_78998" data-name="Path 78998" d="M319.888,212.492a8.005,8.005,0,1,0-8-8.005A8.022,8.022,0,0,0,319.888,212.492Z" transform="translate(169.152 6.94)" fill="#4e17e2" fill-rule="evenodd"/>
          <path id="Path_78999" data-name="Path 78999" d="M323.079,184.812a3.709,3.709,0,1,0-3.709-3.709A3.715,3.715,0,0,0,323.079,184.812Z" transform="translate(177.283 -13.797)" fill="#4e17e2" fill-rule="evenodd"/>
          <path id="Path_79000" data-name="Path 79000" d="M86,108.351a4.686,4.686,0,1,0-4.686-4.686A4.7,4.7,0,0,0,86,108.351Z" transform="translate(-81.317 -98.979)" fill="#4e17e2" fill-rule="evenodd"/>
          <path id="Path_79001" data-name="Path 79001" d="M416.466,146.446a6.142,6.142,0,1,0-6.142-6.142A6.155,6.155,0,0,0,416.466,146.446Z" transform="translate(276.087 -60.759)" fill="#4e17e2" fill-rule="evenodd"/>
          <circle id="Ellipse_240" data-name="Ellipse 240" cx="5.076" cy="5.076" r="5.076" transform="translate(748.103 431.059)" fill="#4e17e2"/>
          <path id="Path_79002" data-name="Path 79002" d="M214.083,392.705a7.8,7.8,0,1,0-7.8-7.8A7.813,7.813,0,0,0,214.083,392.705Z" transform="translate(54.436 203.156)" fill="#4e17e2" fill-rule="evenodd"/>
          <path id="Path_79003" data-name="Path 79003" d="M283.276,391.123a6.227,6.227,0,1,0-6.228-6.228A6.239,6.239,0,0,0,283.276,391.123Z" transform="translate(131.308 204.852)" fill="#4e17e2" fill-rule="evenodd"/>
          <path id="Path_79004" data-name="Path 79004" d="M138.307,348.082a2.343,2.343,0,1,0-2.343-2.343A2.346,2.346,0,0,0,138.307,348.082Z" transform="translate(-21.953 166.534)" fill="#4e17e2" fill-rule="evenodd"/>
        </g>
        <path id="Path_79005" data-name="Path 79005" d="M232.553,105.587a8.2,8.2,0,1,1-8.2,8.2,8.2,8.2,0,0,1,8.2-8.2Zm-29.48-7.811a3.711,3.711,0,1,1-3.712,3.709A3.709,3.709,0,0,1,203.074,97.776Z" transform="translate(46.917 -97.776)" fill="#4e17e2" fill-rule="evenodd"/>
      </g>
      <g id="Group_40795" data-name="Group 40795" transform="translate(144.545 591.874)">
        <path id="Path_79006" data-name="Path 79006" d="M161.057,387.943l40.7-4.9a7.849,7.849,0,0,1,8.71,6.839l4.9,40.7a7.849,7.849,0,0,1-6.839,8.71l-40.7,4.9a7.849,7.849,0,0,1-8.71-6.837l-4.9-40.7a7.849,7.849,0,0,1,6.839-8.708Zm41.023-2.2-40.7,4.9a5.134,5.134,0,0,0-4.465,5.687l4.9,40.7a5.13,5.13,0,0,0,5.685,4.465l40.7-4.9a5.134,5.134,0,0,0,4.465-5.687l-4.9-40.7a5.134,5.134,0,0,0-5.687-4.465Z" transform="translate(-146.73 -321.228)" fill="#4e17e2" fill-rule="evenodd"/>
        <path id="Path_79007" data-name="Path 79007" d="M157.493,358.34l40.7-4.9a7.849,7.849,0,0,1,8.71,6.839l4.9,40.7a7.853,7.853,0,0,1-6.839,8.71l-40.7,4.9a7.849,7.849,0,0,1-8.71-6.839l-4.9-40.7a7.849,7.849,0,0,1,6.837-8.71Z" transform="translate(-150.6 -353.385)" fill="#4e17e2" fill-rule="evenodd"/>
        <path id="Path_79008" data-name="Path 79008" d="M156.337,379.108a3.768,3.768,0,1,1,4.655-5.927l12.19,9.572,16.682-21.247a3.768,3.768,0,1,1,5.927,4.652l-18.71,23.83a4.261,4.261,0,0,1-5.971.718Z" transform="translate(-145.932 -346.13)" fill="#fff" fill-rule="evenodd"/>
      </g>
    </g>
    <g id="Group_40803" data-name="Group 40803" transform="translate(25.993 83.826)">
      <g id="Group_40797" data-name="Group 40797" transform="translate(810.451)">
        <path id="Path_79009" data-name="Path 79009" d="M440.716,68.483s197.72,57.937,199.487,67.3S584.528,266.3,566.675,266.61s-152.221-38.924-152.221-38.924S429.561,60.447,440.716,68.483Z" transform="translate(-414.454 -68.202)" fill="#92d99c" fill-rule="evenodd"/>
        <path id="Path_79010" data-name="Path 79010" d="M440.969,76.312s173.856,48.1,175.4,55.913c1.21,6.138-29.828,69.944-50.8,97.137-3.009-9.461-8.443-25.413-11.416-27.151-4.258-2.487-38.91,10.567-38.91,10.567s-25.445-46.834-30.871-53.472c-4.193-5.13-43.954,1.727-61.8,5.107C427.394,124.227,434.894,72.165,440.969,76.312Z" transform="translate(-405.64 -59.646)" fill="#63a98d" fill-rule="evenodd"/>
        <path id="Path_79011" data-name="Path 79011" d="M492.947,102.974a19.507,19.507,0,0,1,18.08,20.362,18.666,18.666,0,0,1-20.179,17.542,19.5,19.5,0,0,1-18.08-20.36A18.668,18.668,0,0,1,492.947,102.974Z" transform="translate(-351.138 -30.488)" fill="#92d99c" fill-rule="evenodd"/>
      </g>
      <g id="Group_40798" data-name="Group 40798" transform="translate(589.947 13.39)">
        <path id="Path_79012" data-name="Path 79012" d="M310.934,83.029c-1.5,27.744,10.1,83.646,20.312,91.526C344.194,184.536,466.5,203.23,473.4,192.391c5.835-9.167,28.065-80.313,27.143-104.4-17.834,12.722-87.149,61.711-95.981,61.033C398.171,148.533,345.548,109.31,310.934,83.029Z" transform="translate(-306.547 -65.486)" fill="#92d99c" fill-rule="evenodd"/>
        <path id="Path_79013" data-name="Path 79013" d="M495.164,88.9c-15.67-1.915-169.536-20.46-180.983-11.735a8.255,8.255,0,0,0-2.435,3.766c33.625,25.693,88.637,67.217,93.44,67.588C410.852,148.95,479.141,100.362,495.164,88.9Z" transform="translate(-305.523 -74.38)" fill="#f6e264" fill-rule="evenodd"/>
        <path id="Path_79014" data-name="Path 79014" d="M501.156,87l-2.529-.376c-15.616,11.174-84.51,60.215-90.2,59.779-4.932-.38-62.806-44.157-96.1-69.624a50.021,50.021,0,0,0-3.561,9.7c34.362,26.148,91.347,68.815,98.013,69.328,9.153.7,83.288-51.953,97.727-62.281C503.937,89.868,502.857,87.534,501.156,87Z" transform="translate(-308.763 -72.271)" fill="#63a98d" fill-rule="evenodd"/>
        <path id="Path_79015" data-name="Path 79015" d="M423.709,78.594c-11.3-7.16-26.287-4.379-33.483,6.215s-3.872,24.992,7.425,32.154,26.288,4.379,33.483-6.215S435.006,85.758,423.709,78.594Z" transform="translate(-224.397 -74.62)" fill="#e07077" fill-rule="evenodd"/>
      </g>
      <g id="Group_40802" data-name="Group 40802" transform="translate(0 186.659)">
        <g id="Group_40799" data-name="Group 40799" transform="translate(0 4.575)">
          <path id="Path_79016" data-name="Path 79016" d="M28.558,164.846q15.316-1.252,30.794-2.47,15.519-1.242,31.22-2.5a8.163,8.163,0,0,1,7.1,4.1c5.216,9.885,10.411,19.776,15.455,29.64s9.964,19.747,14.865,29.6c1.227,2.468.267,4.661-2.078,4.872q-13.826,1.246-27.556,2.47-13.635,1.227-27.164,2.458c-2.27.207-5.237-1.563-6.741-4q-9.116-14.784-18.474-29.588c-6.253-9.864-12.7-19.743-19.1-29.613a3.892,3.892,0,0,1-.749-3.361,2.5,2.5,0,0,1,2.426-1.609Zm60.664-2.107q-14.2,1.123-28.284,2.264-14.033,1.13-27.965,2.259a2.5,2.5,0,0,0-2.422,1.625,3.878,3.878,0,0,0,.726,3.344c5.8,8.99,11.606,17.98,17.262,26.961s11.254,17.99,16.759,26.97c1.485,2.422,4.5,4.219,6.745,4.014q12.371-1.133,24.84-2.249l25.194-2.266c2.343-.211,3.275-2.4,2.042-4.859-4.513-8.984-9.048-17.976-13.688-26.966s-9.34-17.984-14.122-26.988A8.166,8.166,0,0,0,89.221,162.739Z" transform="translate(-25.993 -159.864)" fill="#4e17e2" fill-rule="evenodd"/>
          <path id="Path_79017" data-name="Path 79017" d="M37.557,173.66s7.3-7.786,15.992-7.227,22.142,5.356,31.791,21.082,10.982,9.332,11.988,11.243,4,7.623,5.992,11.443c0,0-10.9,6.138-18.274-5.426,0,0,.526,11.99-15.247,10.365s-24.068-18.8-21.643-23.452,16.317-11.064,24.178-5.429c0,0-15.691-12.662-22.1-2.785-4.2-3.253-8.435-6.541-12.681-9.814Zm36.838,21.685S53.4,193.7,59.912,200.834s18.529,1.283,17.552-1.561A7.183,7.183,0,0,0,74.395,195.345Z" transform="translate(-13.43 -152.759)" fill="#4e17e2" fill-rule="evenodd"/>
        </g>
        <g id="Group_40800" data-name="Group 40800" transform="translate(78.25)">
          <path id="Path_79018" data-name="Path 79018" d="M66.557,162.578q15.851-1.239,31.848-2.458c10.7-.818,21.5-1.6,32.284-2.433a6.945,6.945,0,0,1,6.645,4.07c3.841,9.858,7.653,19.68,11.331,29.484q5.53,14.737,10.818,29.455c.887,2.453-.382,4.619-2.819,4.821q-14.38,1.2-28.593,2.441-14.176,1.221-28.2,2.445c-2.326.2-5.111-1.546-6.28-3.96q-7.154-14.749-14.51-29.461c-4.92-9.818-9.97-19.649-15.032-29.461a3.5,3.5,0,0,1-.232-3.317,3.1,3.1,0,0,1,2.739-1.627Zm62.326-2.055c-9.783.753-19.549,1.446-29.252,2.209s-19.33,1.5-28.923,2.255a3.093,3.093,0,0,0-2.739,1.627,3.542,3.542,0,0,0,.213,3.315q6.875,13.438,13.565,26.859,6.644,13.388,13.117,26.79a7,7,0,0,0,6.322,3.979q12.821-1.123,25.783-2.23c8.681-.745,17.389-1.463,26.125-2.216,2.435-.211,3.7-2.353,2.8-4.807-3.28-8.942-6.586-17.9-9.985-26.847s-6.9-17.892-10.417-26.853A6.963,6.963,0,0,0,128.884,160.523Z" transform="translate(-63.499 -157.671)" fill="#4e17e2" fill-rule="evenodd"/>
          <path id="Path_79019" data-name="Path 79019" d="M70.7,166.186c4.742,8.243,9.478,16.467,14.064,24.685s9.1,16.438,13.555,24.673q7.148-.488,14.325-1c-1.127-1.876-2.243-3.778-3.34-5.681,0,0,20.112,10.016,23.242-1.709s-18.389-38.993-37.57-21.56q-4.913-11.15-9.889-22.321s-11.143,1.285-14.385,2.917Zm30.658,27.984s8.579-8.973,15.276-1.586-2.2,10.676-7.262,8.881S101.362,194.169,101.362,194.169Z" transform="translate(-55.672 -151.59)" fill="#4e17e2" fill-rule="evenodd"/>
        </g>
        <g id="Group_40801" data-name="Group 40801" transform="translate(45.786 77.601)">
          <path id="Path_79020" data-name="Path 79020" d="M94.976,206.79s-27.114-12.232-33.673-2.8-1.12,16.7,4.894,26.288c6,9.564,11.007,16.874,22.4,21.061s24.856-2.762,23.035-4.642-7.3-7.5-11-11.266c0,0-11.861,12.708-23.239-6.372s9.374-16.411,17.329-6.618C94.763,217.214,94.861,212.01,94.976,206.79Z" transform="translate(-36.664 -188.837)" fill="#4e17e2" fill-rule="evenodd"/>
          <path id="Path_79021" data-name="Path 79021" d="M50.2,199.935q13.738-1.28,27.6-2.531,13.939-1.264,28.046-2.522c2.322-.2,5.207,1.617,6.39,4.1,4.7,9.858,9.413,19.724,13.953,29.557s8.994,19.672,13.377,29.5c1.1,2.47.261,4.648-1.836,4.861q-12.286,1.246-24.437,2.508c-8.059.837-16.1,1.675-24.064,2.508-1.986.209-4.65-1.542-6.019-3.968q-8.324-14.765-16.92-29.517c-5.735-9.843-11.612-19.709-17.525-29.536a4.2,4.2,0,0,1-.707-3.342,2.221,2.221,0,0,1,2.143-1.617Zm54.426-2.2q-12.731,1.152-25.372,2.3-12.59,1.155-25.05,2.312a2.217,2.217,0,0,0-2.164,1.615,4.278,4.278,0,0,0,.707,3.342q8.015,13.46,15.829,26.918,7.758,13.41,15.328,26.872c1.36,2.418,4.037,4.191,6.023,3.985q10.966-1.149,22.042-2.291c7.4-.768,14.842-1.488,22.361-2.278,2.084-.219,2.9-2.424,1.8-4.863q-6.077-13.444-12.32-26.893c-4.158-8.961-8.475-17.951-12.793-26.92C109.838,199.388,106.965,197.527,104.625,197.738Z" transform="translate(-47.938 -194.867)" fill="#4e17e2" fill-rule="evenodd"/>
        </g>
        <path id="Path_79022" data-name="Path 79022" d="M83.393,197.593c9.463-.839,18.992-1.7,28.551-2.524,9.612-.83,19.257-1.69,28.948-2.522a6.222,6.222,0,0,1,5.954,4.073c3.388,9.852,6.772,19.718,10.01,29.525s6.424,19.672,9.516,29.482c.778,2.476-.382,4.634-2.533,4.849-8.489.845-16.964,1.671-25.357,2.5-8.362.83-16.7,1.665-24.961,2.51-2.061.211-4.55-1.556-5.61-3.981-4.3-9.818-8.608-19.649-13.067-29.461s-9.061-19.663-13.657-29.5a3.958,3.958,0,0,1-.24-3.349A2.7,2.7,0,0,1,83.393,197.593Z" transform="translate(33.414 -119.803)" fill="#4e17e2" fill-rule="evenodd"/>
      </g>
    </g>
  </g>
</svg>
