<svg xmlns="http://www.w3.org/2000/svg" xmlns:xlink="http://www.w3.org/1999/xlink" width="953.939" height="853.091" viewBox="0 0 953.939 853.091">
  <defs>
    <linearGradient id="linear-gradient" x1="-26.748" y1="64.211" x2="-25.98" y2="64.211" gradientUnits="objectBoundingBox">
      <stop offset="0" stop-color="#eaebf0"/>
      <stop offset="0.997" stop-color="#d8d9de"/>
    </linearGradient>
    <linearGradient id="linear-gradient-2" x1="0.164" y1="0.251" x2="0.992" y2="0.862" gradientUnits="objectBoundingBox">
      <stop offset="0" stop-color="#eaebf0"/>
      <stop offset="0.158" stop-color="#dddee3"/>
      <stop offset="0.452" stop-color="#bbbcc0"/>
      <stop offset="0.845" stop-color="#868689"/>
      <stop offset="0.993" stop-color="#707073"/>
    </linearGradient>
    <linearGradient id="linear-gradient-3" x1="0.174" y1="0.258" x2="1.002" y2="0.869" xlink:href="#linear-gradient-2"/>
    <clipPath id="clip-path">
      <path id="SVGID" d="M403.987,234.489,366.633,223.86c-7.67-2.182-16.739,2.18-20.274,9.759l-19.622,42.063c-3.6,7.72-.254,15.821,7.493,18.077l37.737,10.987c7.807,2.273,17.011-2.212,20.539-10l19.217-42.44C415.184,244.657,411.712,236.689,403.987,234.489Z" transform="translate(-325.288 -223.298)" fill="none"/>
    </clipPath>
    <filter id="Union_30" x="225.699" y="202.961" width="64.168" height="61.987" filterUnits="userSpaceOnUse">
      <feOffset dy="3" input="SourceAlpha"/>
      <feGaussianBlur stdDeviation="3" result="blur"/>
      <feFlood flood-opacity="0.161"/>
      <feComposite operator="in" in2="blur"/>
      <feComposite in="SourceGraphic"/>
    </filter>
  </defs>
  <g id="Group_40692" data-name="Group 40692" transform="translate(-9474.618 -2132.274)">
    <path id="Path_78434" data-name="Path 78434" d="M474.821,672.3,258.848,606.189c-14.434-4.419-20.187-20.1-12.912-34.969L476.942,99.087c6.3-12.866,22.613-20.368,36.5-16.807l197.6,50.671c14.381,3.688,21.4,17.415,15.62,30.714L514.18,652.632C507.475,668.057,489.824,676.894,474.821,672.3Z" transform="translate(9667.67 2095.855)" fill="#28236e" opacity="0.14" style="mix-blend-mode: multiply;isolation: isolate"/>
    <g id="Group_40530" data-name="Group 40530" transform="translate(9894.734 2132.274)">
      <g id="Group_40529" data-name="Group 40529">
        <path id="Path_78435" data-name="Path 78435" d="M469.624,654.708,253.651,588.6c-14.436-4.419-20.187-20.1-12.914-34.969L471.742,81.493c6.3-12.866,22.613-20.368,36.5-16.807l197.674,43c27.158,6.742,21.324,25.083,15.545,38.383L508.98,635.04C502.276,650.466,484.626,659.3,469.624,654.708Z" transform="translate(-232.196 -53.787)" fill="#28236e"/>
        <path id="Path_78436" data-name="Path 78436" d="M466.91,649.668,250.937,583.556c-14.436-4.419-20.187-20.1-12.914-34.969L469.028,76.453c6.3-12.866,22.613-20.368,36.5-16.807l197.6,50.671c14.381,3.688,21.4,17.415,15.621,30.714L506.266,630C499.562,645.424,481.912,654.26,466.91,649.668Z" transform="translate(-234.875 -58.762)" fill="#332d81"/>
        <g id="Group_40528" data-name="Group 40528" transform="translate(14.059 8.478)">
          <g id="Group_40527" data-name="Group 40527">
            <path id="Path_78437" data-name="Path 78437" d="M667.935,133.406c-24.483-5.842-48.954-11.744-73.278-18.224q-36.7-9.782-72.875-21.51c-12.229-3.982-24.422-8.087-36.706-11.9-6.166-1.914-12.354-3.746-18.518-5.665q-1.148-.358-2.3-.7L244.873,525.549c-6.8,13.955-1.333,28.723,12.244,32.864L456.88,619.35c14.073,4.292,30.7-4.012,37-18.454l201.223-461Q681.524,136.64,667.935,133.406Z" transform="translate(-241.95 -50.811)" fill="#fff"/>
            <path id="Path_78438" data-name="Path 78438" d="M546.8,344.41l89.534-205.122c5.26-12.05-1.089-24.539-14.1-27.885l-34.893-8.97-4.193,9.331a10.322,10.322,0,0,1-11.621,5.453L471.38,91.32a6.6,6.6,0,0,1-4.529-9.548l4.362-9.188-34.043-8.751c-12.6-3.239-27.446,3.6-33.141,15.281L307.167,277.862Z" transform="translate(-177.574 -63.028)" fill="#4e17e2"/>
          </g>
        </g>
      </g>
    </g>
    <g id="Group_40534" data-name="Group 40534" transform="translate(10139.851 2167.593)">
      <g id="Group_40532" data-name="Group 40532" transform="translate(175.737 48.212)">
        <g id="Group_40531" data-name="Group 40531">
          <path id="Path_78439" data-name="Path 78439" d="M467.788,111.192l-.427-.111c-1.258-.328-1.266-1.9-.014-2.492l.427-.2a1.416,1.416,0,0,0,.817-1.846l-.674-1.347a1.488,1.488,0,0,0-1.993-.519l-.427.2c-1.252.59-2.512-.385-2-1.548l.175-.393a1.182,1.182,0,0,0-.831-1.669l-1.606-.417a1.756,1.756,0,0,0-1.987.936l-.175.4c-.515,1.16-2.289,1.347-2.812.3l-.177-.358a1.486,1.486,0,0,0-1.991-.517l-1.6.755a1.414,1.414,0,0,0-.821,1.842l.177.358c.521,1.051-.733,2.293-1.987,1.967l-.427-.111a1.758,1.758,0,0,0-1.989.938l-.664,1.488a1.182,1.182,0,0,0,.827,1.673l.427.111c1.254.328,1.256,1.9,0,2.492l-.427.2a1.425,1.425,0,0,0-.825,1.85l.668,1.353a1.485,1.485,0,0,0,1.995.523l.427-.2c1.254-.592,2.516.389,2,1.556l-.177.4a1.19,1.19,0,0,0,.829,1.681l1.612.421a1.764,1.764,0,0,0,2-.942l.175-.4c.519-1.166,2.3-1.355,2.824-.3l.177.36a1.49,1.49,0,0,0,2,.523l1.608-.761a1.423,1.423,0,0,0,.821-1.854l-.179-.36c-.525-1.057.729-2.3,1.987-1.975l.427.111a1.755,1.755,0,0,0,1.991-.94l.66-1.494A1.19,1.19,0,0,0,467.788,111.192Zm-11.644,3.157a3.171,3.171,0,0,1-2.218-4.481,4.7,4.7,0,0,1,5.319-2.51,3.173,3.173,0,0,1,2.224,4.477A4.7,4.7,0,0,1,456.144,114.35Z" transform="translate(-446.668 -100.798)" fill="#f2f4f3"/>
        </g>
      </g>
      <g id="Group_40533" data-name="Group 40533">
        <path id="Path_78440" data-name="Path 78440" d="M386.155,86.228l-24.448-6.355,1.614-3.337,24.435,6.345Z" transform="translate(-354.796 -76.536)" fill="#f2f4f3"/>
        <path id="Path_78441" data-name="Path 78441" d="M384.446,89.845l-24.475-6.379,1.619-3.346,24.462,6.368Z" transform="translate(-356.51 -72.997)" fill="#f2f4f3"/>
        <path id="Path_78442" data-name="Path 78442" d="M382.732,93.473l-24.5-6.4,1.623-3.355,24.49,6.391Z" transform="translate(-358.229 -69.449)" fill="#f2f4f3"/>
      </g>
    </g>
    <g id="Group_40537" data-name="Group 40537" transform="translate(10126.943 2211.605)">
      <path id="Path_78443" data-name="Path 78443" d="M519,178.487l-154.26-41.135c-11.15-2.975-16.068-13.9-11.022-24.366h0c5.027-10.426,18.057-16.487,29.143-13.57L536.2,139.767c11.388,3,16.835,14.073,12.127,24.771h0C543.606,175.282,530.455,181.543,519,178.487Z" transform="translate(-351.734 -98.685)" fill="#fff"/>
      <g id="Group_40535" data-name="Group 40535" transform="translate(160.234 46.496)">
        <path id="Path_78444" data-name="Path 78444" d="M462,139.656c-3.257,7.38-12.292,11.676-20.163,9.582s-11.553-9.761-8.264-17.111c3.281-7.33,12.272-11.587,20.1-9.522S465.247,132.3,462,139.656Z" transform="translate(-432.371 -122.084)" fill="#28236e"/>
        <path id="Path_78445" data-name="Path 78445" d="M448.986,139.864l-2.005-4.129a7.247,7.247,0,0,0,2.424-2.919,5.325,5.325,0,0,0-3.66-7.521,7.833,7.833,0,0,0-8.866,4.2,5.322,5.322,0,0,0,3.648,7.531,7.408,7.408,0,0,0,3.934-.072l2,4.107a1.113,1.113,0,0,0,.739.584,1.522,1.522,0,0,0,1.047-.109A1.3,1.3,0,0,0,448.986,139.864Zm-9.59-9.7a4.683,4.683,0,0,1,5.3-2.514,3.182,3.182,0,0,1,2.186,4.495,4.68,4.68,0,0,1-5.3,2.518A3.182,3.182,0,0,1,439.4,130.165Z" transform="translate(-428.44 -119.142)" fill="#fff"/>
      </g>
      <g id="Group_40536" data-name="Group 40536" transform="translate(22.653 16.965)">
        <path id="Path_78446" data-name="Path 78446" d="M363.134,112.5l.89-.817A3.353,3.353,0,0,0,365.956,113c1.073.284,1.7.044,1.928-.439.666-1.4-3.863-1.566-2.714-3.97.5-1.045,1.806-1.7,3.694-1.2a3.937,3.937,0,0,1,2.017,1.18l-.848.827a3.462,3.462,0,0,0-1.655-1.011c-1.061-.28-1.679-.006-1.914.485-.658,1.377,3.853,1.562,2.72,3.94-.495,1.037-1.814,1.689-3.7,1.188A3.94,3.94,0,0,1,363.134,112.5Z" transform="translate(-363.134 -107.222)" fill="#b3b3b3"/>
        <path id="Path_78447" data-name="Path 78447" d="M372.009,112.556l-4.125-1.095c-.2.763.223,1.395,1.139,1.639a2.35,2.35,0,0,0,1.683-.161l.322.888a3.308,3.308,0,0,1-2.5.246c-1.763-.469-2.4-1.836-1.7-3.309a3.38,3.38,0,0,1,3.917-1.81,2.147,2.147,0,0,1,1.445,3.261C372.148,112.309,372.07,112.446,372.009,112.556Zm-3.77-1.866,2.983.789a1.184,1.184,0,0,0-.914-1.6A1.889,1.889,0,0,0,368.239,110.69Z" transform="translate(-359.762 -105.623)" fill="#b3b3b3"/>
        <path id="Path_78448" data-name="Path 78448" d="M375.031,112.48l-1.377,2.905-1.162-.308.286-.6a2.34,2.34,0,0,1-1.973.229c-1.2-.318-1.667-1.141-1.258-2,.393-.825,1.292-1.317,2.887-.9l1.359.362.034-.074c.322-.678.078-1.19-.8-1.423a3.178,3.178,0,0,0-1.83.068l-.081-.97a4.449,4.449,0,0,1,2.516-.024C375.15,110.145,375.706,111.054,375.031,112.48Zm-1.876,1.027.272-.574-1.27-.336c-.839-.223-1.2.014-1.377.376-.2.417.05.787.68.954A1.721,1.721,0,0,0,373.155,113.508Z" transform="translate(-356.948 -104.902)" fill="#b3b3b3"/>
        <path id="Path_78449" data-name="Path 78449" d="M377.749,110.966l-.521,1.1a1.507,1.507,0,0,0-.272-.1,1.836,1.836,0,0,0-2.253,1.127l-1.137,2.4-1.232-.328,2.343-4.954,1.172.31-.342.723A2.6,2.6,0,0,1,377.749,110.966Z" transform="translate(-354.053 -104.268)" fill="#b3b3b3"/>
        <path id="Path_78450" data-name="Path 78450" d="M374.876,112.889a3.43,3.43,0,0,1,4.046-1.778,1.994,1.994,0,0,1,1.709,1.747l-1.194.268a1.247,1.247,0,0,0-.988-1.033,1.989,1.989,0,0,0-2.331,1.127,1.3,1.3,0,0,0,.868,1.975,1.906,1.906,0,0,0,1.635-.34l.705.771a3.061,3.061,0,0,1-2.8.564A2.24,2.24,0,0,1,374.876,112.889Z" transform="translate(-351.814 -103.51)" fill="#b3b3b3"/>
        <path id="Path_78451" data-name="Path 78451" d="M383.768,115.962l-1.337,2.846-1.238-.328,1.268-2.7c.415-.882.153-1.433-.638-1.641a1.788,1.788,0,0,0-2.176,1.1l-1.182,2.51-1.234-.328,3.247-6.889,1.232.326-1.178,2.506a2.9,2.9,0,0,1,2.055-.167C383.849,113.54,384.471,114.465,383.768,115.962Z" transform="translate(-349.22 -103.948)" fill="#b3b3b3"/>
      </g>
    </g>
    <g id="Group_40544" data-name="Group 40544" transform="translate(10084.965 2269.567)">
      <g id="Group_40540" data-name="Group 40540" transform="translate(19.47)">
        <g id="Group_40539" data-name="Group 40539">
          <g id="Group_40538" data-name="Group 40538">
            <path id="Path_78452" data-name="Path 78452" d="M367.754,144.234c-3.273,6.875-11.779,10.875-18.989,8.922s-10.349-9.1-7.048-15.946c3.289-6.832,11.758-10.8,18.931-8.868S371.016,137.378,367.754,144.234Z" transform="translate(-340.407 -127.854)" fill="#fff"/>
          </g>
        </g>
        <path id="Path_78453" data-name="Path 78453" d="M493.041,176.638,360.018,140.782l4.37-9.225,132.833,35.692Z" transform="translate(-321.049 -124.199)" fill="#fff"/>
        <path id="Path_78454" data-name="Path 78454" d="M489.883,184.219,356.562,148.1l4.394-9.277,133.13,35.951Z" transform="translate(-324.459 -117.024)" fill="#fff"/>
      </g>
      <g id="Group_40543" data-name="Group 40543" transform="translate(0 40.229)" opacity="0.23">
        <g id="Group_40542" data-name="Group 40542">
          <g id="Group_40541" data-name="Group 40541">
            <path id="Path_78455" data-name="Path 78455" d="M358.147,164.757c-3.322,6.981-11.909,11.036-19.162,9.043s-10.387-9.254-7.036-16.211c3.34-6.939,11.887-10.957,19.1-8.992S361.459,157.794,358.147,164.757Z" transform="translate(-330.608 -148.099)" fill="#fff"/>
          </g>
        </g>
        <path id="Path_78456" data-name="Path 78456" d="M484.213,197.834,350.358,161.246l4.438-9.369,133.663,36.418Z" transform="translate(-311.114 -144.371)" fill="#fff"/>
        <path id="Path_78457" data-name="Path 78457" d="M481.005,205.536,346.848,168.68l4.463-9.422,133.964,36.684Z" transform="translate(-314.578 -137.084)" fill="#fff"/>
      </g>
    </g>
    <g id="Group_40551" data-name="Group 40551" transform="translate(9994.231 2442.33)">
      <g id="Group_40547" data-name="Group 40547" transform="translate(26.582)" opacity="0.65" style="mix-blend-mode: multiply;isolation: isolate">
        <g id="Group_40546" data-name="Group 40546" opacity="0.3">
          <g id="Group_40545" data-name="Group 40545">
            <path id="Path_78458" data-name="Path 78458" d="M326.493,232.38c-3.493,7.34-12.338,11.581-19.734,9.455s-10.51-9.786-6.987-17.1c3.513-7.295,12.314-11.5,19.672-9.4S329.976,225.059,326.493,232.38Z" transform="translate(-298.324 -214.796)" fill="#a6a6a6"/>
          </g>
        </g>
        <path id="Path_78459" data-name="Path 78459" d="M455.106,267.723,318.529,228.676l4.667-9.851,136.378,38.863Z" transform="translate(-278.38 -210.82)" fill="#a6a6a6" opacity="0.3"/>
        <path id="Path_78460" data-name="Path 78460" d="M451.729,275.832,314.838,236.495l4.693-9.908,136.69,39.151Z" transform="translate(-282.023 -203.158)" fill="#a6a6a6" opacity="0.3"/>
        <path id="Path_78461" data-name="Path 78461" d="M392.365,265.334l15.849-7.738a2.161,2.161,0,0,0,1.194-2.716l-6.23-13.993a1.981,1.981,0,0,0-2.744-.783,2.433,2.433,0,0,0-1.166,1.188,1.85,1.85,0,0,0-.03,1.512l5.443,12.252-13.864,6.764a2.176,2.176,0,0,0-1.206,2.722A1.98,1.98,0,0,0,392.365,265.334Z" transform="translate(-208.36 -190.059)" fill="url(#linear-gradient)"/>
      </g>
      <g id="Group_40550" data-name="Group 40550" transform="translate(0 54.911)" opacity="0.65" style="mix-blend-mode: multiply;isolation: isolate">
        <g id="Group_40549" data-name="Group 40549" opacity="0.3">
          <g id="Group_40548" data-name="Group 40548">
            <path id="Path_78462" data-name="Path 78462" d="M313.377,260.405c-3.567,7.491-12.517,11.809-19.974,9.625s-10.555-10.011-6.961-17.474c3.585-7.446,12.491-11.722,19.911-9.57S316.932,252.932,313.377,260.405Z" transform="translate(-284.947 -242.43)" fill="#a6a6a6"/>
          </g>
        </g>
        <path id="Path_78463" data-name="Path 78463" d="M443.034,296.708l-137.7-40.088,4.763-10.054,137.492,39.9Z" transform="translate(-264.817 -238.348)" fill="#a6a6a6" opacity="0.3"/>
        <path id="Path_78464" data-name="Path 78464" d="M439.586,304.988,301.573,264.6l4.791-10.113,137.81,40.2Z" transform="translate(-268.535 -230.528)" fill="#a6a6a6" opacity="0.3"/>
      </g>
    </g>
    <g id="Group_40560" data-name="Group 40560" transform="translate(9942.13 2551.077)">
      <path id="Path_78465" data-name="Path 78465" d="M435.658,394.026,270.5,344.088c-10.48-3.169-14.75-14.454-9.576-25.174l16.936-35.074c5.089-10.544,17.6-16.582,27.966-13.52l163.417,48.256c10.675,3.152,15.479,14.466,10.7,25.306l-15.911,36.066C459.169,390.97,446.45,397.289,435.658,394.026Z" transform="translate(-258.727 -269.523)" fill="#dd00cd"/>
      <g id="Group_40553" data-name="Group 40553" transform="translate(162.772 74.428)">
        <g id="Group_40552" data-name="Group 40552">
          <path id="Path_78466" data-name="Path 78466" d="M374.832,329.093c-4.079,9.194-14.716,14.464-23.734,11.748s-12.944-12.348-8.821-21.5c4.109-9.121,14.685-14.333,23.646-11.662S378.9,319.931,374.832,329.093Z" transform="translate(-340.642 -306.979)" fill="#efff00"/>
        </g>
      </g>
      <g id="Group_40554" data-name="Group 40554" transform="translate(21.133 38.683)">
        <path id="Path_78467" data-name="Path 78467" d="M284.307,288.991l-1.142,7.844,7.379,2.209-8.087,2.65-1.147,7.882-3.853-6.243-8.095,2.653,5.719-6.5-3.837-6.217,7.365,2.205Z" transform="translate(-269.362 -288.991)" fill="#fff"/>
        <path id="Path_78468" data-name="Path 78468" d="M296.775,292.721l-1.107,7.872,7.41,2.219-8.1,2.658-1.113,7.91-3.894-6.266-8.1,2.661,5.7-6.525-3.877-6.24,7.4,2.214Z" transform="translate(-257.014 -285.308)" fill="#fff"/>
        <path id="Path_78469" data-name="Path 78469" d="M309.295,296.468l-1.072,7.9,7.441,2.228-8.106,2.666-1.077,7.938-3.935-6.289-8.113,2.668,5.687-6.547-3.918-6.263,7.426,2.224Z" transform="translate(-244.615 -281.61)" fill="#fff"/>
        <path id="Path_78470" data-name="Path 78470" d="M321.867,300.23l-1.037,7.927,7.472,2.237-8.115,2.674-1.042,7.966-3.976-6.312-8.123,2.676,5.671-6.569-3.959-6.286,7.457,2.233Z" transform="translate(-232.164 -277.896)" fill="#fff"/>
        <path id="Path_78471" data-name="Path 78471" d="M334.491,304.008l-1,7.955,7.5,2.247-8.124,2.682-1.006,7.994-4.017-6.335-8.132,2.684,5.655-6.592-4-6.309,7.488,2.242Z" transform="translate(-219.66 -274.167)" fill="#fff" opacity="0.27"/>
      </g>
      <g id="Group_40556" data-name="Group 40556" transform="translate(38.315 14.372)">
        <g id="Group_40555" data-name="Group 40555">
          <path id="Path_78472" data-name="Path 78472" d="M284.109,288.3l-.55-3.265-.111-.032-1.927-.574-1.3,2.714-2.214-.66,4.654-9.727,4.137,1.226c2.555.759,3.513,2.581,2.472,4.763a4.239,4.239,0,0,1-3.436,2.49l.654,3.771Zm1.693-8.521-1.8-.535-1.619,3.39,1.8.537a2.165,2.165,0,0,0,2.845-1.093C287.539,281.008,287.154,280.18,285.8,279.778Z" transform="translate(-278.009 -276.756)" fill="#fff"/>
          <path id="Path_78473" data-name="Path 78473" d="M291.363,284.261l-2.035,4.28-2-.594.445-.934a2.923,2.923,0,0,1-2.744.376c-1.727-.513-2.289-1.794-1.671-3.088.63-1.323,1.985-1.969,4.231-1.3l1.7.5c.443-.934.155-1.639-1-1.981a4.061,4.061,0,0,0-2.452.068l-.044-1.745a6.376,6.376,0,0,1,3.6.038C291.641,280.549,292.44,281.991,291.363,284.261Zm-3.046,1.274.366-.765-1.465-.435c-1-.3-1.494-.016-1.733.487-.258.543.02,1.039.773,1.264A1.98,1.98,0,0,0,288.316,285.534Z" transform="translate(-272.97 -273.947)" fill="#fff"/>
          <path id="Path_78474" data-name="Path 78474" d="M291.6,289.953a3.425,3.425,0,0,1-1.965-.044c-1.743-.519-2.329-1.729-1.48-3.513l1.461-3.08-1.137-.338.793-1.671,1.139.338.864-1.824,2.138.634-.864,1.826,1.836.545-.793,1.671-1.836-.544L290.3,287c-.3.642-.125,1.093.449,1.264a1.66,1.66,0,0,0,1-.022Z" transform="translate(-268.375 -273.731)" fill="#fff"/>
          <path id="Path_78475" data-name="Path 78475" d="M298.388,287.623l-5.588-1.659a1.727,1.727,0,0,0,1.4,2.136,2.936,2.936,0,0,0,2.2-.175l.546,1.6a4.559,4.559,0,0,1-3.622.308c-2.555-.759-3.442-2.887-2.385-5.119a4.882,4.882,0,0,1,5.765-2.693c2.168.644,3.146,2.617,2,5.031C298.626,287.218,298.487,287.446,298.388,287.623Zm-5.015-2.937,3.638,1.081a1.558,1.558,0,0,0-1.075-2.1A2.254,2.254,0,0,0,293.372,284.686Z" transform="translate(-265.68 -271.752)" fill="#fff"/>
          <path id="Path_78476" data-name="Path 78476" d="M300.819,292.706a3.438,3.438,0,0,1-1.969-.044c-1.749-.521-2.339-1.733-1.5-3.523l1.453-3.086-1.141-.34.789-1.675,1.141.338.862-1.828,2.144.638-.86,1.828,1.842.546-.789,1.677-1.842-.548-1.439,3.06c-.3.644-.123,1.1.453,1.268a1.668,1.668,0,0,0,1-.022Z" transform="translate(-259.288 -271.039)" fill="#fff"/>
          <path id="Path_78477" data-name="Path 78477" d="M309.03,291.117l-2.019,4.314-2.15-.64,1.864-3.976c.57-1.218.282-1.939-.668-2.222a2.229,2.229,0,0,0-2.726,1.5l-1.749,3.724-2.148-.638L304.3,282.8l2.146.638-1.7,3.63a3.8,3.8,0,0,1,2.77-.2C309.266,287.4,310.1,288.822,309.03,291.117Z" transform="translate(-256.861 -270.785)" fill="#fff"/>
          <path id="Path_78478" data-name="Path 78478" d="M308.546,284.922a1.577,1.577,0,0,1,1.9-.819,1.087,1.087,0,0,1,.789,1.57,1.587,1.587,0,0,1-1.925.86A1.108,1.108,0,0,1,308.546,284.922Zm-.8,2.343,2.15.638-3.521,7.535-2.152-.64Z" transform="translate(-252.13 -269.574)" fill="#fff"/>
          <path id="Path_78479" data-name="Path 78479" d="M306.119,292.654l1.451-1.355a4.476,4.476,0,0,0,2.239,1.494c1,.3,1.492.141,1.689-.28.574-1.234-4.5-1.306-3.092-4.318.666-1.427,2.4-2.057,4.57-1.415a5.439,5.439,0,0,1,2.547,1.5l-1.441,1.341a3.805,3.805,0,0,0-1.878-1.194c-.966-.288-1.524-.1-1.707.29-.6,1.288,4.467,1.373,3.082,4.348-.654,1.4-2.4,2.017-4.624,1.355A5.671,5.671,0,0,1,306.119,292.654Z" transform="translate(-250.262 -267.11)" fill="#fff"/>
          <path id="Path_78480" data-name="Path 78480" d="M320.035,296l-4.495-1.335-1.834,1.852-2.3-.684,8.868-8.539,2.21.656-.219,11.114-2.353-.7Zm.1-1.937.209-4.217-3.279,3.3Z" transform="translate(-245.038 -266.358)" fill="#fff"/>
          <path id="Path_78481" data-name="Path 78481" d="M327.8,295.727a4.646,4.646,0,0,1-5.512,2.794,2.525,2.525,0,0,1-1.822-1.582l-1.633,3.533-2.162-.644,4.757-10.291,2.063.612-.4.87a3.4,3.4,0,0,1,2.792-.288C327.976,291.351,328.9,293.35,327.8,295.727Zm-2.19-.652c.6-1.307.147-2.337-.932-2.657a2.421,2.421,0,0,0-2.865,1.53c-.6,1.306-.149,2.337.932,2.659A2.419,2.419,0,0,0,325.613,295.075Z" transform="translate(-239.844 -264.14)" fill="#fff"/>
          <path id="Path_78482" data-name="Path 78482" d="M332.622,297.162a4.642,4.642,0,0,1-5.512,2.8,2.539,2.539,0,0,1-1.828-1.586l-1.625,3.539-2.168-.644,4.743-10.305,2.067.612-.4.872a3.409,3.409,0,0,1,2.8-.288C332.787,292.782,333.713,294.783,332.622,297.162Zm-2.194-.652c.6-1.309.145-2.341-.936-2.661a2.416,2.416,0,0,0-2.865,1.532c-.6,1.308-.145,2.341.938,2.663A2.415,2.415,0,0,0,330.428,296.51Z" transform="translate(-235.091 -262.731)" fill="#fff"/>
        </g>
      </g>
      <g id="Group_40559" data-name="Group 40559" transform="translate(170.208 85.782)">
        <g id="Group_40557" data-name="Group 40557">
          <path id="Path_78483" data-name="Path 78483" d="M352.032,320.514l-1.192-.358-.7,1.568-2.214-.664.7-1.568-4.24-1.272.676-1.506,5.886-4.022,2.349.7-5.407,3.8,1.627.489.624-1.391,2.144.642-.622,1.391,1.192.358Z" transform="translate(-344.384 -312.693)"/>
          <path id="Path_78484" data-name="Path 78484" d="M348.525,317.386a1.569,1.569,0,0,1,1.894-.918,1.153,1.153,0,0,1,.725,1.7,1.6,1.6,0,0,1-1.9.93A1.179,1.179,0,0,1,348.525,317.386Z" transform="translate(-340.432 -309.032)"/>
          <path id="Path_78485" data-name="Path 78485" d="M350.98,317.6c1.2-2.7,3.39-3.807,5.445-3.193s2.844,2.613,1.641,5.315-3.394,3.815-5.439,3.2S349.772,320.3,350.98,317.6Zm4.8,1.437c.767-1.719.525-2.522-.2-2.736s-1.55.264-2.317,1.983-.525,2.522.211,2.742S355.012,320.753,355.779,319.032Z" transform="translate(-338.434 -311.169)"/>
        </g>
      </g>
    </g>
    <path id="Path_78490" data-name="Path 78490" d="M324.95,119.882l-15.609-3.661,4.919-10,15.609,3.661Z" transform="translate(9733.364 2120.363)" fill="#0bf"/>
    <path id="Path_78491" data-name="Path 78491" d="M320.911,128.09,305.3,124.429l4.919-10,15.609,3.661Z" transform="translate(9729.377 2128.465)" fill="#4e17e2"/>
    <path id="Path_78492" data-name="Path 78492" d="M316.872,136.3l-15.609-3.661,4.919-10,15.609,3.661Z" transform="translate(9725.39 2136.567)" fill="#03a71e"/>
    <path id="Path_78493" data-name="Path 78493" d="M312.833,144.506l-15.609-3.661,4.919-10,15.609,3.661Z" transform="translate(9721.403 2144.669)" fill="#e21717"/>
    <path id="Path_78494" data-name="Path 78494" d="M308.794,152.714l-15.609-3.661,4.919-10,15.609,3.661Z" transform="translate(9717.416 2152.771)" fill="#dd00cd"/>
    <path id="Path_78495" data-name="Path 78495" d="M304.755,160.922l-15.609-3.661,4.919-10,15.609,3.661Z" transform="translate(9713.43 2160.874)" fill="#28236e"/>
    <path id="Path_78496" data-name="Path 78496" d="M313.852,156.345l-44.8,93.1a9.5,9.5,0,0,0,5.653,13.182l35.257,11.126" transform="translate(9692.656 2169.836)" fill="none" stroke="#000" stroke-linecap="round" stroke-linejoin="round" stroke-width="0.901"/>
    <path id="Path_78497" data-name="Path 78497" d="M374.041,104.868l-35.555-9.447a14.792,14.792,0,0,0-17.119,7.859l-5.117,11.11" transform="translate(9740.184 2109.207)" fill="none" stroke="#000" stroke-linecap="round" stroke-linejoin="round" stroke-width="0.901"/>
    <path id="Path_78498" data-name="Path 78498" d="M308.609,224.693A14.708,14.708,0,0,1,291.584,233a10.769,10.769,0,0,1-7.153-15.009,14.72,14.72,0,0,1,16.976-8.26A10.767,10.767,0,0,1,308.609,224.693Z" transform="translate(9707.813 2222.071)" fill="#03a71e"/>
    <path id="Path_78499" data-name="Path 78499" d="M301.968,221.356a9.453,9.453,0,0,1-10.941,5.339,6.92,6.92,0,0,1-4.6-9.643,9.46,9.46,0,0,1,10.909-5.308A6.919,6.919,0,0,1,301.968,221.356Z" transform="translate(9710.13 2224.222)" fill="#fff"/>
    <path id="Path_78500" data-name="Path 78500" d="M364.944,110.025a14.709,14.709,0,0,1-17.027,8.31,10.767,10.767,0,0,1-7.154-15.007,14.717,14.717,0,0,1,16.976-8.26A10.766,10.766,0,0,1,364.944,110.025Z" transform="translate(9763.419 2108.885)" fill="#03a71e"/>
    <path id="Path_78501" data-name="Path 78501" d="M358.3,106.689a9.449,9.449,0,0,1-10.941,5.339,6.918,6.918,0,0,1-4.6-9.643,9.458,9.458,0,0,1,10.907-5.308A6.917,6.917,0,0,1,358.3,106.689Z" transform="translate(9765.736 2111.035)" fill="#fff"/>
    <path id="Path_78502" data-name="Path 78502" d="M446.526,159.24l53.983,14.534c9.6,2.585,14.712,13.053,10.844,20.022L469.127,293.812" transform="translate(9868.778 2172.694)" fill="none" stroke="#000" stroke-width="0.901"/>
    <g id="Group_40565" data-name="Group 40565" transform="translate(10298.274 2320.389)">
      <path id="Path_78503" data-name="Path 78503" d="M463.109,168.86a14.708,14.708,0,0,1-17.025,8.31,10.769,10.769,0,0,1-7.154-15.008,14.72,14.72,0,0,1,16.976-8.26A10.767,10.767,0,0,1,463.109,168.86Z" transform="translate(-437.956 -153.43)" fill="#03a71e"/>
      <path id="Path_78504" data-name="Path 78504" d="M456.468,165.524a9.453,9.453,0,0,1-10.941,5.339,6.921,6.921,0,0,1-4.6-9.643,9.459,9.459,0,0,1,10.909-5.31A6.922,6.922,0,0,1,456.468,165.524Z" transform="translate(-435.638 -151.28)" fill="#fff"/>
    </g>
    <path id="Path_78505" data-name="Path 78505" d="M616.957,243.461a9.948,9.948,0,0,0-6.6-13.087L401.45,171.229c-12.582-3.458-27.362,3.565-33.061,15.728L349.4,227.491c-5.812,12.407-.232,25.425,12.509,26.836l204.5,57.105a25.25,25.25,0,0,0,30.3-15.09C603.353,279.422,612.033,256.5,616.957,243.461Z" transform="translate(9770.638 2183.658)" fill="url(#linear-gradient-2)" style="mix-blend-mode: multiply;isolation: isolate"/>
    <path id="Path_78506" data-name="Path 78506" d="M563.065,308.8l-201.43-56.97c-12.743-3.6-18.323-16.622-12.511-29.029l18.989-40.535c5.7-12.165,20.479-19.185,33.061-15.728L600,221.188c13.027,3.579,19.378,16.634,14.14,29.206l-17.457,41.9C591.337,305.121,576.265,312.532,563.065,308.8Z" transform="translate(9770.365 2179.026)" fill="#fff"/>
    <path id="Path_78507" data-name="Path 78507" d="M488.887,215.7a16.616,16.616,0,0,1-19.231,9.387,12.162,12.162,0,0,1-8.08-16.952,16.625,16.625,0,0,1,19.173-9.331A12.163,12.163,0,0,1,488.887,215.7Z" transform="translate(9882.548 2211.226)" fill="#03a71e"/>
    <path id="Path_78508" data-name="Path 78508" d="M480.907,235.084a16.723,16.723,0,0,1-19.39,9.506c-7.6-2.14-11.205-9.852-8.08-17.21a16.733,16.733,0,0,1,19.332-9.447C480.345,220.048,484,227.72,480.907,235.084Z" transform="translate(9874.491 2230.092)" fill="#4e17e2"/>
    <g id="Group_40568" data-name="Group 40568" transform="translate(10230.308 2376.82)">
      <g id="Group_40567" data-name="Group 40567">
        <path id="Path_78509" data-name="Path 78509" d="M407.522,189.6l-1.5,3.352-2.267-.628,1.516-3.378-1.063-7.114,2.4.664.733,4.914,4.5-3.469,2.221.612Z" transform="translate(-403.751 -181.829)"/>
        <path id="Path_78510" data-name="Path 78510" d="M407.508,187.427a4.852,4.852,0,0,1,5.816-2.6c2.395.662,3.438,2.7,2.462,4.884a4.834,4.834,0,0,1-5.808,2.605C407.582,191.658,406.527,189.617,407.508,187.427Zm6.067,1.677a1.675,1.675,0,0,0-1.023-2.543,2.391,2.391,0,0,0-2.832,1.478,1.683,1.683,0,0,0,1.033,2.549A2.379,2.379,0,0,0,413.575,189.1Z" transform="translate(-400.403 -179.056)"/>
        <path id="Path_78511" data-name="Path 78511" d="M421.783,187.672l-3.235,7.287-2.077-.576.385-.866a3.687,3.687,0,0,1-2.78.326c-1.9-.525-2.77-1.924-1.768-4.171l1.832-4.109,2.188.6-1.691,3.8c-.543,1.216-.223,1.914.745,2.182A2.151,2.151,0,0,0,418,190.667l1.6-3.6Z" transform="translate(-395.718 -178.144)"/>
        <path id="Path_78512" data-name="Path 78512" d="M424.236,188.1l-.862,1.949c-.175-.066-.31-.115-.479-.163a2.293,2.293,0,0,0-2.909,1.476L418.46,194.8l-2.192-.608,3.233-7.287,2.09.578-.425.96A3.67,3.67,0,0,1,424.236,188.1Z" transform="translate(-391.396 -176.816)"/>
      </g>
    </g>
    <g id="Group_40688" data-name="Group 40688" transform="translate(10220.412 2393.822)">
      <g id="Group_40567-2" data-name="Group 40567" transform="translate(0 0)">
        <path id="Path_78513" data-name="Path 78513" d="M432.613,193.021c-.932,2.118-3.159,2.979-5.792,2.249l-1.985-.548-1.154,2.621-2.281-.632,4.189-9.49,4.26,1.176C432.48,189.125,433.549,190.893,432.613,193.021Zm-2.309-.638c.459-1.043.026-1.848-1.367-2.233l-1.858-.513-1.453,3.295,1.858.513C428.877,193.83,429.851,193.415,430.3,192.383Z" transform="translate(-421.4 -187.221)"/>
        <path id="Path_78514" data-name="Path 78514" d="M434.4,190.908l-.856,1.955c-.177-.066-.31-.117-.481-.163a2.288,2.288,0,0,0-2.909,1.478l-1.516,3.454-2.2-.61,3.211-7.307,2.1.58-.423.964A3.667,3.667,0,0,1,434.4,190.908Z" transform="translate(-416.423 -184.758)"/>
        <path id="Path_78515" data-name="Path 78515" d="M430.135,193.7a4.832,4.832,0,0,1,5.826-2.607c2.41.666,3.479,2.712,2.518,4.916a4.814,4.814,0,0,1-5.814,2.617C430.248,197.952,429.169,195.9,430.135,193.7Zm6.112,1.691a1.7,1.7,0,0,0-1.047-2.559,2.382,2.382,0,0,0-2.836,1.484,1.709,1.709,0,0,0,1.063,2.567A2.37,2.37,0,0,0,436.247,195.387Z" transform="translate(-413.125 -183.597)"/>
        <path id="Path_78516" data-name="Path 78516" d="M445.9,191.811l-4.389,10.1-2.11-.584.368-.845a3.491,3.491,0,0,1-2.792.3c-2.148-.594-3.159-2.524-2.156-4.825a4.556,4.556,0,0,1,5.441-2.716,2.622,2.622,0,0,1,1.892,1.51L443.7,191.2Zm-4.96,5.838a1.708,1.708,0,0,0-1.055-2.563,2.375,2.375,0,0,0-2.832,1.488,1.712,1.712,0,0,0,1.065,2.569A2.379,2.379,0,0,0,440.943,197.649Z" transform="translate(-408.535 -183.29)"/>
        <path id="Path_78517" data-name="Path 78517" d="M449.408,195.314l-3.175,7.338-2.1-.582.38-.872a3.682,3.682,0,0,1-2.792.328c-1.912-.531-2.806-1.939-1.824-4.2l1.8-4.141,2.206.61-1.661,3.829c-.531,1.226-.2,1.927.775,2.2a2.138,2.138,0,0,0,2.615-1.49l1.57-3.624Z" transform="translate(-403.538 -181.337)"/>
        <path id="Path_78518" data-name="Path 78518" d="M444.607,197.7a4.837,4.837,0,0,1,5.882-2.6,3.1,3.1,0,0,1,2.611,2.814l-2.1.411a1.675,1.675,0,0,0-1.282-1.484,2.392,2.392,0,0,0-2.873,1.48,1.737,1.737,0,0,0,1.119,2.589,2.293,2.293,0,0,0,2.154-.537l1.327,1.377a4.3,4.3,0,0,1-4.221.912C444.744,201.975,443.649,199.914,444.607,197.7Z" transform="translate(-398.832 -179.646)"/>
        <path id="Path_78519" data-name="Path 78519" d="M452.759,204.848a3.612,3.612,0,0,1-2-.032c-1.8-.5-2.472-1.681-1.719-3.432l1.3-3.018-1.176-.324.7-1.637,1.176.326.769-1.788,2.212.61-.767,1.788,1.9.527-.7,1.637-1.906-.527-1.286,2.993c-.27.628-.062,1.069.536,1.234a1.72,1.72,0,0,0,1.011-.026Z" transform="translate(-394.422 -179.6)"/>
      </g>
    </g>
    <g id="Group_40574" data-name="Group 40574" transform="translate(10110.661 2353.83)">
      <g id="Group_40687" data-name="Group 40687" transform="translate(0)">
        <path id="Path_78528" data-name="Path 78528" d="M428.9,180.943l-36.825-10.152c-7.563-2.084-16.445,2.142-19.857,9.455l-18.933,40.586c-3.473,7.448-.111,15.243,7.527,17.4l37.2,10.49c7.7,2.17,16.706-2.174,20.107-9.687l18.538-40.94C440,190.714,436.515,183.044,428.9,180.943Z" transform="translate(-335.273 -170.259)" fill="#28236e"/>
        <g id="Group_40572" data-name="Group 40572" transform="translate(0 11.25)">
          <path id="Path_78529" data-name="Path 78529" d="M347.678,206.725l28.149-13.272c2.623-1.236,5.528-.36,6.428,1.941l4.942,12.63,27.545-17.518c2.854-1.816,6.45-.99,7.473,1.719l18.365,48.566-97.042-27.374Z" transform="translate(-343.539 -162.48)" fill="#fff"/>
          <path id="Path_78530" data-name="Path 78530" d="M379.654,185.559a9.629,9.629,0,0,1-10.885,5.2c-4.147-1.152-5.993-5.347-4.125-9.361a9.632,9.632,0,0,1,10.865-5.182C379.652,177.36,381.508,181.541,379.654,185.559Z" transform="translate(-323.427 -175.921)" fill="#fff"/>
        </g>
      </g>
    </g>
    <g id="Group_40575" data-name="Group 40575" transform="translate(10351.112 2417.039)">
      <path id="Path_78531" data-name="Path 78531" d="M476.449,211.188l-4.354-1.206-1.729,4.1-3.227-.9,1.731-4.1-4.324-1.2,1.242-2.933,4.322,1.2,1.725-4.083,3.221.89-1.723,4.085,4.352,1.206Z" transform="translate(-464.546 -202.069)" fill="#fff"/>
    </g>
    <g id="Group_40576" data-name="Group 40576" transform="translate(10335.629 2457.75)">
      <path id="Path_78532" data-name="Path 78532" d="M458.628,222.557l10.339,2.9-1.868,4.435-10.345-2.905Z" transform="translate(-456.754 -222.557)" fill="#fff"/>
    </g>
    <path id="Path_78551" data-name="Path 78551" d="M373.963,370.164l109.9,32.771c8.018,2.4,16.554-1.623,19.809-11.527l33.377-84.37a11.988,11.988,0,0,0-7.458-15.831c-18.242-5.884-50.317-16.479-50.317-16.479" transform="translate(9797.152 2286.691)" fill="none" stroke="#000" stroke-width="0.901"/>
    <g id="Group_40581" data-name="Group 40581" transform="translate(10156.856 2643.263)">
      <path id="Path_78552" data-name="Path 78552" d="M391.941,331.346a14.709,14.709,0,0,1-17.025,8.31,10.768,10.768,0,0,1-7.153-15.009,14.72,14.72,0,0,1,16.976-8.26A10.767,10.767,0,0,1,391.941,331.346Z" transform="translate(-366.787 -315.916)" fill="#03a71e"/>
      <path id="Path_78553" data-name="Path 78553" d="M385.3,328.008a9.452,9.452,0,0,1-10.941,5.341,6.921,6.921,0,0,1-4.6-9.645A9.46,9.46,0,0,1,380.67,318.4,6.92,6.92,0,0,1,385.3,328.008Z" transform="translate(-364.47 -313.766)" fill="#fff"/>
    </g>
    <path id="Path_78554" data-name="Path 78554" d="M593.048,301.139a9.949,9.949,0,0,0-6.6-13.087L377.54,228.906c-12.58-3.458-27.36,3.563-33.059,15.728l-18.989,40.535C319.68,297.576,325.26,310.593,338,312l204.5,57.105a25.251,25.251,0,0,0,30.3-15.092C579.445,337.1,588.122,314.18,593.048,301.139Z" transform="translate(9747.037 2240.591)" fill="url(#linear-gradient-3)" style="mix-blend-mode: multiply;isolation: isolate"/>
    <g id="Group_40606" data-name="Group 40606" transform="translate(10064.1 2449.737)">
      <path id="Path_78555" data-name="Path 78555" d="M539.386,367.546,334.992,307.858c-12.926-3.773-18.478-17.3-12.453-30.162l19.678-42.011c5.906-12.6,21-19.849,33.757-16.229l201.716,57.228c13.22,3.75,19.573,17.317,14.142,30.355l-18.106,43.456C568.181,363.8,552.783,371.459,539.386,367.546Z" transform="translate(-320.107 -218.524)" fill="#4e17e2"/>
      <g id="Group_40602" data-name="Group 40602" transform="translate(114.841 33.588)">
        <g id="Group_40590" data-name="Group 40590" transform="translate(0 0)">
          <g id="Group_40583" data-name="Group 40583">
            <path id="Path_78556" data-name="Path 78556" d="M379.121,235.427l-.829,1.843,3.176.906-3.568,7.946,2.3.658,3.565-7.948,3.176.906.826-1.845Z" transform="translate(-377.901 -235.427)" fill="#fff"/>
          </g>
          <g id="Group_40585" data-name="Group 40585" transform="translate(7.652 3.722)">
            <g id="Group_40584" data-name="Group 40584">
              <path id="Path_78557" data-name="Path 78557" d="M382.249,241.071a6.45,6.45,0,0,1,7.7-3.513,4.6,4.6,0,0,1,3.185,6.621,6.451,6.451,0,0,1-7.714,3.521A4.6,4.6,0,0,1,382.249,241.071Zm8.552,2.442a2.723,2.723,0,0,0-1.713-4.024,3.808,3.808,0,0,0-4.511,2.247,2.725,2.725,0,0,0,1.709,4.028A3.809,3.809,0,0,0,390.8,243.513Z" transform="translate(-381.752 -237.3)" fill="#fff"/>
            </g>
          </g>
          <g id="Group_40587" data-name="Group 40587" transform="translate(20.511 5.834)">
            <g id="Group_40586" data-name="Group 40586">
              <path id="Path_78558" data-name="Path 78558" d="M391.766,241.121l-3.183-.91.823-1.848,8.678,2.474-.821,1.85-3.189-.91-3.541,7.972-2.309-.662Z" transform="translate(-388.223 -238.363)" fill="#fff"/>
            </g>
          </g>
          <g id="Group_40589" data-name="Group 40589" transform="translate(25.447 9.412)">
            <g id="Group_40588" data-name="Group 40588">
              <path id="Path_78559" data-name="Path 78559" d="M399.526,248.865l-4.636-1.323-1.818,1.856-2.365-.678,8.8-8.556,2.281.65.119,11.11-2.426-.693Zm.038-1.937.083-4.213-3.249,3.309Z" transform="translate(-390.707 -240.164)" fill="#fff"/>
            </g>
          </g>
        </g>
        <g id="Group_40601" data-name="Group 40601">
          <g id="Group_40591" data-name="Group 40591">
            <path id="Path_78560" data-name="Path 78560" d="M379.121,235.427l-.829,1.843,3.176.906-3.568,7.946,2.3.658,3.565-7.948,3.176.906.826-1.845Z" transform="translate(-377.901 -235.427)" fill="#fff"/>
            <path id="Path_78561" data-name="Path 78561" d="M379.121,235.427l-.829,1.843,3.176.906-3.568,7.946,2.3.658,3.565-7.948,3.176.906.826-1.845-8.649-2.465Z" transform="translate(-377.901 -235.427)" fill="#fff"/>
          </g>
          <g id="Group_40594" data-name="Group 40594" transform="translate(7.652 3.722)">
            <g id="Group_40592" data-name="Group 40592">
              <path id="Path_78562" data-name="Path 78562" d="M382.249,241.071a6.45,6.45,0,0,1,7.7-3.513,4.6,4.6,0,0,1,3.185,6.621,6.451,6.451,0,0,1-7.714,3.521A4.6,4.6,0,0,1,382.249,241.071Zm8.552,2.442a2.723,2.723,0,0,0-1.713-4.024,3.808,3.808,0,0,0-4.511,2.247,2.725,2.725,0,0,0,1.709,4.028A3.809,3.809,0,0,0,390.8,243.513Z" transform="translate(-381.752 -237.3)" fill="#fff"/>
            </g>
            <g id="Group_40593" data-name="Group 40593" transform="translate(0 0.001)">
              <path id="Path_78563" data-name="Path 78563" d="M388.121,237.3a6.4,6.4,0,0,0-5.872,3.77,4.6,4.6,0,0,0,3.173,6.629,6.685,6.685,0,0,0,1.838.258,6.4,6.4,0,0,0,5.876-3.779,4.6,4.6,0,0,0-3.185-6.621,6.636,6.636,0,0,0-1.83-.256Zm-.835,8.6a3.691,3.691,0,0,1-1-.141,2.726,2.726,0,0,1-1.709-4.03,3.879,3.879,0,0,1,3.515-2.387,3.577,3.577,0,0,1,1,.141,2.723,2.723,0,0,1,1.713,4.024,3.878,3.878,0,0,1-3.515,2.392Z" transform="translate(-381.752 -237.301)" fill="#fff"/>
            </g>
          </g>
          <g id="Group_40596" data-name="Group 40596" transform="translate(20.511 5.834)">
            <g id="Group_40595" data-name="Group 40595" transform="translate(0)">
              <path id="Path_78564" data-name="Path 78564" d="M391.766,241.121l-3.183-.91.823-1.848,8.678,2.474-.821,1.85-3.189-.91-3.541,7.972-2.309-.662Z" transform="translate(-388.223 -238.363)" fill="#fff"/>
            </g>
            <path id="Path_78565" data-name="Path 78565" d="M389.405,238.363l-.823,1.848,3.184.908-3.543,7.968,2.309.661,3.541-7.971,3.19.91.821-1.85-8.678-2.473Z" transform="translate(-388.223 -238.363)" fill="#fff"/>
          </g>
          <g id="Group_40599" data-name="Group 40599" transform="translate(25.447 9.413)">
            <g id="Group_40597" data-name="Group 40597">
              <path id="Path_78566" data-name="Path 78566" d="M399.526,248.865l-4.636-1.323-1.818,1.856-2.365-.678,8.8-8.556,2.281.65.119,11.11-2.426-.693Zm.038-1.937.083-4.213-3.249,3.309Z" transform="translate(-390.707 -240.164)" fill="#fff"/>
            </g>
            <g id="Group_40598" data-name="Group 40598">
              <path id="Path_78567" data-name="Path 78567" d="M399.506,240.164l-8.8,8.556,2.365.678,1.818-1.856,4.636,1.323-.046,2.365,2.426.693-.119-11.11-2.281-.65Zm.141,2.551-.083,4.213-3.165-.9,3.249-3.309Z" transform="translate(-390.707 -240.164)" fill="#fff"/>
            </g>
          </g>
          <g id="Group_40600" data-name="Group 40600" transform="translate(37.693 11.631)">
            <path id="Path_78568" data-name="Path 78568" d="M400,249.923l3.518-7.983-2.312-.659-4.341,9.84,7.334,2.1.818-1.86Z" transform="translate(-396.87 -241.281)" fill="#fff"/>
            <path id="Path_78569" data-name="Path 78569" d="M401.21,241.281l-4.341,9.84,7.334,2.1.818-1.86L400,249.923l3.518-7.983-2.312-.659Z" transform="translate(-396.87 -241.281)" fill="#fff"/>
          </g>
        </g>
      </g>
      <g id="Group_40603" data-name="Group 40603" transform="translate(97.422 58.166)">
        <path id="Path_78570" data-name="Path 78570" d="M376.936,268.825l-1.236,2.762-2.482-.717,1.2-2.687a10.5,10.5,0,0,1-5.288-3.748l2.71-2.607a8.855,8.855,0,0,0,4.022,3.13l1.84-4.1c-2.452-1.453-5.113-3.245-3.537-6.75,1.166-2.6,4.072-4.274,8.175-3.595l1.216-2.714,2.474.709-1.194,2.667a10.073,10.073,0,0,1,4.36,2.937l-2.585,2.659a9.038,9.038,0,0,0-3.221-2.363l-1.868,4.167c2.466,1.429,5.085,3.209,3.537,6.677C383.919,267.81,381.044,269.483,376.936,268.825Zm2.388-11.579,1.56-3.479a2.461,2.461,0,0,0-2.643,1.286C377.856,255.911,378.391,256.591,379.325,257.247Zm1.612,7.148c.385-.862-.123-1.536-1.025-2.212l-1.52,3.394A2.347,2.347,0,0,0,380.936,264.394Z" transform="translate(-369.135 -247.796)" fill="#fff"/>
        <path id="Path_78571" data-name="Path 78571" d="M394.329,262.329c-2.645,5.965-7.732,8.256-13.007,6.734a8.521,8.521,0,0,1-4.292-2.573l2.8-2.5a5.123,5.123,0,0,0,2.871,1.8c2.881.831,5.528-.326,7.13-3.615a6.906,6.906,0,0,1-5.013.308c-3.352-.966-5.039-3.839-3.593-7.082,1.566-3.507,5.451-4.878,9.119-3.827C395.157,252.952,396.795,256.77,394.329,262.329Zm-3.167-4.294c.656-1.474.018-2.877-1.892-3.426a3.231,3.231,0,0,0-4.04,1.721c-.7,1.572.016,2.915,1.8,3.43A3.355,3.355,0,0,0,391.161,258.035Z" transform="translate(-361.343 -244.41)" fill="#fff"/>
        <path id="Path_78572" data-name="Path 78572" d="M402.32,264.638c-2.631,5.977-7.722,8.274-13.009,6.748A8.555,8.555,0,0,1,385,268.805L387.8,266.3a5.149,5.149,0,0,0,2.883,1.8c2.889.835,5.536-.324,7.13-3.62a6.911,6.911,0,0,1-5.019.306c-3.364-.968-5.061-3.847-3.62-7.1,1.556-3.515,5.445-4.89,9.121-3.835C403.119,255.241,404.771,259.068,402.32,264.638Zm-3.187-4.3c.652-1.476.01-2.883-1.908-3.434a3.225,3.225,0,0,0-4.04,1.725c-.7,1.576.026,2.921,1.818,3.438A3.352,3.352,0,0,0,399.133,260.334Z" transform="translate(-353.472 -242.156)" fill="#fff"/>
        <path id="Path_78573" data-name="Path 78573" d="M410.327,266.953c-2.617,5.989-7.708,8.29-13.008,6.762A8.6,8.6,0,0,1,393,271.128l2.792-2.514a5.166,5.166,0,0,0,2.889,1.808c2.9.837,5.546-.324,7.132-3.628a6.925,6.925,0,0,1-5.029.308c-3.368-.97-5.077-3.855-3.646-7.112,1.55-3.523,5.437-4.9,9.127-3.843C411.1,257.534,412.768,261.369,410.327,266.953Zm-3.205-4.314c.65-1.48,0-2.889-1.918-3.44a3.221,3.221,0,0,0-4.044,1.725c-.694,1.58.034,2.929,1.832,3.446A3.342,3.342,0,0,0,407.122,262.639Z" transform="translate(-345.58 -239.897)" fill="#fff"/>
      </g>
      <g id="Group_40605" data-name="Group 40605" transform="translate(10.295 9.487)">
        <g id="Group_40604" data-name="Group 40604" clip-path="url(#clip-path)">
          <path id="Path_78574" data-name="Path 78574" d="M403.987,234.489,366.633,223.86c-7.67-2.182-16.739,2.18-20.274,9.759l-19.622,42.063c-3.6,7.72-.254,15.821,7.493,18.077l37.737,10.987c7.807,2.273,17.011-2.212,20.539-10l19.217-42.44C415.184,244.657,411.712,236.689,403.987,234.489Z" transform="translate(-325.288 -223.298)" fill="#fff"/>
        </g>
      </g>
    </g>
    <path id="Path_78575" data-name="Path 78575" d="M444.048,319.844,378.142,300.5c-8.165-2.4-11.817-10.963-8.177-19.116h0c3.628-8.127,13.143-12.787,21.272-10.422l65.624,19.076c8.229,2.391,12.066,10.991,8.55,19.223h0C461.886,317.525,452.312,322.268,444.048,319.844Z" transform="translate(9791.815 2282.371)" fill="#03a71e"/>
    <g id="Group_40607" data-name="Group 40607" transform="translate(10179.582 2565.306)">
      <path id="Path_78576" data-name="Path 78576" d="M388.725,285.318c-.662,1.5-2.235,2.025-4.521,1.355l-4.493-1.311,3.833-8.678,4.238,1.236c2.17.634,2.885,1.864,2.291,3.213a2.678,2.678,0,0,1-1.993,1.574A1.991,1.991,0,0,1,388.725,285.318Zm-3.849-6.54-.9,2.043,1.995.582c.98.286,1.663.1,1.963-.586s-.083-1.17-1.061-1.457Zm1.915,5.737c.324-.731-.079-1.242-1.123-1.546l-2.341-.684-.948,2.146,2.341.684C385.767,285.421,386.464,285.26,386.792,284.515Z" transform="translate(-379.712 -276.684)" fill="#fff"/>
      <path id="Path_78577" data-name="Path 78577" d="M393.659,281.034l-2.931,6.685-1.842-.538.35-.8a3.161,3.161,0,0,1-2.466.29c-1.677-.491-2.442-1.778-1.534-3.841l1.659-3.772,1.933.562-1.532,3.487c-.493,1.119-.213,1.76.644,2.011a1.906,1.906,0,0,0,2.333-1.351l1.449-3.3Z" transform="translate(-374.641 -274.338)" fill="#fff"/>
      <path id="Path_78578" data-name="Path 78578" d="M399.2,282.4l-6.13,6.22c-1.353,1.429-2.486,1.645-3.692,1.294a2.7,2.7,0,0,1-1.6-1.159l1.317-1.172a1.529,1.529,0,0,0,.906.743,1.356,1.356,0,0,0,1.462-.515l.052-.056.052-7.581,2,.582-.107,5.083,3.873-3.984Z" transform="translate(-371.749 -273.241)" fill="#fff"/>
      <path id="Path_78579" data-name="Path 78579" d="M406.086,283.263l-3.787,8.719-1.657-.485-2.047-6.565-2.305,5.294-1.993-.584,3.8-8.709,1.667.485,2.035,6.555,2.3-5.292Z" transform="translate(-365.315 -272.491)" fill="#fff"/>
      <path id="Path_78580" data-name="Path 78580" d="M399.939,286.286a4.257,4.257,0,0,1,5.188-2.373,3.162,3.162,0,0,1,2.186,4.527,4.243,4.243,0,0,1-5.178,2.381A3.171,3.171,0,0,1,399.939,286.286Zm5.4,1.578a1.567,1.567,0,0,0-.9-2.357,2.105,2.105,0,0,0-2.526,1.353,1.576,1.576,0,0,0,.918,2.363A2.09,2.09,0,0,0,405.34,287.864Z" transform="translate(-360.07 -269.731)" fill="#fff"/>
      <path id="Path_78581" data-name="Path 78581" d="M416.245,287.852l-5.331,6.009-1.874-.548.284-4.616-3.362,3.716-1.874-.548.477-7.42,1.834.535-.374,5,3.609-4.06,1.647.481-.358,5.012,3.6-4.066Z" transform="translate(-355.651 -269.024)" fill="#fff"/>
    </g>
    <g id="Group_40609" data-name="Group 40609" transform="translate(10299.468 2519.252)">
      <path id="Path_78582" data-name="Path 78582" d="M457.417,263.426l-.382-.109a1.25,1.25,0,0,1,0-2.365l.379-.187a1.367,1.367,0,0,0,.735-1.747l-.6-1.284a1.291,1.291,0,0,0-1.778-.509l-.38.189a1.211,1.211,0,0,1-1.778-1.484l.157-.374a1.14,1.14,0,0,0-.735-1.59l-1.435-.409a1.531,1.531,0,0,0-1.774.874l-.159.374a1.407,1.407,0,0,1-2.512.26l-.157-.34a1.288,1.288,0,0,0-1.776-.507l-1.433.705a1.369,1.369,0,0,0-.739,1.743l.159.342a1.454,1.454,0,0,1-1.78,1.85l-.382-.107a1.534,1.534,0,0,0-1.778.874l-.6,1.409a1.143,1.143,0,0,0,.733,1.594l.382.109a1.25,1.25,0,0,1-.006,2.365l-.382.187a1.377,1.377,0,0,0-.741,1.751l.592,1.288a1.288,1.288,0,0,0,1.778.511l.382-.189a1.213,1.213,0,0,1,1.778,1.49l-.159.376a1.149,1.149,0,0,0,.735,1.6l1.437.411a1.537,1.537,0,0,0,1.782-.878l.159-.378a1.411,1.411,0,0,1,2.52-.26l.159.344a1.292,1.292,0,0,0,1.78.511l1.439-.709a1.377,1.377,0,0,0,.737-1.755l-.159-.342a1.457,1.457,0,0,1,1.78-1.86l.384.109a1.531,1.531,0,0,0,1.778-.878l.594-1.411A1.147,1.147,0,0,0,457.417,263.426Zm-10.4,2.909a3.062,3.062,0,0,1-1.967-4.268,4.1,4.1,0,0,1,4.757-2.343,3.061,3.061,0,0,1,1.971,4.264A4.106,4.106,0,0,1,447.013,266.335Z" transform="translate(-438.556 -253.507)" fill="#fff"/>
    </g>
    <g id="Group_40611" data-name="Group 40611" transform="translate(10102.707 2480.631)">
      <path id="Path_78583" data-name="Path 78583" d="M371.694,244.363a1.633,1.633,0,0,0-1.187-1.263l-24.947-7.143.294-4.667a1.605,1.605,0,0,0-1.2-1.677l-3.115-.889a2.408,2.408,0,0,0-2.729,1.314h0a1.65,1.65,0,0,0,1.01,2.384l1.837.527-1.128,17.6a1.62,1.62,0,0,0,1.2,1.7l17.09,4.927a2.365,2.365,0,0,0,2.3-.681l9.977-10.335A2.056,2.056,0,0,0,371.694,244.363Z" transform="translate(-337.54 -228.648)" fill="#28236e"/>
      <path id="Path_78584" data-name="Path 78584" d="M343.1,247.1a4.3,4.3,0,0,0-4.887,2.366,2.988,2.988,0,0,0,1.808,4.308,4.3,4.3,0,0,0,4.892-2.37A2.989,2.989,0,0,0,343.1,247.1Z" transform="translate(-337.878 -220.319)" fill="#28236e"/>
      <path id="Path_78585" data-name="Path 78585" d="M352.033,249.676a4.3,4.3,0,0,0-4.888,2.371,3.005,3.005,0,0,0,1.827,4.319,4.291,4.291,0,0,0,4.893-2.376A3.005,3.005,0,0,0,352.033,249.676Z" transform="translate(-333.816 -219.146)" fill="#28236e"/>
    </g>
    <path id="Path_78586" data-name="Path 78586" d="M298.587,244.595,399.929,450.259,235,387.666Z" transform="translate(9659.982 2256.947)" fill="#a8a6ad" opacity="0.71" style="mix-blend-mode: multiply;isolation: isolate"/>
    <path id="Path_78587" data-name="Path 78587" d="M531.935,728.1,308.522,806.261c-15.984,5.592-35.018-3.187-42.4-19.6L22.313,244.808c-6.907-15.35,1-30.716,17.54-34.343l220.911-48.415c15.094-3.309,32.874,5.715,39.811,20.171l244.18,508.857C552.131,706.443,546.434,723.024,531.935,728.1Z" transform="translate(9487.005 2145.219)" fill="#28236e" opacity="0.15" style="mix-blend-mode: multiply;isolation: isolate"/>
    <g id="Group_40618" data-name="Group 40618" transform="translate(9554.587 2251.377)">
      <path id="Path_78588" data-name="Path 78588" d="M575.875,690.089,352.464,768.251c-15.986,5.594-35.021-3.187-42.4-19.6L66.253,206.8c-6.907-15.35.63-37.367,17.172-40.992L304.7,124.042c15.094-3.309,32.874,5.713,39.811,20.171L594.937,651.175C602.311,666.542,590.375,685.016,575.875,690.089Z" transform="translate(-63.696 -114.102)" fill="#28236e"/>
      <path id="Path_78589" data-name="Path 78589" d="M578.435,685.431,355.022,763.593c-15.984,5.594-35.019-3.187-42.4-19.6L68.813,202.14c-6.907-15.35,1-30.716,17.54-34.343l220.911-48.414c15.094-3.309,32.874,5.713,39.811,20.169l244.18,508.857C598.631,663.777,592.935,680.358,578.435,685.431Z" transform="translate(-61.113 -118.7)" fill="#332d81"/>
      <g id="Group_40617" data-name="Group 40617" transform="translate(18.237 9.223)">
        <g id="Group_40616" data-name="Group 40616">
          <path id="Path_78590" data-name="Path 78590" d="M351.657,743.939c-14.983,5.2-32.9-3.084-39.829-18.456L75.147,200.75c-6.261-13.882.864-27.845,15.791-31.14l39.762-8.781,4.9,10.7a12.292,12.292,0,0,0,13.262,6.587L260.39,153.032c4.888-1.1,7.072-5.778,4.876-10.43l-4.914-10.4,37.254-8.229c13.7-3.024,29.9,5.18,36.187,18.307L570.816,637.252c6.925,14.464,1.492,30.1-12.2,34.856Z" transform="translate(-72.874 -123.341)" fill="#28236e"/>
          <path id="Path_78591" data-name="Path 78591" d="M439.411,361.3,333.793,142.278c-6.287-13.129-22.484-21.333-36.187-18.309L260.352,132.2l4.914,10.4c2.2,4.652.012,9.329-4.876,10.43L148.865,178.117A12.289,12.289,0,0,1,135.6,171.53l-4.9-10.7L90.939,169.61c-14.927,3.3-22.053,17.258-15.791,31.14l102.8,227.486Z" transform="translate(-72.874 -123.341)" fill="#4e17e2"/>
        </g>
      </g>
    </g>
    <g id="Group_40621" data-name="Group 40621" transform="translate(9796.068 2295.594)">
      <g id="Group_40620" data-name="Group 40620">
        <path id="Path_78592" data-name="Path 78592" d="M205.8,147.474l-.449.1c-1.323.3-2.72-1.085-2.214-2.2l.173-.38a1.653,1.653,0,0,0-.964-2.025l-1.747-.88a1.5,1.5,0,0,0-2.1.481l-.173.38c-.507,1.117-2.412.845-3.018-.431l-.207-.435a2.033,2.033,0,0,0-2.17-1.093l-1.7.387a1.2,1.2,0,0,0-.809,1.772l.2.435c.608,1.278-.7,2.285-2.065,1.6l-.465-.234a1.512,1.512,0,0,0-2.112.483l-.656,1.433a1.653,1.653,0,0,0,.964,2.033l.467.234c1.369.688,1.437,2.389.105,2.695l-.453.1a1.2,1.2,0,0,0-.815,1.782l.779,1.641a2.031,2.031,0,0,0,2.178,1.095l.453-.105c1.331-.308,2.732,1.089,2.222,2.212l-.175.383a1.656,1.656,0,0,0,.966,2.035l1.757.882a1.507,1.507,0,0,0,2.11-.489l.175-.384c.509-1.125,2.42-.854,3.028.427l.207.435a2.029,2.029,0,0,0,2.174,1.093l1.7-.4a1.205,1.205,0,0,0,.807-1.784l-.209-.435c-.608-1.28.689-2.293,2.057-1.606l.465.234a1.5,1.5,0,0,0,2.1-.489l.646-1.435a1.658,1.658,0,0,0-.966-2.029l-.465-.232c-1.365-.688-1.437-2.385-.115-2.691l.451-.1a1.2,1.2,0,0,0,.8-1.775l-.779-1.633A2.026,2.026,0,0,0,205.8,147.474Zm-6.78,8.318a5.428,5.428,0,0,1-5.812-2.923,3.208,3.208,0,0,1,2.164-4.755,5.428,5.428,0,0,1,5.8,2.921A3.209,3.209,0,0,1,199.017,155.792Z" transform="translate(-185.221 -140.952)" fill="#f2f4f3"/>
      </g>
    </g>
    <g id="Group_40622" data-name="Group 40622" transform="translate(9597.927 2334.822)">
      <path id="Path_78593" data-name="Path 78593" d="M115.913,164.6l-28.625,6.541-1.781-3.93,28.624-6.517Z" transform="translate(-85.507 -160.693)" fill="#f2f4f3"/>
      <path id="Path_78594" data-name="Path 78594" d="M117.831,168.8,89.2,175.394l-1.784-3.937,28.626-6.568Z" transform="translate(-83.619 -156.552)" fill="#f2f4f3"/>
      <path id="Path_78595" data-name="Path 78595" d="M119.752,173.01l-28.63,6.643-1.787-3.943,28.629-6.619Z" transform="translate(-81.728 -152.404)" fill="#f2f4f3"/>
    </g>
    <g id="Group_40627" data-name="Group 40627" transform="translate(9675.745 2418.363)">
      <path id="Path_78597" data-name="Path 78597" d="M312.024,252.188,164.884,291.2c-14.5,3.841-31.47-4.386-37.822-18.363h0c-6.335-13.941.35-28.217,14.84-31.9l147.112-37.4c13.6-3.458,29.707,4.544,36.054,17.888h0C331.43,234.8,325.628,248.581,312.024,252.188Z" transform="translate(-124.669 -202.735)" fill="#fff"/>
      <g id="Group_40624" data-name="Group 40624" transform="translate(58.129 29.279)">
        <path id="Path_78598" data-name="Path 78598" d="M156.507,233.273l-2.585-5.61,2.4-.62,2.543,5.52c.878,1.9,2.1,2.468,3.553,2.09s1.945-1.385,1.065-3.289l-2.546-5.514,2.369-.61,2.583,5.6c1.359,2.945.368,5.029-2.575,5.8A5.519,5.519,0,0,1,156.507,233.273Z" transform="translate(-153.922 -209.798)" fill="#bdbec2"/>
        <path id="Path_78599" data-name="Path 78599" d="M162.6,233.869l.028-1.8a6.345,6.345,0,0,0,3.1.026c1.061-.276,1.335-.65,1.137-1.077-.58-1.258-4.781,1.272-6.2-1.8-.674-1.457.211-2.836,2.528-3.434a7.5,7.5,0,0,1,3.362-.119l-.036,1.78a5.281,5.281,0,0,0-2.548.022c-1.033.268-1.331.7-1.145,1.095.606,1.314,4.811-1.2,6.21,1.826.66,1.427-.242,2.8-2.615,3.416A7.856,7.856,0,0,1,162.6,233.869Z" transform="translate(-147.484 -209.517)" fill="#bdbec2"/>
        <path id="Path_78600" data-name="Path 78600" d="M173.621,228.165l-5.979,1.554a2.713,2.713,0,0,0,2.977.952,2.292,2.292,0,0,0,1.637-1.256l1.814.964a3.534,3.534,0,0,1-2.687,2.09,5.317,5.317,0,0,1-6.345-2.778,3.414,3.414,0,0,1,2.394-5.039,5.08,5.08,0,0,1,5.951,2.905C173.466,227.728,173.547,227.978,173.621,228.165Zm-6.613.262,3.9-1.009a2.451,2.451,0,0,0-2.679-1.091A1.573,1.573,0,0,0,167.008,228.427Z" transform="translate(-143.357 -210.544)" fill="#bdbec2"/>
        <path id="Path_78601" data-name="Path 78601" d="M173.747,223.2l.95,2.047c-.2.034-.352.058-.527.1-1.26.328-1.784,1.212-1.1,2.677l1.677,3.613-2.287.6-3.549-7.654,2.184-.564.469,1.009A2.678,2.678,0,0,1,173.747,223.2Z" transform="translate(-139.131 -211.815)" fill="#bdbec2"/>
        <path id="Path_78602" data-name="Path 78602" d="M183.7,224.457l2.035,4.366-2.273.59-1.874-4.028c-.574-1.234-1.423-1.647-2.426-1.387-1.095.282-1.58,1.139-.926,2.541L180,230.317l-2.277.59-3.551-7.636,2.176-.562.415.894a2.9,2.9,0,0,1,2.126-1.677C180.737,221.447,182.623,222.132,183.7,224.457Z" transform="translate(-133.937 -213.213)" fill="#bdbec2"/>
        <path id="Path_78603" data-name="Path 78603" d="M187.6,223.263l2.027,4.344-2.118.55-.441-.946c-.1.8-.741,1.383-1.888,1.681a3.283,3.283,0,0,1-4-1.55c-.628-1.347-.089-2.534,2.3-3.154l1.8-.467a1.935,1.935,0,0,0-2.5-1.031,3.254,3.254,0,0,0-1.926,1.292l-1.534-1.333a5.266,5.266,0,0,1,2.945-1.79C184.646,220.241,186.524,220.96,187.6,223.263Zm-1.359,2.526-.364-.779-1.554.4c-1.063.276-1.216.747-.98,1.254a1.371,1.371,0,0,0,1.707.59A1.385,1.385,0,0,0,186.242,225.789Z" transform="translate(-128.853 -214.333)" fill="#bdbec2"/>
        <path id="Path_78604" data-name="Path 78604" d="M198.415,221.3l2.033,4.342-2.251.586-1.874-4c-.576-1.228-1.4-1.645-2.313-1.411-1.011.264-1.423,1.079-.789,2.434L195,227.062l-2.255.588-1.878-4.01c-.572-1.23-1.371-1.655-2.313-1.411-1,.258-1.413,1.077-.777,2.432l1.784,3.817-2.261.586-3.553-7.6,2.16-.558.409.876a2.642,2.642,0,0,1,1.985-1.619,3.649,3.649,0,0,1,3.142.578,2.909,2.909,0,0,1,2.22-1.967C195.514,218.295,197.332,218.994,198.415,221.3Z" transform="translate(-124.477 -216.325)" fill="#bdbec2"/>
        <path id="Path_78605" data-name="Path 78605" d="M200.651,221.113l-5.854,1.52a2.677,2.677,0,0,0,2.929.946,2.224,2.224,0,0,0,1.6-1.236l1.786.956a3.424,3.424,0,0,1-2.617,2.057,5.259,5.259,0,0,1-6.249-2.754,3.341,3.341,0,0,1,2.3-4.97,5.034,5.034,0,0,1,5.868,2.879C200.494,220.68,200.579,220.928,200.651,221.113Zm-6.484.246,3.811-.99a2.414,2.414,0,0,0-2.637-1.083A1.531,1.531,0,0,0,194.167,221.359Z" transform="translate(-116.511 -217.47)" fill="#bdbec2"/>
      </g>
      <path id="Path_78606" data-name="Path 78606" d="M130.605,247.392c-4.248-9.329.209-18.9,9.914-21.381,9.669-2.474,20.92,3.02,25.171,12.278,4.258,9.274-.1,18.859-9.771,21.4C146.212,262.247,134.86,256.737,130.605,247.392Z" transform="translate(-120.397 -180.345)" fill="#28236e"/>
      <g id="Group_40626" data-name="Group 40626" transform="translate(18.982 49.549)">
        <g id="Group_40625" data-name="Group 40625">
          <path id="Path_78607" data-name="Path 78607" d="M140.86,236.131a3.654,3.654,0,0,0,2.432-5.274,5.6,5.6,0,0,0-6.232-3.038,3.653,3.653,0,0,0-2.44,5.272A5.6,5.6,0,0,0,140.86,236.131Z" transform="translate(-134.221 -227.67)" fill="#f2f4f3"/>
          <path id="Path_78608" data-name="Path 78608" d="M152.707,236.247a12.613,12.613,0,0,0-11.521-3.241,8.217,8.217,0,0,0-6.458,7.917,2.46,2.46,0,0,0,.815,1.782,12.619,12.619,0,0,0,11.557,3.237,8.2,8.2,0,0,0,6.422-7.921A2.462,2.462,0,0,0,152.707,236.247Z" transform="translate(-133.721 -222.74)" fill="#f2f4f3"/>
        </g>
      </g>
    </g>
    <g id="Group_40632" data-name="Group 40632" transform="translate(9707.173 2484.636)">
      <path id="Path_78609" data-name="Path 78609" d="M328.1,286.249,180.923,327.5c-14.5,4.066-31.549-4.133-37.985-18.3h0c-6.42-14.124.2-28.727,14.7-32.628l147.152-39.6c13.6-3.66,29.775,4.316,36.2,17.828h0C347.437,268.352,341.7,282.436,328.1,286.249Z" transform="translate(-140.484 -236.087)" fill="#fff"/>
      <g id="Group_40628" data-name="Group 40628" transform="translate(58.692 29.163)">
        <path id="Path_78610" data-name="Path 78610" d="M180.706,263.246c1.045,2.259-.038,4.139-2.806,4.9l-2.088.576,1.292,2.8-2.4.662-4.68-10.156,4.491-1.228C177.28,260.043,179.656,260.975,180.706,263.246Zm-2.424.666a2.309,2.309,0,0,0-3.022-1.162l-1.953.535,1.623,3.521,1.955-.535C178.349,265.867,178.788,265.011,178.281,263.912Z" transform="translate(-170.021 -241.112)" fill="#bdbec2"/>
        <path id="Path_78611" data-name="Path 78611" d="M184.316,263.056l2.055,4.437-2.152.594-.449-.97c-.1.827-.749,1.431-1.918,1.753a3.283,3.283,0,0,1-4.06-1.546c-.634-1.377-.085-2.6,2.337-3.267l1.828-.5a1.933,1.933,0,0,0-2.536-1.031,3.363,3.363,0,0,0-1.957,1.351l-1.556-1.351a5.438,5.438,0,0,1,2.991-1.88C181.32,259.984,183.227,260.7,184.316,263.056Zm-1.381,2.613-.37-.8-1.58.431c-1.077.3-1.236.783-1,1.3a1.376,1.376,0,0,0,1.735.582A1.44,1.44,0,0,0,182.935,265.669Z" transform="translate(-164.209 -241.24)" fill="#bdbec2"/>
        <path id="Path_78612" data-name="Path 78612" d="M182.754,267.654l.016-1.828a6.282,6.282,0,0,0,3.1-.006c1.059-.292,1.327-.676,1.129-1.109-.59-1.27-4.769,1.345-6.208-1.763-.682-1.474.191-2.885,2.5-3.515a7.385,7.385,0,0,1,3.356-.157l-.022,1.81a5.143,5.143,0,0,0-2.545.052c-1.029.28-1.325.719-1.139,1.121.618,1.331,4.8-1.264,6.216,1.792.668,1.443-.223,2.845-2.587,3.5A7.758,7.758,0,0,1,182.754,267.654Z" transform="translate(-159.611 -242.485)" fill="#bdbec2"/>
        <path id="Path_78613" data-name="Path 78613" d="M186.921,266.362l.016-1.828a6.25,6.25,0,0,0,3.1-.006c1.059-.29,1.329-.676,1.129-1.107-.588-1.272-4.769,1.343-6.206-1.763-.682-1.474.189-2.887,2.5-3.517a7.35,7.35,0,0,1,3.354-.155l-.02,1.81a5.12,5.12,0,0,0-2.545.05c-1.029.282-1.325.719-1.139,1.123.616,1.329,4.8-1.266,6.216,1.79.668,1.445-.223,2.845-2.589,3.5A7.751,7.751,0,0,1,186.921,266.362Z" transform="translate(-155.497 -243.761)" fill="#bdbec2"/>
        <path id="Path_78614" data-name="Path 78614" d="M201.854,255.6l.749,8.523-2.2.6L196.4,260.4l.4,5.317-2.2.6-6.444-6.977,2.158-.59,4.294,4.733-.5-5.772,1.935-.531,4.306,4.725-.519-5.763Z" transform="translate(-152.115 -245.986)" fill="#bdbec2"/>
        <path id="Path_78615" data-name="Path 78615" d="M196.3,260.173a3.51,3.51,0,0,1,2.468-5.164,5.2,5.2,0,0,1,6.148,2.8,3.5,3.5,0,0,1-2.444,5.162A5.22,5.22,0,0,1,196.3,260.173Zm6.315-1.733a2.571,2.571,0,0,0-2.993-1.6c-1.139.314-1.637,1.357-1.015,2.694a2.581,2.581,0,0,0,3.008,1.59C202.757,260.817,203.242,259.774,202.62,258.441Z" transform="translate(-144.495 -246.764)" fill="#bdbec2"/>
        <path id="Path_78616" data-name="Path 78616" d="M205.087,253.442l.964,2.065c-.195.038-.348.062-.521.109-1.25.342-1.763,1.244-1.075,2.72l1.7,3.644-2.267.626-3.6-7.72,2.166-.594.475,1.019A2.68,2.68,0,0,1,205.087,253.442Z" transform="translate(-140.143 -248.119)" fill="#bdbec2"/>
        <path id="Path_78617" data-name="Path 78617" d="M209.566,250.763l4.962,10.609-2.154.594-.415-.888a2.564,2.564,0,0,1-1.965,1.675,4.929,4.929,0,0,1-5.753-2.9c-1.131-2.42-.157-4.435,2.047-5.037a3.608,3.608,0,0,1,2.766.294l-1.745-3.732Zm.95,7.37a2.578,2.578,0,0,0-2.983-1.59c-1.129.31-1.625,1.349-1,2.683a2.578,2.578,0,0,0,3,1.586C210.643,260.506,211.138,259.464,210.516,258.133Z" transform="translate(-136.711 -250.763)" fill="#bdbec2"/>
      </g>
      <path id="Path_78618" data-name="Path 78618" d="M146.407,282.328c-4.3-9.451.113-19.239,9.822-21.868,9.673-2.617,20.974,2.857,25.28,12.237,4.312,9.4,0,19.2-9.677,21.892C162.119,297.288,150.719,291.8,146.407,282.328Z" transform="translate(-136.265 -212.673)" fill="#28236e"/>
      <g id="Group_40631" data-name="Group 40631" transform="translate(19.094 53.715)">
        <g id="Group_40629" data-name="Group 40629" transform="translate(0.937)">
          <path id="Path_78619" data-name="Path 78619" d="M153.637,268.89l-.111-.242a2.031,2.031,0,0,1,1.306-2.919,3.006,3.006,0,0,1,3.386,1.637l.111.242,2.5-.682-.111-.242a6.218,6.218,0,0,0-7-3.384,4.2,4.2,0,0,0-2.7,6.031l.111.244Z" transform="translate(-150.565 -263.118)" fill="#fff"/>
        </g>
        <g id="Group_40630" data-name="Group 40630" transform="translate(0 4.949)">
          <path id="Path_78620" data-name="Path 78620" d="M162.47,265.695l-10.9,2.979a1.969,1.969,0,0,0-1.266,2.83l3.454,7.569a2.9,2.9,0,0,0,3.285,1.584l10.9-3.008a1.965,1.965,0,0,0,1.252-2.828l-3.456-7.543A2.9,2.9,0,0,0,162.47,265.695Zm-1.4,7.652,1.147,2.506-1.943.536-1.182-2.585a2.327,2.327,0,0,1-1.447-1.208,1.583,1.583,0,0,1,1.015-2.277,2.338,2.338,0,0,1,2.637,1.274A1.6,1.6,0,0,1,161.071,273.347Z" transform="translate(-150.093 -265.609)" fill="#fff"/>
        </g>
      </g>
    </g>
    <g id="Group_40634" data-name="Group 40634" transform="translate(9696.112 2337.128)">
      <path id="Path_78621" data-name="Path 78621" d="M212.136,189.26c9.069,19.33.109,39.064-20.187,44.048-20.459,5.023-44.537-6.855-53.6-26.5-9.025-19.569.38-39.223,20.831-43.933C179.47,158.2,203.1,170,212.136,189.26Z" transform="translate(-134.919 -161.854)" fill="#bdbec2" opacity="0.45" style="mix-blend-mode: multiply;isolation: isolate"/>
    </g>
    <path id="Path_78622" data-name="Path 78622" d="M210.136,183.927c9.069,19.328.109,39.062-20.187,44.046-20.459,5.023-44.537-6.854-53.6-26.5-9.025-19.569.38-39.225,20.831-43.933C177.47,152.871,201.1,164.668,210.136,183.927Z" transform="translate(9559.22 2170.01)" fill="#fff"/>
    <g id="Group_40638" data-name="Group 40638" transform="translate(9798.621 2598.021)">
      <path id="Path_78625" data-name="Path 78625" d="M292.517,322.3l-83.178,24.91c-8.083,2.422-17.665-2.162-21.373-10.232h0c-3.7-8.06-.125-16.509,7.958-18.875L279.1,293.74c7.793-2.283,17.093,2.232,20.795,10.086h0C303.6,311.694,300.313,319.968,292.517,322.3Z" transform="translate(-186.506 -293.148)" fill="#fff"/>
    </g>
    <g id="Group_40640" data-name="Group 40640" transform="translate(9837.178 2615.385)" opacity="0.3">
      <g id="Group_40639" data-name="Group 40639">
        <path id="Path_78626" data-name="Path 78626" d="M208.124,314.646l-.024-1.774a5.521,5.521,0,0,0,2.85.02c.888-.256,1.119-.6.95-.97-.552-1.192-4.465.92-5.759-1.878-.624-1.345-.024-2.76,2.232-3.4a6.291,6.291,0,0,1,3.054-.131l.072,1.767a5.079,5.079,0,0,0-2.371.022c-.9.256-1.083.654-.912,1.027.536,1.153,4.435-.942,5.723,1.83.608,1.311.02,2.746-2.232,3.4A6.786,6.786,0,0,1,208.124,314.646Z" transform="translate(-205.909 -297.452)"/>
        <path id="Path_78627" data-name="Path 78627" d="M209.1,306.784a1,1,0,0,1,.751-1.443,1.418,1.418,0,0,1,1.743.693,1.011,1.011,0,0,1-.737,1.474A1.448,1.448,0,0,1,209.1,306.784Zm1.027,1.663,2.057-.586,2.7,5.82-2.055.59Z" transform="translate(-202.866 -298.544)"/>
        <path id="Path_78628" data-name="Path 78628" d="M217.268,305.475l2.208,4.749c1.023,2.2.254,3.6-1.924,4.229a5.84,5.84,0,0,1-3.259.078l.081-1.645a3.924,3.924,0,0,0,2.265.054c1.1-.318,1.335-.946.91-1.858l-.087-.191a1.907,1.907,0,0,1-1.419,1.186,3.553,3.553,0,0,1-4.179-1.987,2.459,2.459,0,0,1,1.574-3.626,2.561,2.561,0,0,1,2.208.278l-.33-.705Zm-.771,3.283a1.508,1.508,0,0,0-1.82-.813,1.054,1.054,0,0,0-.735,1.548,1.528,1.528,0,0,0,1.834.823A1.057,1.057,0,0,0,216.5,308.758Z" transform="translate(-200.334 -298.343)"/>
        <path id="Path_78629" data-name="Path 78629" d="M222.454,306.642,224,309.96l-2.043.588-1.391-2.987c-.387-.837-.918-1.085-1.51-.916-.656.189-.972.743-.523,1.7l1.306,2.81-2.047.588-2.7-5.812,1.949-.556.294.632a2.173,2.173,0,0,1,1.514-1.26A2.922,2.922,0,0,1,222.454,306.642Z" transform="translate(-196.849 -299.182)"/>
        <path id="Path_78630" data-name="Path 78630" d="M221.974,308.052l-1.931-4.147,2.12-.608,1.9,4.081c.6,1.282,1.373,1.641,2.261,1.385s1.174-.92.576-2.2l-1.9-4.079,2.086-.6,1.933,4.139c1.039,2.233.318,3.857-1.9,4.5A4.087,4.087,0,0,1,221.974,308.052Z" transform="translate(-191.958 -301.886)"/>
        <path id="Path_78631" data-name="Path 78631" d="M232.483,304.2c.856,1.834.127,3.352-1.441,3.8a2.554,2.554,0,0,1-1.9-.145l1.208,2.585-2.031.586-3.67-7.857,1.935-.556.27.576a1.805,1.805,0,0,1,1.395-1.162A3.633,3.633,0,0,1,232.483,304.2Zm-2.047.588a1.593,1.593,0,0,0-1.858-1.023c-.686.2-.986.85-.576,1.725a1.593,1.593,0,0,0,1.86,1.025C230.546,306.316,230.844,305.662,230.436,304.787Z" transform="translate(-187.409 -301.866)"/>
      </g>
    </g>
    <g id="Group_40642" data-name="Group 40642" transform="translate(9780.56 2559.655)">
      <path id="Path_78632" data-name="Path 78632" d="M283.351,302.756l-83.172,24.173c-8.083,2.351-17.641-2.243-21.321-10.253h0c-3.674-8-.078-16.342,8-18.639L270.03,274.4c7.8-2.214,17.071,2.309,20.747,10.108h0C294.459,292.32,291.146,300.491,283.351,302.756Z" transform="translate(-177.417 -273.84)" fill="#03a71e"/>
    </g>
    <g id="Group_40644" data-name="Group 40644" transform="translate(9821.838 2576.641)">
      <g id="Group_40643" data-name="Group 40643">
        <path id="Path_78633" data-name="Path 78633" d="M198.19,286.678l2.142-.63,2.724,5.874,3.611-1.071.787,1.7-5.753,1.707Z" transform="translate(-198.19 -278.776)" fill="#f2f4f3"/>
        <path id="Path_78634" data-name="Path 78634" d="M202.5,289.858a2.746,2.746,0,0,1,1.9-3.992,3.868,3.868,0,0,1,4.7,2.037,2.75,2.75,0,0,1-1.886,4.016A3.907,3.907,0,0,1,202.5,289.858Zm4.533-1.343a1.576,1.576,0,0,0-1.872-1.017c-.69.2-1,.86-.586,1.747a1.6,1.6,0,0,0,1.884,1.041C207.155,290.077,207.448,289.413,207.03,288.515Z" transform="translate(-194.251 -279.131)" fill="#f2f4f3"/>
        <path id="Path_78635" data-name="Path 78635" d="M211.431,284.263l2.224,4.775c1.029,2.212.27,3.628-1.9,4.272a5.735,5.735,0,0,1-3.251.1l.076-1.657a3.855,3.855,0,0,0,2.259.042c1.1-.326,1.329-.96.9-1.878l-.089-.195a1.9,1.9,0,0,1-1.409,1.206,3.532,3.532,0,0,1-4.179-1.979,2.486,2.486,0,0,1,1.554-3.664,2.525,2.525,0,0,1,2.2.27l-.332-.711Zm-.755,3.314a1.5,1.5,0,0,0-1.82-.809,1.067,1.067,0,0,0-.729,1.564,1.521,1.521,0,0,0,1.838.817A1.067,1.067,0,0,0,210.676,287.577Z" transform="translate(-190.73 -280.538)" fill="#f2f4f3"/>
        <path id="Path_78636" data-name="Path 78636" d="M210.482,283.047l2.12-.626,3.515,7.533-2.122.63Z" transform="translate(-186.057 -282.356)" fill="#f2f4f3"/>
        <path id="Path_78637" data-name="Path 78637" d="M219.991,284.4l1.556,3.33-2.029.6-1.4-3c-.388-.835-.92-1.085-1.506-.912-.652.195-.966.751-.515,1.719l1.317,2.82-2.035.6-2.72-5.832,1.937-.572.3.636a2.177,2.177,0,0,1,1.5-1.278C217.746,282.119,219.149,282.6,219.991,284.4Z" transform="translate(-183.91 -282.388)" fill="#f2f4f3"/>
      </g>
    </g>
    <path id="Path_78638" data-name="Path 78638" d="M103.5,250.086l-35.71,8.2a17.863,17.863,0,0,0-12.322,24.68L184.388,571.715a29.4,29.4,0,0,0,35.929,15.978l25.854-8.394" transform="translate(9481.233 2262.367)" fill="none" stroke="#000" stroke-width="0.901" style="mix-blend-mode: darken;isolation: isolate"/>
    <line id="Line_28" data-name="Line 28" y1="19.871" x2="58.95" transform="translate(9639.311 2756.221)" fill="none" stroke="#000" stroke-width="0.901" style="mix-blend-mode: darken;isolation: isolate"/>
    <g id="Group_40648" data-name="Group 40648" transform="translate(9627.758 2765.863)">
      <path id="Path_78639" data-name="Path 78639" d="M122.783,385.263c2.45,5.469-.31,11.1-6.2,12.564a13.6,13.6,0,0,1-15.191-7.348c-2.438-5.516.413-11.128,6.337-12.541A13.621,13.621,0,0,1,122.783,385.263Z" transform="translate(-100.52 -377.614)" fill="#03a71e"/>
      <path id="Path_78640" data-name="Path 78640" d="M110.951,391.715a8.417,8.417,0,0,1-7.585-4.725,5.04,5.04,0,0,1-.032-4.334,5.212,5.212,0,0,1,3.593-2.673,7.358,7.358,0,0,1,1.7-.195,8.433,8.433,0,0,1,7.575,4.7,5.054,5.054,0,0,1,.058,4.332,5.19,5.19,0,0,1-3.539,2.687A7.315,7.315,0,0,1,110.951,391.715Z" transform="translate(-98.21 -375.468)" fill="#fff"/>
    </g>
    <g id="Group_40649" data-name="Group 40649" transform="translate(9666.838 2839.385)">
      <path id="Path_78641" data-name="Path 78641" d="M142.449,422.263c2.45,5.468-.308,11.1-6.2,12.564a13.594,13.594,0,0,1-15.189-7.348c-2.44-5.516.413-11.128,6.335-12.541A13.618,13.618,0,0,1,142.449,422.263Z" transform="translate(-120.187 -414.614)" fill="#03a71e"/>
      <path id="Path_78642" data-name="Path 78642" d="M130.617,428.715a8.421,8.421,0,0,1-7.585-4.725,5.047,5.047,0,0,1-.032-4.334,5.22,5.22,0,0,1,3.593-2.673,7.375,7.375,0,0,1,1.7-.195,8.433,8.433,0,0,1,7.575,4.7,5.061,5.061,0,0,1,.058,4.332,5.194,5.194,0,0,1-3.539,2.687A7.316,7.316,0,0,1,130.617,428.715Z" transform="translate(-117.877 -412.468)" fill="#fff"/>
    </g>
    <path id="Path_78643" data-name="Path 78643" d="M430.715,384.65h0c-8.173-17.18-28.316-26.939-45.115-21.816L169.337,428.779c2.108,4.7,5.351,8.833,7.859,13.363,3,5.427,4.984,11.422,7.122,17.22a172.006,172.006,0,0,0,7.583,17.661c2.869,5.727,5.989,11.368,8.789,17.147l214.566-68.58C432.052,420.222,438.916,401.884,430.715,384.65Z" transform="translate(9595.168 2372.313)" fill="#bdbec2" opacity="0.45" style="mix-blend-mode: multiply;isolation: isolate"/>
    <path id="Path_78644" data-name="Path 78644" d="M446.779,419.953,187.326,507.795c-18.77,6.355-40.851-3.789-49.167-22.643h0c-8.288-18.786.324-38.919,19.086-44.988l259.435-83.907c16.8-5.431,37.033,4.284,45.33,21.719h0C470.332,395.469,463.572,414.268,446.779,419.953Z" transform="translate(9561.277 2365.681)" fill="#fff"/>
    <path id="Path_78729" data-name="Path 78729" d="M318.558,376.627c6.277,13.224,1.135,27.416-11.561,31.688-12.763,4.3-28.26-3.068-34.54-16.435-6.265-13.337-.934-27.5,11.829-31.654C296.986,356.1,312.3,363.435,318.558,376.627Z" transform="translate(9694.362 2369.949)" fill="#28236e"/>
    <path id="Path_78730" data-name="Path 78730" d="M296.638,372.081l-9.939,13.59-8.4-17.809Z" transform="translate(9702.723 2378.623)" fill="#fff"/>
    <path id="Path_78731" data-name="Path 78731" d="M170.161,403.145a1.316,1.316,0,0,0-1.1.093l-19.2,11.7a1.136,1.136,0,0,0-.419,1.462l8.342,18.772a7.628,7.628,0,0,0-4,.213c-3.285,1.091-5.013,4.117-3.849,6.748s4.793,3.873,8.078,2.774,5-4.123,3.831-6.746l-6.438-14.482,17.061-10.452,4.523,10.124a7.562,7.562,0,0,0-3.974.2c-3.259,1.079-4.964,4.083-3.8,6.7s4.767,3.859,8.026,2.772,4.95-4.089,3.783-6.7L171.011,403.92a1.462,1.462,0,0,0-.85-.775Zm0,0" transform="translate(9575.423 2413.374)" fill="#28236e"/>
    <path id="Path_78732" data-name="Path 78732" d="M413.215,340.65h0c-8.173-17.18-28.316-26.939-45.115-21.816L151.837,384.779c2.108,4.7,5.351,8.833,7.859,13.363,3,5.427,4.984,11.422,7.122,17.22a172.006,172.006,0,0,0,7.583,17.661c2.869,5.727,5.989,11.368,8.789,17.147L397.756,381.59C414.552,376.222,421.416,357.884,413.215,340.65Z" transform="translate(9577.894 2328.882)" fill="#bdbec2" opacity="0.45" style="mix-blend-mode: multiply;isolation: isolate"/>
    <path id="Path_78733" data-name="Path 78733" d="M427.619,379.257,168.193,462.176c-18.76,6-40.727-4.2-48.914-22.76h0c-8.159-18.494.548-38.1,19.3-43.821L397.964,316.5c16.8-5.123,36.942,4.636,45.117,21.814h0C451.282,355.551,444.416,373.887,427.619,379.257Z" transform="translate(9542.729 2326.579)" fill="#4e17e2"/>
    <g id="Group_40659" data-name="Group 40659" transform="translate(9688.696 2735.244)">
      <g id="Group_40658" data-name="Group 40658">
        <path id="Path_78734" data-name="Path 78734" d="M140.815,374.865a5.786,5.786,0,0,0,3.529-8.129,7.71,7.71,0,0,0-9.033-4.232,5.784,5.784,0,0,0-3.547,8.127A7.706,7.706,0,0,0,140.815,374.865Z" transform="translate(-131.187 -362.205)" fill="#fff"/>
      </g>
      <path id="Path_78735" data-name="Path 78735" d="M159.586,387.489,140.568,393.5a3.375,3.375,0,0,1-3.982-1.856l-4.02-9.055a7.777,7.777,0,0,1,4.739-10.909l7.746-2.412A10.257,10.257,0,0,1,157.1,374.9l4.022,9.006A2.551,2.551,0,0,1,159.586,387.489Z" transform="translate(-130.587 -355.637)" fill="#fff"/>
    </g>
    <path id="Path_78820" data-name="Path 78820" d="M257.189,338.535l16.5,7.934a1.944,1.944,0,0,0,2.766-.87l5.675-14.838a2.365,2.365,0,0,0-1.339-2.832,2.264,2.264,0,0,0-1.655-.159,1.683,1.683,0,0,0-1.1,1.015l-4.98,12.98-14.426-6.943a1.959,1.959,0,0,0-2.78.864A2.367,2.367,0,0,0,257.189,338.535Z" transform="translate(9680.441 2338.96)" fill="#fff"/>
    <line id="Line_29" data-name="Line 29" x1="100" y1="224.503" transform="translate(9555.852 2433.112)" fill="none" stroke="#000" stroke-width="0.901"/>
    <path id="Path_78821" data-name="Path 78821" d="M77.189,249.478,56.47,202.962a17.863,17.863,0,0,1,12.322-24.68l35.71-8.2" transform="translate(9482.222 2183.4)" fill="none" stroke="#000" stroke-width="0.901"/>
    <g id="Group_40667" data-name="Group 40667" transform="translate(9568.147 2345.262)">
      <path id="Path_78822" data-name="Path 78822" d="M92.783,173.6c2.45,5.466-.31,11.094-6.2,12.562a13.6,13.6,0,0,1-15.191-7.346c-2.438-5.518.413-11.13,6.337-12.541A13.616,13.616,0,0,1,92.783,173.6Z" transform="translate(-70.52 -165.947)" fill="#03a71e"/>
      <path id="Path_78823" data-name="Path 78823" d="M80.951,180.049a8.419,8.419,0,0,1-7.585-4.727,5.036,5.036,0,0,1-.032-4.332,5.209,5.209,0,0,1,3.593-2.675,7.359,7.359,0,0,1,1.7-.195,8.431,8.431,0,0,1,7.575,4.7,5.054,5.054,0,0,1,.058,4.332,5.183,5.183,0,0,1-3.537,2.685A7.233,7.233,0,0,1,80.951,180.049Z" transform="translate(-68.21 -163.802)" fill="#fff"/>
    </g>
    <path id="Path_78824" data-name="Path 78824" d="M138.153,286.8c6.6,14.742-.535,30.208-16.044,34.526-15.6,4.346-33.679-4.242-40.274-19.167-6.577-14.881.815-30.309,16.407-34.472C113.744,263.552,131.568,272.1,138.153,286.8Z" transform="translate(9506.422 2278.716)" fill="#fff"/>
    <g id="Group_40669" data-name="Group 40669" transform="translate(9605.853 2562.699)">
      <path id="Path_78825" data-name="Path 78825" d="M101.472,274.634c-5.1-2.437-10.909-.87-12.989,3.514s.378,9.951,5.5,12.392l9.264,4.415,3.727-7.976C109.026,282.59,106.561,277.069,101.472,274.634Z" transform="translate(-87.742 -273.485)" fill="#28236e"/>
      <path id="Path_78826" data-name="Path 78826" d="M91.667,281.8A3.488,3.488,0,0,1,94,276.859a5.047,5.047,0,0,1,5.742,2.745,3.486,3.486,0,0,1-2.322,4.942A5.046,5.046,0,0,1,91.667,281.8Z" transform="translate(-86.051 -271.963)" fill="#fff"/>
    </g>
    <path id="Path_78827" data-name="Path 78827" d="M124.707,253.578c6.522,14.551-.662,29.679-16.147,33.775-15.575,4.117-33.562-4.5-40.076-19.227-6.494-14.687.94-29.777,16.5-33.717C100.465,230.492,118.2,239.067,124.707,253.578Z" transform="translate(9493.297 2245.957)" fill="#fff"/>
    <path id="Path_78828" data-name="Path 78828" d="M99.981,255.307l-7.193-3.464a8.38,8.38,0,0,0-.621-5.126A11.749,11.749,0,0,0,79,240.371a7.857,7.857,0,0,0-5.433,11.148,11.735,11.735,0,0,0,13.22,6.354,8.4,8.4,0,0,0,4.51-2.835l7.166,3.447a2.277,2.277,0,0,0,1.548.171,1.632,1.632,0,0,0,1.085-.861A1.942,1.942,0,0,0,99.981,255.307Zm-22.66-4.758a4.7,4.7,0,0,1,3.24-6.662,7.016,7.016,0,0,1,7.875,3.793,4.694,4.694,0,0,1-3.222,6.665A7.014,7.014,0,0,1,77.321,250.549Z" transform="translate(9504.611 2255.579)" fill="#28236e"/>
    <g id="Group_40672" data-name="Group 40672" transform="translate(9528.289 2409.184)">
      <path id="Path_78829" data-name="Path 78829" d="M108.925,218.2c6.436,14.357-.809,29.135-16.28,32.994-15.561,3.881-33.465-4.765-39.891-19.295-6.406-14.488,1.085-29.226,16.638-32.934C84.851,195.283,102.508,203.887,108.925,218.2Z" transform="translate(-50.462 -198.116)" fill="#fff"/>
    </g>
    <g id="Group_40675" data-name="Group 40675" transform="translate(9543.208 2425.072)">
      <g id="Group_40674" data-name="Group 40674">
        <g id="Group_40673" data-name="Group 40673">
          <path id="Path_78830" data-name="Path 78830" d="M57.023,216.7h0a1.522,1.522,0,0,1-.329-2.273l9-9.181a1.811,1.811,0,0,1,1.717-.414l14.355,3.416a1.889,1.889,0,0,1,1.548,1.962h0a1.547,1.547,0,0,1-2.012,1.117l-12.3-2.92a1.8,1.8,0,0,0-1.717.416l-7.724,7.889A1.95,1.95,0,0,1,57.023,216.7Z" transform="translate(-56.317 -204.768)" fill="#28236e"/>
        </g>
        <path id="Path_78831" data-name="Path 78831" d="M60.478,216.355,63.7,223.6a1.929,1.929,0,0,0,2.15,1.04l14.567-3.588a1.248,1.248,0,0,0,.881-1.781l-3.218-7.214a1.913,1.913,0,0,0-1.3-1.035l-9.006-2.134a1.6,1.6,0,0,0-1.516.367L60.7,214.947A1.246,1.246,0,0,0,60.478,216.355Z" transform="translate(-53.876 -202.307)" fill="#28236e"/>
      </g>
    </g>
    <g id="Group_40677" data-name="Group 40677" transform="translate(9616.401 2613.747)">
      <path id="Path_78832" data-name="Path 78832" d="M153.621,321.249c6.691,14.935-.385,30.746-15.9,35.3-15.611,4.58-33.767-3.974-40.449-19.1-6.663-15.078.668-30.852,16.272-35.247C129.051,297.837,146.951,306.356,153.621,321.249Z" transform="translate(-94.805 -301.062)" fill="#fff"/>
    </g>
    <g id="Group_40679" data-name="Group 40679" transform="translate(9636.351 2625.378)">
      <g id="Group_40678" data-name="Group 40678">
        <path id="Path_78833" data-name="Path 78833" d="M130.2,324.528l-4.715-3.326-2.383-5.343a11.537,11.537,0,0,0-11.62-6.551l-1-2.256a2.148,2.148,0,0,0-2.47-1.174,1.525,1.525,0,0,0-.991,2.156l1.039,2.335a8.153,8.153,0,0,0-3.431,10.787l2.088,4.7-1.2,5.806a1.559,1.559,0,0,0,1.978,1.662l22.5-6.515A1.244,1.244,0,0,0,130.2,324.528Z" transform="translate(-103.815 -305.807)" fill="#28236e"/>
        <path id="Path_78834" data-name="Path 78834" d="M111.037,322.217a4.12,4.12,0,0,0,4.646,2.031,2.944,2.944,0,0,0,1.976-3.951Z" transform="translate(-98.572 -295.288)" fill="#28236e"/>
      </g>
    </g>
    <text id="Tell_a_better_brand_story" data-name="Tell a better brand story" transform="translate(9740.847 2743.856) rotate(-16)" fill="#fff" font-size="16" font-family="Poppins-Medium, Poppins" font-weight="500" letter-spacing="-0.012em"><tspan x="0" y="0">User Profile</tspan></text>
    <text id="Tell_a_better_brand_story-2" data-name="Tell a better brand story" transform="translate(10207.777 2429.127) rotate(16)" fill="#03a71e" font-size="16" font-family="Poppins-Bold, Poppins" font-weight="700" letter-spacing="-0.012em"><tspan x="0" y="0">999/-</tspan></text>
    <text id="Tell_a_better_brand_story-3" data-name="Tell a better brand story" transform="matrix(0.951, -0.309, 0.309, 0.951, 9779.984, 2827.804)" font-size="16" font-family="Poppins-Medium, Poppins" font-weight="500" letter-spacing="-0.012em"><tspan x="0" y="0">Song Title</tspan></text>
    <g transform="matrix(1, 0, 0, 1, 9474.62, 2132.27)" filter="url(#Union_30)">
      <path id="Union_30-2" data-name="Union 30" d="M32.77,47.718l-4.564-4.457L29.3,40.886l3.9,3.81,8.532-1.916,1,2.68Zm8.963-4.938-1-2.67,7.031-1.565.535-3.962,2.5,1.545-.636,4.758Zm-8.1-1.089-3.241-3.17,1.087-2.352L34.067,38.7l5.672-1.251,1,2.665Zm-8.176-4.55L18.63,30.476l2.888-.613L27.2,35.4l3.194,3.116L29.3,40.886Zm14.283.305-.994-2.66,4.224-.923.33-2.37,2.5,1.549-.438,3.163Zm-10.816-3.77-4.529-4.424,2.859-.607,3.391,3.31,1.91,1.868-1.076,2.346Zm5.919-.361a7.122,7.122,0,0,1-.8-.313,7.045,7.045,0,0,1-.757-.408,7.309,7.309,0,0,1-.713-.5,7.923,7.923,0,0,1-.67-.6A8.175,8.175,0,0,1,31.3,30.8a8.435,8.435,0,0,1-.533-.756,9,9,0,0,1-.459-.827q-.211-.431-.384-.9a9.494,9.494,0,0,1-.291-.919,7.91,7.91,0,0,1-.179-.888,6.769,6.769,0,0,1-.067-.856,6.02,6.02,0,0,1,.045-.823,5.436,5.436,0,0,1,.155-.778,4.758,4.758,0,0,1,.26-.711,4.479,4.479,0,0,1,.363-.645,4.573,4.573,0,0,1,.466-.579,4.5,4.5,0,0,1,.557-.5,4.687,4.687,0,0,1,.639-.405,5.276,5.276,0,0,1,.721-.313,6.32,6.32,0,0,1,.8-.221,6.73,6.73,0,0,1,1.024-.133,6.15,6.15,0,0,1,1.984.22,6.6,6.6,0,0,1,.96.352,7,7,0,0,1,.913.5,7.092,7.092,0,0,1,.83.632,7.671,7.671,0,0,1,.749.763,8.774,8.774,0,0,1,.669.893l-3.1.653a4.107,4.107,0,0,0-.327-.327,3.587,3.587,0,0,0-.347-.273,3.245,3.245,0,0,0-.367-.22A3.069,3.069,0,0,0,36,23.581a3.031,3.031,0,0,0-.394-.111,2.889,2.889,0,0,0-.8-.053,3.026,3.026,0,0,0-.4.057,2.894,2.894,0,0,0-.6.192,2.238,2.238,0,0,0-.492.3,2.088,2.088,0,0,0-.385.411,2.408,2.408,0,0,0-.279.521,2.805,2.805,0,0,0-.155.61,3.386,3.386,0,0,0-.025.671,4.494,4.494,0,0,0,.107.733,6.251,6.251,0,0,0,.24.794,6.609,6.609,0,0,0,.343.772,5.357,5.357,0,0,0,.415.668,4.55,4.55,0,0,0,.485.563,4.132,4.132,0,0,0,.554.457,3.758,3.758,0,0,0,.6.339,3.112,3.112,0,0,0,.616.2,2.92,2.92,0,0,0,.631.065A3.155,3.155,0,0,0,37.1,30.7a2.842,2.842,0,0,0,.384-.11,2.408,2.408,0,0,0,.344-.158,2.152,2.152,0,0,0,.3-.2,2.064,2.064,0,0,0,.26-.251,1.984,1.984,0,0,0,.215-.294,2.072,2.072,0,0,0,.16-.333,2.367,2.367,0,0,0,.106-.373,2.894,2.894,0,0,0,.051-.412l3.1-.663a6.828,6.828,0,0,1,.053,1.03,5.386,5.386,0,0,1-.108.948,4.628,4.628,0,0,1-.269.867,4.463,4.463,0,0,1-.432.788,4.372,4.372,0,0,1-.577.679,4.429,4.429,0,0,1-.707.551,5.038,5.038,0,0,1-.838.422,6.271,6.271,0,0,1-.97.291,6.562,6.562,0,0,1-.842.127,6.225,6.225,0,0,1-1.666-.083A6.623,6.623,0,0,1,34.842,33.316ZM21.518,29.863l1.165-7.628.494-3.193L25.7,20.6l-.385,2.563-.922,6.09Zm-5.683,1.206-.069-.189,1.643-10.5.705-4.475,2.533,1.567-.6,3.833L18.63,30.476ZM25.7,20.6l.475-3.138L31.837,16.3l.981,2.626-4.244.876-.349,2.356Zm11.752-5.442L31.837,16.3l-.979-2.62-7.086,1.434-.6,3.924-2.53-1.566.726-4.7,8.507-1.7L28.9,8.458,38.7,6.516l4.439,4.338L42.1,13.111l-3.81-3.725L29.88,11.069l.977,2.615,7.015-1.419,3.185,3.112-1.05,2.27Z" transform="translate(225.7 202.96)" fill="#28236e"/>
    </g>
  </g>
</svg>
