<svg xmlns="http://www.w3.org/2000/svg" width="25" height="39" viewBox="0 0 25 39">
  <g id="Group_39769" data-name="Group 39769" transform="translate(-897 -996)">
    <g id="Path_78018" data-name="Path 78018" transform="translate(897 996)" fill="none">
      <path d="M12.5,0A12.5,12.5,0,0,1,25,12.5v14a12.5,12.5,0,0,1-25,0v-14A12.5,12.5,0,0,1,12.5,0Z" stroke="none"/>
      <path d="M 12.5 2 C 6.71027946472168 2 2 6.710281372070312 2 12.5 L 2 26.5 C 2 32.28971862792969 6.71027946472168 37 12.5 37 C 18.28972053527832 37 23 32.28971862792969 23 26.5 L 23 12.5 C 23 6.710281372070312 18.28972053527832 2 12.5 2 M 12.5 0 C 19.40356063842773 0 25 5.596439361572266 25 12.5 L 25 26.5 C 25 33.40356063842773 19.40356063842773 39 12.5 39 C 5.596439361572266 39 0 33.40356063842773 0 26.5 L 0 12.5 C 0 5.596439361572266 5.596439361572266 0 12.5 0 Z" stroke="none" fill="#000"/>
    </g>
    <path id="Icon_awesome-arrow-down" data-name="Icon awesome-arrow-down" d="M9.388,6.453l.49.49a.527.527,0,0,1,0,.748L5.59,11.981a.527.527,0,0,1-.748,0L.553,7.691a.527.527,0,0,1,0-.748l.49-.49a.53.53,0,0,1,.757.009L4.333,9.121V2.78a.528.528,0,0,1,.53-.53h.706a.528.528,0,0,1,.53.53V9.121L8.631,6.462A.526.526,0,0,1,9.388,6.453Z" transform="translate(904.285 1008.307)"/>
  </g>
</svg>
