<svg xmlns="http://www.w3.org/2000/svg" width="438.001" height="465.74" viewBox="0 0 438.001 465.74">
  <g id="Group_40468" data-name="Group 40468" transform="translate(-807.757 -4080.301)">
    <path id="Path_78463" data-name="Path 78463" d="M456.032,14.573H360v33.27h76.824L457.407,83.5l24.356-24.357Z" transform="translate(715.284 4132.268)" fill="#4e17e2" fill-rule="evenodd"/>
    <path id="Path_78464" data-name="Path 78464" d="M494.45-16.863H360v33.27H475.241l30.877,53.481,24.355-24.355Z" transform="translate(715.284 4097.165)" fill="#0bf" fill-rule="evenodd"/>
    <path id="Path_78465" data-name="Path 78465" d="M411.388,63.562V30.291H334.564L313.98,65.944,338.336,90.3l15.437-26.737Z" transform="translate(663.896 4149.82)" fill="#0bf" fill-rule="evenodd"/>
    <path id="Path_78466" data-name="Path 78466" d="M437.085-1.145H321.844L290.967,52.336l24.355,24.355,25.731-44.566h96.032Z" transform="translate(638.198 4114.714)" fill="#4e17e2" fill-rule="evenodd"/>
    <path id="Path_78467" data-name="Path 78467" d="M347.217,88.908l16.7-28.923L339.559,35.628,318.684,71.785,269.261,157.4h38.417Z" transform="translate(613.961 4155.781)" fill="#4e17e2" fill-rule="evenodd"/>
    <path id="Path_78468" data-name="Path 78468" d="M329.965,80.359,355.016,36.97,330.661,12.615l-29.226,50.62L233.608,180.722v2.367l37.047.005Z" transform="translate(574.149 4130.083)" fill="#0bf" fill-rule="evenodd"/>
    <path id="Path_78469" data-name="Path 78469" d="M352.807,139.888,325.828,93.156l-38.417,0,35.974,62.311,20.262,35.093L368,166.207Z" transform="translate(634.227 4220.016)" fill="#0bf" fill-rule="evenodd"/>
    <path id="Path_78470" data-name="Path 78470" d="M334.5,171.049,289.528,93.157H251.111l53.964,93.473,30.394,52.643,24.357-24.357Z" transform="translate(593.694 4220.019)" fill="#4e17e2" fill-rule="evenodd"/>
    <path id="Path_78471" data-name="Path 78471" d="M424.237,174.827H347.414l-20.585-35.652-24.356,24.356L328.2,208.1h96.032Z" transform="translate(651.046 4271.404)" fill="#4e17e2" fill-rule="evenodd"/>
    <path id="Path_78472" data-name="Path 78472" d="M449.936,215.67H334.695l-30.881-53.481-24.355,24.355,36.027,62.4H449.936Z" transform="translate(625.348 4297.102)" fill="#0bf" fill-rule="evenodd"/>
    <path id="Path_78473" data-name="Path 78473" d="M457.408,152.024l-24.355-24.355-15.438,26.737H360v33.269h76.824Z" transform="translate(715.284 4258.555)" fill="#0bf" fill-rule="evenodd"/>
    <path id="Path_78474" data-name="Path 78474" d="M456.032,195.25H360v33.27H475.241l30.88-53.481-24.357-24.357Z" transform="translate(715.284 4284.253)" fill="#4e17e2" fill-rule="evenodd"/>
    <path id="Path_78475" data-name="Path 78475" d="M321.97,137.01q0-23.415,10.133-41.763a72.4,72.4,0,0,1,28.255-28.594q18.122-10.246,41.086-10.245,28.143,0,48.181,14.861t26.792,40.525H434.091a34.188,34.188,0,0,0-13.4-15.085A37.659,37.659,0,0,0,401,91.532q-17.787,0-28.818,12.382t-11.032,33.1q0,20.713,11.032,33.1T401,182.488a37.679,37.679,0,0,0,19.7-5.177,34.2,34.2,0,0,0,13.4-15.085h42.326q-6.757,25.666-26.792,40.413t-48.181,14.747q-22.961,0-41.086-10.245A72.6,72.6,0,0,1,332.1,178.661Q321.968,160.424,321.97,137.01Z" transform="translate(667.914 4187.073)" fill="#28236e" fill-rule="evenodd"/>
  </g>
</svg>
