<svg xmlns="http://www.w3.org/2000/svg" width="41.8" height="41.8" viewBox="0 0 41.8 41.8">
  <path id="Icon_awesome-linkedin" data-name="Icon awesome-linkedin" d="M38.814,2.25H2.976A3,3,0,0,0,0,5.264V41.036A3,3,0,0,0,2.976,44.05H38.814A3.007,3.007,0,0,0,41.8,41.036V5.264A3.007,3.007,0,0,0,38.814,2.25ZM12.633,38.078h-6.2V18.13h6.2V38.078Zm-3.1-22.673a3.592,3.592,0,1,1,3.592-3.592,3.594,3.594,0,0,1-3.592,3.592ZM35.856,38.078h-6.2v-9.7c0-2.314-.047-5.29-3.219-5.29-3.228,0-3.723,2.519-3.723,5.122v9.871h-6.2V18.13h5.943v2.724h.084a6.525,6.525,0,0,1,5.869-3.219c6.27,0,7.436,4.133,7.436,9.508Z" transform="translate(0 -2.25)" fill="#0bf"/>
</svg>
