<svg xmlns="http://www.w3.org/2000/svg" width="56.825" height="56.825" viewBox="0 0 56.825 56.825">
  <path id="Icon_awesome-facebook-square" data-name="Icon awesome-facebook-square" d="M50.737,2.25H6.088A6.088,6.088,0,0,0,0,8.338V52.987a6.088,6.088,0,0,0,6.088,6.088H23.5V39.756H15.506V30.663H23.5V23.732c0-7.883,4.693-12.238,11.881-12.238a48.411,48.411,0,0,1,7.042.614v7.737H38.455c-3.908,0-5.127,2.425-5.127,4.913v5.9h8.724l-1.4,9.093H33.328V59.075H50.737a6.088,6.088,0,0,0,6.088-6.088V8.338A6.088,6.088,0,0,0,50.737,2.25Z" transform="translate(0 -2.25)" fill="#4e17e2"/>
</svg>
