<svg xmlns="http://www.w3.org/2000/svg" width="59.449" height="41.8" viewBox="0 0 59.449 41.8">
  <path id="Icon_awesome-youtube" data-name="Icon awesome-youtube" d="M59.256,11.04A7.47,7.47,0,0,0,54,5.75C49.364,4.5,30.774,4.5,30.774,4.5s-18.59,0-23.226,1.25a7.47,7.47,0,0,0-5.256,5.29c-1.242,4.666-1.242,14.4-1.242,14.4s0,9.736,1.242,14.4A7.359,7.359,0,0,0,7.548,45.05c4.636,1.25,23.226,1.25,23.226,1.25s18.59,0,23.226-1.25a7.359,7.359,0,0,0,5.256-5.205c1.242-4.666,1.242-14.4,1.242-14.4s0-9.736-1.242-14.4ZM24.694,34.281V16.6l15.538,8.839L24.694,34.281Z" transform="translate(-1.05 -4.5)" fill="#e21717"/>
</svg>
