<svg xmlns="http://www.w3.org/2000/svg" width="34" height="32" viewBox="0 0 34 32">
  <path id="Icon_awesome-chart-pie" data-name="Icon awesome-chart-pie" d="M32.987,18H18.156l9.877,9.877a1,1,0,0,0,1.387.043,14.969,14.969,0,0,0,4.571-8.8,1,1,0,0,0-1-1.116ZM32,13.95A15.036,15.036,0,0,0,18.05,0,1.006,1.006,0,0,0,17,1.015V15H30.986A1,1,0,0,0,32,13.95ZM14,18V3.169a1,1,0,0,0-1.115-1A14.989,14.989,0,0,0,.009,17.523,15.185,15.185,0,0,0,15.19,32a14.884,14.884,0,0,0,8.454-2.752.993.993,0,0,0,.1-1.505Z" transform="translate(0 0)" fill="#28236e"/>
</svg>
