<svg xmlns="http://www.w3.org/2000/svg" width="35.556" height="32" viewBox="0 0 35.556 32">
  <path id="Icon_material-developer-board" data-name="Icon material-developer-board" d="M38.556,15.167V11.611H35V8.056A3.566,3.566,0,0,0,31.444,4.5H6.556A3.566,3.566,0,0,0,3,8.056V32.944A3.566,3.566,0,0,0,6.556,36.5H31.444A3.566,3.566,0,0,0,35,32.944V29.389h3.556V25.833H35V22.278h3.556V18.722H35V15.167ZM31.444,32.944H6.556V8.056H31.444ZM10.111,22.278H19v7.111H10.111ZM20.778,11.611h7.111v5.333H20.778Zm-10.667,0H19V20.5H10.111Zm10.667,7.111h7.111V29.389H20.778Z" transform="translate(-3 -4.5)" fill="#28236e"/>
</svg>
