<svg xmlns="http://www.w3.org/2000/svg" xmlns:xlink="http://www.w3.org/1999/xlink" width="112.247" height="110" viewBox="0 0 112.247 110">
  <defs>
    <filter id="Icon_simple-hipchat" x="0" y="0" width="112.247" height="110" filterUnits="userSpaceOnUse">
      <feOffset dy="3" input="SourceAlpha"/>
      <feGaussianBlur stdDeviation="13" result="blur"/>
      <feFlood flood-opacity="0.149"/>
      <feComposite operator="in" in2="blur"/>
      <feComposite in="SourceGraphic"/>
    </filter>
  </defs>
  <g transform="matrix(1, 0, 0, 1, 0, 0)" filter="url(#Icon_simple-hipchat)">
    <path id="Icon_simple-hipchat-2" data-name="Icon simple-hipchat" d="M28.163,27.25s.147-.1.381-.283a13.954,13.954,0,0,0,5.7-11.015c0-8.155-7.667-14.772-17.119-14.772S0,7.8,0,15.953,7.664,30.73,17.121,30.73a19.637,19.637,0,0,0,3.6-.325l.374-.064a17.822,17.822,0,0,0,8.973,2.84.919.919,0,0,0,.788-1.575,17.332,17.332,0,0,1-2.694-4.355Zm-2.086-6.459a11.069,11.069,0,0,1-8.924,4.123h-.066a11.083,11.083,0,0,1-8.924-4.123,1.622,1.622,0,0,1-.39-.819.7.7,0,0,1,.638-.751.076.076,0,0,1,.03,0,.9.9,0,0,1,.468.158,13.038,13.038,0,0,0,8.211,2.934,12.565,12.565,0,0,0,8.219-2.938.658.658,0,0,1,.447-.174.688.688,0,0,1,.689.678,1.885,1.885,0,0,1-.382.918h-.016Z" transform="translate(39 34.82)" fill="#28236e"/>
  </g>
</svg>
