<svg xmlns="http://www.w3.org/2000/svg" width="56.825" height="56.825" viewBox="0 0 56.825 56.825">
  <path id="instagram-brands_1_" data-name="instagram-brands(1)" d="M28.344,45.668A14.569,14.569,0,1,0,42.91,60.238,14.545,14.545,0,0,0,28.344,45.668Zm0,24.041a9.472,9.472,0,1,1,9.47-9.472,9.488,9.488,0,0,1-9.47,9.472ZM46.9,45.072a3.4,3.4,0,1,1-3.4-3.4A3.39,3.39,0,0,1,46.9,45.072Zm9.647,3.449c-.216-4.552-1.255-8.584-4.589-11.906s-7.353-4.362-11.9-4.59c-4.691-.266-18.749-.266-23.44,0-4.538.216-8.57,1.255-11.9,4.577S.353,43.957.125,48.509c-.266,4.692-.266,18.754,0,23.445C.34,76.506,1.38,80.538,4.714,83.86s7.353,4.362,11.9,4.59c4.691.266,18.749.266,23.44,0,4.551-.216,8.582-1.255,11.9-4.59s4.361-7.354,4.589-11.906C56.817,67.262,56.817,53.213,56.551,48.521Zm-6.06,28.466a9.588,9.588,0,0,1-5.4,5.4c-3.74,1.484-12.614,1.141-16.746,1.141s-13.019.33-16.746-1.141a9.588,9.588,0,0,1-5.4-5.4c-1.483-3.741-1.141-12.617-1.141-16.75S4.726,47.215,6.2,43.487a9.588,9.588,0,0,1,5.4-5.4c3.74-1.484,12.614-1.141,16.746-1.141s13.019-.33,16.746,1.141a9.588,9.588,0,0,1,5.4,5.4c1.483,3.741,1.141,12.617,1.141,16.75S51.974,73.26,50.491,76.988Z" transform="translate(0.075 -31.825)" fill="#dd00cd"/>
</svg>
