<svg xmlns="http://www.w3.org/2000/svg" width="198.84" height="57.343" viewBox="0 0 198.84 57.343">
  <g id="logo" transform="translate(-140 -31)">
    <path id="Path_78136" data-name="Path 78136" d="M4887.828,10290H4876v4.095h9.457l2.541,4.386,3-2.991Z" transform="translate(-4703.059 -10250.81)" fill="#4e17e2" fill-rule="evenodd"/>
    <path id="Path_78137" data-name="Path 78137" d="M4892.552,9326H4876v4.1h14.19l3.8,6.585,3-3Z" transform="translate(-4703.059 -9295)" fill="#0bf" fill-rule="evenodd"/>
    <path id="Path_78138" data-name="Path 78138" d="M3476.989,10776.1v-4.1h-9.457l-2.532,4.384,3,3,1.895-3.289Z" transform="translate(-3304.047 -10728.714)" fill="#0bf" fill-rule="evenodd"/>
    <path id="Path_78139" data-name="Path 78139" d="M2776.987,9808H2762.8l-3.8,6.584,3,3,3.161-5.488h11.827Z" transform="translate(-2604.046 -9772.905)" fill="#4e17e2" fill-rule="evenodd"/>
    <path id="Path_78140" data-name="Path 78140" d="M2102.6,10942.56l2.056-3.568-3-2.991-2.575,4.443-6.083,10.545h4.733Z" transform="translate(-1943.705 -10891.32)" fill="#4e17e2" fill-rule="evenodd"/>
    <path id="Path_78141" data-name="Path 78141" d="M1010.87,10238.334l3.084-5.335-3-3-3.6,6.228L999,10250.7v.289h4.563Z" transform="translate(-859 -10191.319)" fill="#0bf" fill-rule="evenodd"/>
    <path id="Path_78142" data-name="Path 78142" d="M2658.046,12705.752l-3.322-5.752H2650l4.427,7.672,2.5,4.325,2.991-3Z" transform="translate(-2495.972 -12640.332)" fill="#0bf" fill-rule="evenodd"/>
    <path id="Path_78143" data-name="Path 78143" d="M1546.273,12709.593l-5.54-9.593H1536l6.644,11.513,3.747,6.475,3-3Z" transform="translate(-1391.438 -12640.332)" fill="#4e17e2" fill-rule="evenodd"/>
    <path id="Path_78144" data-name="Path 78144" d="M3126.988,14116.384h-9.457L3115,14112l-3,2.991,3.16,5.488h11.828Z" transform="translate(-2954.047 -14040.335)" fill="#4e17e2" fill-rule="evenodd"/>
    <path id="Path_78145" data-name="Path 78145" d="M2426.987,14823.585H2412.8L2409,14817l-3,3,4.435,7.688h16.552Z" transform="translate(-2254.045 -14739.346)" fill="#0bf" fill-rule="evenodd"/>
    <path id="Path_78146" data-name="Path 78146" d="M4888,13762l-3-3-1.9,3.289H4876v4.1h9.457Z" transform="translate(-4703.059 -13690.334)" fill="#0bf" fill-rule="evenodd"/>
    <path id="Path_78147" data-name="Path 78147" d="M4887.828,14469.489H4876v4.095h14.19L4894,14467l-3-3Z" transform="translate(-4703.059 -14389.344)" fill="#4e17e2" fill-rule="evenodd"/>
    <path id="Path_78148" data-name="Path 78148" d="M3710,11485.757a10.525,10.525,0,0,1,1.24-5.141,8.915,8.915,0,0,1,3.484-3.526,10.079,10.079,0,0,1,5.055-1.257,9.686,9.686,0,0,1,5.931,1.827,8.838,8.838,0,0,1,3.305,4.987H3723.8a4.176,4.176,0,0,0-1.649-1.853,4.622,4.622,0,0,0-2.421-.638,4.551,4.551,0,0,0-3.552,1.521,6.783,6.783,0,0,0,0,8.147,4.529,4.529,0,0,0,3.552,1.53,4.622,4.622,0,0,0,2.421-.638,4.153,4.153,0,0,0,1.649-1.861h5.217a8.767,8.767,0,0,1-3.305,4.979,9.737,9.737,0,0,1-5.931,1.818,10.084,10.084,0,0,1-5.055-1.266,8.937,8.937,0,0,1-3.484-3.51A10.438,10.438,0,0,1,3710,11485.757Zm31.429-5.879a5.513,5.513,0,0,1,4.273,1.758,6.925,6.925,0,0,1,1.606,4.843v9.032h-4.716v-8.395a3.39,3.39,0,0,0-.8-2.413,3.152,3.152,0,0,0-4.324,0,3.394,3.394,0,0,0-.807,2.413v8.395h-4.741V11475h4.741v7.119a5.125,5.125,0,0,1,1.972-1.63A6.259,6.259,0,0,1,3741.429,11479.878Zm23.756,7.654a11.309,11.309,0,0,1-.085,1.386h-10.723a3.237,3.237,0,0,0,.926,2.2,2.832,2.832,0,0,0,2.013.766,2.49,2.49,0,0,0,2.464-1.5h5.047a6.986,6.986,0,0,1-3.934,4.657,8.886,8.886,0,0,1-7.46-.28,6.9,6.9,0,0,1-2.77-2.77,8.5,8.5,0,0,1-1-4.216,8.7,8.7,0,0,1,.986-4.214,6.819,6.819,0,0,1,2.761-2.77,8.367,8.367,0,0,1,4.07-.97,8.276,8.276,0,0,1,3.993.944,6.732,6.732,0,0,1,2.727,2.685A8.1,8.1,0,0,1,3765.186,11487.532Zm-4.851-1.248a2.435,2.435,0,0,0-.833-1.947,3.059,3.059,0,0,0-2.073-.713,3.015,3.015,0,0,0-2.014.688,3.1,3.1,0,0,0-1.011,1.972Zm6.406,1.494a8.7,8.7,0,0,1,.986-4.214,6.835,6.835,0,0,1,2.744-2.77,8.224,8.224,0,0,1,4.027-.97,7.69,7.69,0,0,1,4.869,1.521,7.221,7.221,0,0,1,2.566,4.3h-5.047a2.431,2.431,0,0,0-2.464-1.775,2.489,2.489,0,0,0-2.081,1.011,5.812,5.812,0,0,0,0,5.794,2.49,2.49,0,0,0,2.081,1.012,2.431,2.431,0,0,0,2.464-1.776h5.047a7.271,7.271,0,0,1-2.583,4.274,7.606,7.606,0,0,1-4.852,1.546,8.212,8.212,0,0,1-4.027-.968,6.841,6.841,0,0,1-2.744-2.77A8.683,8.683,0,0,1,3766.741,11487.778Zm27.164,7.732-4.707-6.483v6.483h-4.741V11475h4.741v11.335l4.682-6.288h5.846l-6.432,7.758,6.491,7.706Zm27.419-15.633a6.13,6.13,0,0,1,4.588,1.749,6.638,6.638,0,0,1,1.7,4.852v9.032H3822.9v-8.395a3.2,3.2,0,0,0-.79-2.319,3.309,3.309,0,0,0-4.35,0,3.2,3.2,0,0,0-.79,2.319v8.395h-4.716v-8.395a3.2,3.2,0,0,0-.79-2.319,3.309,3.309,0,0,0-4.35,0,3.2,3.2,0,0,0-.79,2.319v8.395h-4.741v-15.464h4.741v1.937a5.053,5.053,0,0,1,1.886-1.537,5.965,5.965,0,0,1,2.634-.568,6.479,6.479,0,0,1,3.118.747,5.355,5.355,0,0,1,2.141,2.141,6.231,6.231,0,0,1,2.192-2.082A5.948,5.948,0,0,1,3821.323,11479.878Zm8.675,7.875a9.246,9.246,0,0,1,.9-4.188,6.738,6.738,0,0,1,2.456-2.77,6.417,6.417,0,0,1,3.467-.97,5.956,5.956,0,0,1,2.863.664,4.925,4.925,0,0,1,1.9,1.75v-2.192h4.741v15.464h-4.741v-2.184a5.173,5.173,0,0,1-1.929,1.742,5.976,5.976,0,0,1-2.872.662,6.279,6.279,0,0,1-3.433-.978,6.891,6.891,0,0,1-2.456-2.8A9.291,9.291,0,0,1,3830,11487.753Zm11.589.025a3.871,3.871,0,0,0-.986-2.795,3.177,3.177,0,0,0-2.4-1.027,3.256,3.256,0,0,0-2.405,1.011,3.828,3.828,0,0,0-.977,2.786,3.935,3.935,0,0,0,.977,2.813,3.315,3.315,0,0,0,4.8.017A3.9,3.9,0,0,0,3841.588,11487.778Zm16.8,3.713v4.02h-2.413a5.9,5.9,0,0,1-4.019-1.258,5.226,5.226,0,0,1-1.445-4.121v-6.15h-1.886v-3.935h1.886v-3.772h4.741v3.772h3.1v3.935h-3.1v6.211a1.3,1.3,0,0,0,.331.993,1.63,1.63,0,0,0,1.113.306Zm17.214-3.959a13.3,13.3,0,0,1-.085,1.386h-10.731a3.243,3.243,0,0,0,.935,2.2,2.827,2.827,0,0,0,2.005.766,2.509,2.509,0,0,0,2.472-1.5h5.039a6.947,6.947,0,0,1-1.394,2.744,7.16,7.16,0,0,1-2.541,1.913,8.2,8.2,0,0,1-3.407.688,8.337,8.337,0,0,1-4.053-.968,6.954,6.954,0,0,1-2.77-2.77,9.47,9.47,0,0,1-.009-8.43,6.806,6.806,0,0,1,2.753-2.77,8.379,8.379,0,0,1,4.079-.97,8.276,8.276,0,0,1,3.993.944,6.734,6.734,0,0,1,2.728,2.685A8.189,8.189,0,0,1,3875.6,11487.532Zm-4.852-1.248a2.46,2.46,0,0,0-.833-1.947,3.081,3.081,0,0,0-2.082-.713,3.009,3.009,0,0,0-2.005.688,3.1,3.1,0,0,0-1.011,1.972Z" transform="translate(-3546.966 -11425.74)" fill="#28236e"/>
    <path id="Path_78149" data-name="Path 78149" d="M7547,14381.53a4.9,4.9,0,0,1,.62-2.464,4.4,4.4,0,0,1,1.683-1.707,4.606,4.606,0,0,1,2.37-.619,4.8,4.8,0,0,1,2.668.737,4.23,4.23,0,0,1,1.666,2.091h-1.462a3,3,0,0,0-1.122-1.3,3.2,3.2,0,0,0-1.75-.46,3.381,3.381,0,0,0-1.759.46,3.227,3.227,0,0,0-1.224,1.3,4.568,4.568,0,0,0,0,3.918,3.2,3.2,0,0,0,1.224,1.29,3.381,3.381,0,0,0,1.759.46,3.286,3.286,0,0,0,1.75-.45,2.933,2.933,0,0,0,1.122-1.292h1.462a4.2,4.2,0,0,1-1.666,2.072,4.848,4.848,0,0,1-2.668.731,4.7,4.7,0,0,1-2.37-.611,4.438,4.438,0,0,1-1.683-1.7A4.846,4.846,0,0,1,7547,14381.53Zm12.04-1.477a2.313,2.313,0,0,1,.917-.978,2.873,2.873,0,0,1,1.453-.35v1.259h-.314c-1.376,0-2.056.748-2.056,2.225v4h-1.224v-7.349h1.224Zm10.494,2.2a7.189,7.189,0,0,1-.043.737h-5.88a2.421,2.421,0,0,0,.748,1.7,2.367,2.367,0,0,0,1.648.612,2.222,2.222,0,0,0,1.317-.375,1.917,1.917,0,0,0,.748-.984h1.317a3.228,3.228,0,0,1-1.182,1.725,3.576,3.576,0,0,1-2.2.664,3.712,3.712,0,0,1-1.878-.469,3.358,3.358,0,0,1-1.292-1.335,4.126,4.126,0,0,1-.467-2,4.2,4.2,0,0,1,.451-2,3.187,3.187,0,0,1,1.283-1.316,3.835,3.835,0,0,1,1.9-.468,3.7,3.7,0,0,1,1.853.458,3.2,3.2,0,0,1,1.24,1.259A3.681,3.681,0,0,1,7569.533,14382.255Zm-1.258-.255a2.252,2.252,0,0,0-.314-1.2,1.954,1.954,0,0,0-.833-.765,2.579,2.579,0,0,0-1.181-.265,2.238,2.238,0,0,0-1.572.6,2.378,2.378,0,0,0-.748,1.632Zm2.413.508a4.136,4.136,0,0,1,.458-1.979,3.272,3.272,0,0,1,1.25-1.316,3.451,3.451,0,0,1,1.784-.476,3.341,3.341,0,0,1,1.674.415,2.809,2.809,0,0,1,1.062,1.055v-1.342h1.232v7.349h-1.232v-1.369a2.964,2.964,0,0,1-1.08,1.072,3.259,3.259,0,0,1-1.673.417,3.432,3.432,0,0,1-1.776-.477,3.381,3.381,0,0,1-1.241-1.359A4.2,4.2,0,0,1,7570.688,14382.508Zm6.228.018a2.958,2.958,0,0,0-.34-1.452,2.415,2.415,0,0,0-.9-.944,2.572,2.572,0,0,0-2.507-.008,2.365,2.365,0,0,0-.9.942,3,3,0,0,0-.331,1.444,3.088,3.088,0,0,0,.331,1.472,2.391,2.391,0,0,0,2.15,1.282,2.448,2.448,0,0,0,1.258-.333,2.322,2.322,0,0,0,.9-.949A2.968,2.968,0,0,0,7576.917,14382.525Zm4.792-2.659v4.333a1.058,1.058,0,0,0,.221.757,1.11,1.11,0,0,0,.8.229h.893v1.027h-1.1a2.184,2.184,0,0,1-1.53-.467,2.029,2.029,0,0,1-.51-1.547v-4.333h-.951v-1h.951v-1.853h1.224v1.853h1.912v1Zm4.019-2.2a.789.789,0,0,1-.586-.238.836.836,0,0,1,.586-1.427.788.788,0,0,1,.578.245.877.877,0,0,1,0,1.182A.771.771,0,0,1,7585.728,14377.665Zm.595,1.2v7.349H7585.1v-7.349Zm4.817,6.22,2.277-6.22h1.309l-2.889,7.349h-1.419l-2.889-7.349h1.317Zm11.505-2.829c0,.237-.018.482-.043.737h-5.879a2.318,2.318,0,0,0,2.387,2.312,2.268,2.268,0,0,0,1.326-.375,1.9,1.9,0,0,0,.739-.984h1.317a3.137,3.137,0,0,1-1.181,1.725,3.561,3.561,0,0,1-2.2.664,3.7,3.7,0,0,1-1.869-.469,3.314,3.314,0,0,1-1.3-1.335,4.571,4.571,0,0,1-.009-4.009,3.186,3.186,0,0,1,1.283-1.316,3.8,3.8,0,0,1,1.895-.468,3.678,3.678,0,0,1,1.853.458,3.145,3.145,0,0,1,1.24,1.259A3.691,3.691,0,0,1,7602.645,14382.255Zm-1.267-.255a2.236,2.236,0,0,0-.306-1.2,1.973,1.973,0,0,0-.841-.765,2.565,2.565,0,0,0-1.172-.265,2.244,2.244,0,0,0-1.58.6,2.37,2.37,0,0,0-.74,1.632Zm12.21-5.143v.994h-2.549v8.361h-1.215v-8.361h-2.566v-.994Zm5.157,1.869a3.18,3.18,0,0,1,1.5.357,2.54,2.54,0,0,1,1.053,1.063,3.631,3.631,0,0,1,.382,1.733v4.333h-1.207v-4.155a2.373,2.373,0,0,0-.552-1.689,2.25,2.25,0,0,0-3.041.025,2.444,2.444,0,0,0-.57,1.759v4.061h-1.223v-9.933h1.223v3.628a2.381,2.381,0,0,1,1-.874A3.24,3.24,0,0,1,7618.746,14378.727Zm5.565-1.062a.789.789,0,0,1-.586-.238.836.836,0,0,1,.586-1.427.755.755,0,0,1,.569.245.853.853,0,0,1,0,1.182A.739.739,0,0,1,7624.311,14377.665Zm.595,1.2v7.349h-1.224v-7.349Zm5.659-.138a2.992,2.992,0,0,1,2.175.808,3.149,3.149,0,0,1,.833,2.346v4.333h-1.207v-4.155a2.375,2.375,0,0,0-.552-1.689,1.982,1.982,0,0,0-1.5-.579,2.009,2.009,0,0,0-1.538.6,2.486,2.486,0,0,0-.57,1.759v4.061h-1.215v-7.349h1.215v1.044a2.446,2.446,0,0,1,.986-.874A3.072,3.072,0,0,1,7630.564,14378.727Zm9.117,7.486-2.889-3.246v3.246h-1.224v-9.933h1.224v5.837l2.829-3.253h1.708l-3.458,3.661,3.476,3.688Zm3.432-8.548a.788.788,0,0,1-.586-.238.836.836,0,0,1,.586-1.427.769.769,0,0,1,.57.245.854.854,0,0,1,0,1.182A.752.752,0,0,1,7643.114,14377.665Zm.595,1.2v7.349h-1.223v-7.349Zm5.659-.138a3.006,3.006,0,0,1,2.175.808,3.149,3.149,0,0,1,.833,2.346v4.333h-1.207v-4.155a2.375,2.375,0,0,0-.552-1.689,2.25,2.25,0,0,0-3.042.025,2.484,2.484,0,0,0-.569,1.759v4.061h-1.224v-7.349h1.224v1.044a2.441,2.441,0,0,1,.985-.874A3.072,3.072,0,0,1,7649.368,14378.727Zm8.038.01a3.342,3.342,0,0,1,1.674.415,2.751,2.751,0,0,1,1.062,1.055v-1.342h1.24v7.51a3.66,3.66,0,0,1-.433,1.793,3.016,3.016,0,0,1-1.223,1.223,3.769,3.769,0,0,1-1.861.452,4.021,4.021,0,0,1-2.413-.689,2.686,2.686,0,0,1-1.147-1.859h1.215a1.9,1.9,0,0,0,.824,1.077,2.742,2.742,0,0,0,1.521.409,2.241,2.241,0,0,0,1.64-.629,2.393,2.393,0,0,0,.637-1.776v-1.545a2.887,2.887,0,0,1-1.071,1.077,3.124,3.124,0,0,1-1.666.427,3.327,3.327,0,0,1-3.033-1.836,4.186,4.186,0,0,1-.45-1.989,4.128,4.128,0,0,1,.45-1.979,3.3,3.3,0,0,1,1.258-1.316A3.42,3.42,0,0,1,7657.405,14378.736Zm2.736,3.789a3.043,3.043,0,0,0-.332-1.452,2.376,2.376,0,0,0-.909-.944,2.43,2.43,0,0,0-1.249-.33,2.478,2.478,0,0,0-1.249.322,2.3,2.3,0,0,0-.9.942,3,3,0,0,0-.34,1.444,3.09,3.09,0,0,0,.34,1.472,2.317,2.317,0,0,0,.9.949,2.508,2.508,0,0,0,2.5,0,2.286,2.286,0,0,0,.909-.949A3.054,3.054,0,0,0,7660.142,14382.525Z" transform="translate(-7351.363 -14302.092)" fill="#4e17e2"/>
    <path id="Path_78150" data-name="Path 78150" d="M23502.842,11077a3.8,3.8,0,0,1,1.963.5,3.55,3.55,0,0,1,1.367,1.377,4.033,4.033,0,0,1,.492,1.98,4.089,4.089,0,0,1-.492,1.987,3.576,3.576,0,0,1-1.367,1.385,3.881,3.881,0,0,1-1.963.5,3.943,3.943,0,0,1-1.99-.5,3.565,3.565,0,0,1-1.357-1.385,4.006,4.006,0,0,1-.494-1.987,3.951,3.951,0,0,1,.494-1.98,3.538,3.538,0,0,1,1.357-1.377A3.865,3.865,0,0,1,23502.842,11077Zm0,6.976a2.926,2.926,0,0,0,2.2-.867,3.432,3.432,0,0,0,0-4.5,2.935,2.935,0,0,0-2.2-.875,2.9,2.9,0,0,0-2.2.875,3.494,3.494,0,0,0,0,4.5A2.892,2.892,0,0,0,23502.842,11083.976Zm1.7-3.917a1.19,1.19,0,0,1-.238.765,1.282,1.282,0,0,1-.646.451l1.055,1.571-1.189.017-.91-1.513h-.32v1.513h-.98v-4.069h1.811a1.51,1.51,0,0,1,1.037.339A1.185,1.185,0,0,1,23504.541,11080.059Zm-2.25.475h.779a.591.591,0,0,0,.35-.109.4.4,0,0,0,.143-.323.359.359,0,0,0-.143-.313.587.587,0,0,0-.35-.1h-.779Z" transform="translate(-23167.824 -11031.122)" fill="#28236e"/>
  </g>
</svg>
