<svg xmlns="http://www.w3.org/2000/svg" width="41.907" height="33.216" viewBox="0 0 41.907 33.216">
  <path id="Union_1" data-name="Union 1" d="M-4100.228,32a2.583,2.583,0,0,1-1.834-.758,2.578,2.578,0,0,1-.764-1.84V19.376a7.559,7.559,0,0,0,2.706.5h2.491v9.5a2.619,2.619,0,0,1-2.589,2.63Zm-1.314-3.475a1.315,1.315,0,0,0,1.314,1.314,1.316,1.316,0,0,0,1.314-1.314,1.315,1.315,0,0,0-1.314-1.314A1.315,1.315,0,0,0-4101.542,28.525Zm.657,0a.658.658,0,0,1,.657-.657.657.657,0,0,1,.657.657.657.657,0,0,1-.657.657A.658.658,0,0,1-4100.885,28.525Zm19.106-4.773V.874l2.387-.874V24.626Zm-12.135-4.439v-14l11.477-4.2v22.4Zm-3.387-.1h-2.819a6.91,6.91,0,0,1-6.9-6.9,6.91,6.91,0,0,1,6.9-6.9h5.549v13.8Zm24.774-.443L-4074.8,16.5a.493.493,0,0,1,0-.7.494.494,0,0,1,.7,0l2.276,2.276a.489.489,0,0,1,.145.349.493.493,0,0,1-.145.349.49.49,0,0,1-.349.144A.494.494,0,0,1-4072.528,18.773Zm-6.207-9.024a2.6,2.6,0,0,1,2.173,2.528,2.615,2.615,0,0,1-2.173,2.6Zm-29.515,4.315a1.739,1.739,0,0,1-1.238-.513,1.741,1.741,0,0,1-.512-1.238,1.752,1.752,0,0,1,1.75-1.75h.773a7.6,7.6,0,0,0-.2,1.75,7.583,7.583,0,0,0,.2,1.75Zm35.445-1.257a.494.494,0,0,1-.493-.492.494.494,0,0,1,.493-.493h3.219a.493.493,0,0,1,.493.493.493.493,0,0,1-.493.492Zm-1.893-4.023a.494.494,0,0,1,0-.7l2.276-2.276a.494.494,0,0,1,.7,0h0a.493.493,0,0,1,0,.7L-4074,8.783a.49.49,0,0,1-.349.144A.493.493,0,0,1-4074.7,8.783Z" transform="translate(4110.5 0.715)" fill="#28236e" stroke="rgba(0,0,0,0)" stroke-width="1"/>
</svg>
